<?xml version="1.0" encoding="utf-8" standalone="no"?>
<!DOCTYPE svg PUBLIC "-//W3C//DTD SVG 1.1//EN"
  "http://www.w3.org/Graphics/SVG/1.1/DTD/svg11.dtd">
<svg xmlns:xlink="http://www.w3.org/1999/xlink" width="576pt" height="288pt" viewBox="0 0 576 288" xmlns="http://www.w3.org/2000/svg" version="1.1">
 <metadata>
  <rdf:RDF xmlns:dc="http://purl.org/dc/elements/1.1/" xmlns:cc="http://creativecommons.org/ns#" xmlns:rdf="http://www.w3.org/1999/02/22-rdf-syntax-ns#">
   <cc:Work>
    <dc:type rdf:resource="http://purl.org/dc/dcmitype/StillImage"/>
    <dc:date>2026-05-24T22:43:31.469298</dc:date>
    <dc:format>image/svg+xml</dc:format>
    <dc:creator>
     <cc:Agent>
      <dc:title>Matplotlib v3.10.9, https://matplotlib.org/</dc:title>
     </cc:Agent>
    </dc:creator>
   </cc:Work>
  </rdf:RDF>
 </metadata>
 <defs>
  <style type="text/css">*{stroke-linejoin: round; stroke-linecap: butt}</style>
 </defs>
 <g id="figure_1">
  <g id="patch_1">
   <path d="M 0 288 
L 576 288 
L 576 0 
L 0 0 
z
" style="fill: #ffffff"/>
  </g>
  <g id="axes_1">
   <g id="patch_2">
    <path d="M 46.64 246.04 
L 564.135923 246.04 
L 564.135923 26.88 
L 46.64 26.88 
z
" style="fill: #ffffff"/>
   </g>
   <g id="matplotlib.axis_1">
    <g id="xtick_1">
     <g id="line2d_1">
      <path d="M 70.162542 246.04 
L 70.162542 26.88 
" clip-path="url(#pb8e86315a5)" style="fill: none; stroke: #b0b0b0; stroke-opacity: 0.3; stroke-width: 0.8; stroke-linecap: square"/>
     </g>
     <g id="line2d_2">
      <defs>
       <path id="mcc34eb81c0" d="M 0 0 
L 0 3.5 
" style="stroke: #000000; stroke-width: 0.8"/>
      </defs>
      <g>
       <use xlink:href="#mcc34eb81c0" x="70.162542" y="246.04" style="stroke: #000000; stroke-width: 0.8"/>
      </g>
     </g>
     <g id="text_1">
      <!-- 0.00 -->
      <g transform="translate(59.029729 260.638438) scale(0.1 -0.1)">
       <defs>
        <path id="DejaVuSans-30" d="M 2034 4250 
Q 1547 4250 1301 3770 
Q 1056 3291 1056 2328 
Q 1056 1369 1301 889 
Q 1547 409 2034 409 
Q 2525 409 2770 889 
Q 3016 1369 3016 2328 
Q 3016 3291 2770 3770 
Q 2525 4250 2034 4250 
z
M 2034 4750 
Q 2819 4750 3233 4129 
Q 3647 3509 3647 2328 
Q 3647 1150 3233 529 
Q 2819 -91 2034 -91 
Q 1250 -91 836 529 
Q 422 1150 422 2328 
Q 422 3509 836 4129 
Q 1250 4750 2034 4750 
z
" transform="scale(0.015625)"/>
        <path id="DejaVuSans-2e" d="M 684 794 
L 1344 794 
L 1344 0 
L 684 0 
L 684 794 
z
" transform="scale(0.015625)"/>
       </defs>
       <use xlink:href="#DejaVuSans-30"/>
       <use xlink:href="#DejaVuSans-2e" transform="translate(63.623047 0)"/>
       <use xlink:href="#DejaVuSans-30" transform="translate(95.410156 0)"/>
       <use xlink:href="#DejaVuSans-30" transform="translate(159.033203 0)"/>
      </g>
     </g>
    </g>
    <g id="xtick_2">
     <g id="line2d_3">
      <path d="M 139.080546 246.04 
L 139.080546 26.88 
" clip-path="url(#pb8e86315a5)" style="fill: none; stroke: #b0b0b0; stroke-opacity: 0.3; stroke-width: 0.8; stroke-linecap: square"/>
     </g>
     <g id="line2d_4">
      <g>
       <use xlink:href="#mcc34eb81c0" x="139.080546" y="246.04" style="stroke: #000000; stroke-width: 0.8"/>
      </g>
     </g>
     <g id="text_2">
      <!-- 0.05 -->
      <g transform="translate(127.947734 260.638438) scale(0.1 -0.1)">
       <defs>
        <path id="DejaVuSans-35" d="M 691 4666 
L 3169 4666 
L 3169 4134 
L 1269 4134 
L 1269 2991 
Q 1406 3038 1543 3061 
Q 1681 3084 1819 3084 
Q 2600 3084 3056 2656 
Q 3513 2228 3513 1497 
Q 3513 744 3044 326 
Q 2575 -91 1722 -91 
Q 1428 -91 1123 -41 
Q 819 9 494 109 
L 494 744 
Q 775 591 1075 516 
Q 1375 441 1709 441 
Q 2250 441 2565 725 
Q 2881 1009 2881 1497 
Q 2881 1984 2565 2268 
Q 2250 2553 1709 2553 
Q 1456 2553 1204 2497 
Q 953 2441 691 2322 
L 691 4666 
z
" transform="scale(0.015625)"/>
       </defs>
       <use xlink:href="#DejaVuSans-30"/>
       <use xlink:href="#DejaVuSans-2e" transform="translate(63.623047 0)"/>
       <use xlink:href="#DejaVuSans-30" transform="translate(95.410156 0)"/>
       <use xlink:href="#DejaVuSans-35" transform="translate(159.033203 0)"/>
      </g>
     </g>
    </g>
    <g id="xtick_3">
     <g id="line2d_5">
      <path d="M 207.998551 246.04 
L 207.998551 26.88 
" clip-path="url(#pb8e86315a5)" style="fill: none; stroke: #b0b0b0; stroke-opacity: 0.3; stroke-width: 0.8; stroke-linecap: square"/>
     </g>
     <g id="line2d_6">
      <g>
       <use xlink:href="#mcc34eb81c0" x="207.998551" y="246.04" style="stroke: #000000; stroke-width: 0.8"/>
      </g>
     </g>
     <g id="text_3">
      <!-- 0.10 -->
      <g transform="translate(196.865738 260.638438) scale(0.1 -0.1)">
       <defs>
        <path id="DejaVuSans-31" d="M 794 531 
L 1825 531 
L 1825 4091 
L 703 3866 
L 703 4441 
L 1819 4666 
L 2450 4666 
L 2450 531 
L 3481 531 
L 3481 0 
L 794 0 
L 794 531 
z
" transform="scale(0.015625)"/>
       </defs>
       <use xlink:href="#DejaVuSans-30"/>
       <use xlink:href="#DejaVuSans-2e" transform="translate(63.623047 0)"/>
       <use xlink:href="#DejaVuSans-31" transform="translate(95.410156 0)"/>
       <use xlink:href="#DejaVuSans-30" transform="translate(159.033203 0)"/>
      </g>
     </g>
    </g>
    <g id="xtick_4">
     <g id="line2d_7">
      <path d="M 276.916555 246.04 
L 276.916555 26.88 
" clip-path="url(#pb8e86315a5)" style="fill: none; stroke: #b0b0b0; stroke-opacity: 0.3; stroke-width: 0.8; stroke-linecap: square"/>
     </g>
     <g id="line2d_8">
      <g>
       <use xlink:href="#mcc34eb81c0" x="276.916555" y="246.04" style="stroke: #000000; stroke-width: 0.8"/>
      </g>
     </g>
     <g id="text_4">
      <!-- 0.15 -->
      <g transform="translate(265.783743 260.638438) scale(0.1 -0.1)">
       <use xlink:href="#DejaVuSans-30"/>
       <use xlink:href="#DejaVuSans-2e" transform="translate(63.623047 0)"/>
       <use xlink:href="#DejaVuSans-31" transform="translate(95.410156 0)"/>
       <use xlink:href="#DejaVuSans-35" transform="translate(159.033203 0)"/>
      </g>
     </g>
    </g>
    <g id="xtick_5">
     <g id="line2d_9">
      <path d="M 345.83456 246.04 
L 345.83456 26.88 
" clip-path="url(#pb8e86315a5)" style="fill: none; stroke: #b0b0b0; stroke-opacity: 0.3; stroke-width: 0.8; stroke-linecap: square"/>
     </g>
     <g id="line2d_10">
      <g>
       <use xlink:href="#mcc34eb81c0" x="345.83456" y="246.04" style="stroke: #000000; stroke-width: 0.8"/>
      </g>
     </g>
     <g id="text_5">
      <!-- 0.20 -->
      <g transform="translate(334.701747 260.638438) scale(0.1 -0.1)">
       <defs>
        <path id="DejaVuSans-32" d="M 1228 531 
L 3431 531 
L 3431 0 
L 469 0 
L 469 531 
Q 828 903 1448 1529 
Q 2069 2156 2228 2338 
Q 2531 2678 2651 2914 
Q 2772 3150 2772 3378 
Q 2772 3750 2511 3984 
Q 2250 4219 1831 4219 
Q 1534 4219 1204 4116 
Q 875 4013 500 3803 
L 500 4441 
Q 881 4594 1212 4672 
Q 1544 4750 1819 4750 
Q 2544 4750 2975 4387 
Q 3406 4025 3406 3419 
Q 3406 3131 3298 2873 
Q 3191 2616 2906 2266 
Q 2828 2175 2409 1742 
Q 1991 1309 1228 531 
z
" transform="scale(0.015625)"/>
       </defs>
       <use xlink:href="#DejaVuSans-30"/>
       <use xlink:href="#DejaVuSans-2e" transform="translate(63.623047 0)"/>
       <use xlink:href="#DejaVuSans-32" transform="translate(95.410156 0)"/>
       <use xlink:href="#DejaVuSans-30" transform="translate(159.033203 0)"/>
      </g>
     </g>
    </g>
    <g id="xtick_6">
     <g id="line2d_11">
      <path d="M 414.752564 246.04 
L 414.752564 26.88 
" clip-path="url(#pb8e86315a5)" style="fill: none; stroke: #b0b0b0; stroke-opacity: 0.3; stroke-width: 0.8; stroke-linecap: square"/>
     </g>
     <g id="line2d_12">
      <g>
       <use xlink:href="#mcc34eb81c0" x="414.752564" y="246.04" style="stroke: #000000; stroke-width: 0.8"/>
      </g>
     </g>
     <g id="text_6">
      <!-- 0.25 -->
      <g transform="translate(403.619752 260.638438) scale(0.1 -0.1)">
       <use xlink:href="#DejaVuSans-30"/>
       <use xlink:href="#DejaVuSans-2e" transform="translate(63.623047 0)"/>
       <use xlink:href="#DejaVuSans-32" transform="translate(95.410156 0)"/>
       <use xlink:href="#DejaVuSans-35" transform="translate(159.033203 0)"/>
      </g>
     </g>
    </g>
    <g id="xtick_7">
     <g id="line2d_13">
      <path d="M 483.670569 246.04 
L 483.670569 26.88 
" clip-path="url(#pb8e86315a5)" style="fill: none; stroke: #b0b0b0; stroke-opacity: 0.3; stroke-width: 0.8; stroke-linecap: square"/>
     </g>
     <g id="line2d_14">
      <g>
       <use xlink:href="#mcc34eb81c0" x="483.670569" y="246.04" style="stroke: #000000; stroke-width: 0.8"/>
      </g>
     </g>
     <g id="text_7">
      <!-- 0.30 -->
      <g transform="translate(472.537756 260.638438) scale(0.1 -0.1)">
       <defs>
        <path id="DejaVuSans-33" d="M 2597 2516 
Q 3050 2419 3304 2112 
Q 3559 1806 3559 1356 
Q 3559 666 3084 287 
Q 2609 -91 1734 -91 
Q 1441 -91 1130 -33 
Q 819 25 488 141 
L 488 750 
Q 750 597 1062 519 
Q 1375 441 1716 441 
Q 2309 441 2620 675 
Q 2931 909 2931 1356 
Q 2931 1769 2642 2001 
Q 2353 2234 1838 2234 
L 1294 2234 
L 1294 2753 
L 1863 2753 
Q 2328 2753 2575 2939 
Q 2822 3125 2822 3475 
Q 2822 3834 2567 4026 
Q 2313 4219 1838 4219 
Q 1578 4219 1281 4162 
Q 984 4106 628 3988 
L 628 4550 
Q 988 4650 1302 4700 
Q 1616 4750 1894 4750 
Q 2613 4750 3031 4423 
Q 3450 4097 3450 3541 
Q 3450 3153 3228 2886 
Q 3006 2619 2597 2516 
z
" transform="scale(0.015625)"/>
       </defs>
       <use xlink:href="#DejaVuSans-30"/>
       <use xlink:href="#DejaVuSans-2e" transform="translate(63.623047 0)"/>
       <use xlink:href="#DejaVuSans-33" transform="translate(95.410156 0)"/>
       <use xlink:href="#DejaVuSans-30" transform="translate(159.033203 0)"/>
      </g>
     </g>
    </g>
    <g id="xtick_8">
     <g id="line2d_15">
      <path d="M 552.588573 246.04 
L 552.588573 26.88 
" clip-path="url(#pb8e86315a5)" style="fill: none; stroke: #b0b0b0; stroke-opacity: 0.3; stroke-width: 0.8; stroke-linecap: square"/>
     </g>
     <g id="line2d_16">
      <g>
       <use xlink:href="#mcc34eb81c0" x="552.588573" y="246.04" style="stroke: #000000; stroke-width: 0.8"/>
      </g>
     </g>
     <g id="text_8">
      <!-- 0.35 -->
      <g transform="translate(541.455761 260.638438) scale(0.1 -0.1)">
       <use xlink:href="#DejaVuSans-30"/>
       <use xlink:href="#DejaVuSans-2e" transform="translate(63.623047 0)"/>
       <use xlink:href="#DejaVuSans-33" transform="translate(95.410156 0)"/>
       <use xlink:href="#DejaVuSans-35" transform="translate(159.033203 0)"/>
      </g>
     </g>
    </g>
    <g id="text_9">
     <!-- Time (s) -->
     <g transform="translate(285.059055 274.316562) scale(0.1 -0.1)">
      <defs>
       <path id="DejaVuSans-54" d="M -19 4666 
L 3928 4666 
L 3928 4134 
L 2272 4134 
L 2272 0 
L 1638 0 
L 1638 4134 
L -19 4134 
L -19 4666 
z
" transform="scale(0.015625)"/>
       <path id="DejaVuSans-69" d="M 603 3500 
L 1178 3500 
L 1178 0 
L 603 0 
L 603 3500 
z
M 603 4863 
L 1178 4863 
L 1178 4134 
L 603 4134 
L 603 4863 
z
" transform="scale(0.015625)"/>
       <path id="DejaVuSans-6d" d="M 3328 2828 
Q 3544 3216 3844 3400 
Q 4144 3584 4550 3584 
Q 5097 3584 5394 3201 
Q 5691 2819 5691 2113 
L 5691 0 
L 5113 0 
L 5113 2094 
Q 5113 2597 4934 2840 
Q 4756 3084 4391 3084 
Q 3944 3084 3684 2787 
Q 3425 2491 3425 1978 
L 3425 0 
L 2847 0 
L 2847 2094 
Q 2847 2600 2669 2842 
Q 2491 3084 2119 3084 
Q 1678 3084 1418 2786 
Q 1159 2488 1159 1978 
L 1159 0 
L 581 0 
L 581 3500 
L 1159 3500 
L 1159 2956 
Q 1356 3278 1631 3431 
Q 1906 3584 2284 3584 
Q 2666 3584 2933 3390 
Q 3200 3197 3328 2828 
z
" transform="scale(0.015625)"/>
       <path id="DejaVuSans-65" d="M 3597 1894 
L 3597 1613 
L 953 1613 
Q 991 1019 1311 708 
Q 1631 397 2203 397 
Q 2534 397 2845 478 
Q 3156 559 3463 722 
L 3463 178 
Q 3153 47 2828 -22 
Q 2503 -91 2169 -91 
Q 1331 -91 842 396 
Q 353 884 353 1716 
Q 353 2575 817 3079 
Q 1281 3584 2069 3584 
Q 2775 3584 3186 3129 
Q 3597 2675 3597 1894 
z
M 3022 2063 
Q 3016 2534 2758 2815 
Q 2500 3097 2075 3097 
Q 1594 3097 1305 2825 
Q 1016 2553 972 2059 
L 3022 2063 
z
" transform="scale(0.015625)"/>
       <path id="DejaVuSans-20" transform="scale(0.015625)"/>
       <path id="DejaVuSans-28" d="M 1984 4856 
Q 1566 4138 1362 3434 
Q 1159 2731 1159 2009 
Q 1159 1288 1364 580 
Q 1569 -128 1984 -844 
L 1484 -844 
Q 1016 -109 783 600 
Q 550 1309 550 2009 
Q 550 2706 781 3412 
Q 1013 4119 1484 4856 
L 1984 4856 
z
" transform="scale(0.015625)"/>
       <path id="DejaVuSans-73" d="M 2834 3397 
L 2834 2853 
Q 2591 2978 2328 3040 
Q 2066 3103 1784 3103 
Q 1356 3103 1142 2972 
Q 928 2841 928 2578 
Q 928 2378 1081 2264 
Q 1234 2150 1697 2047 
L 1894 2003 
Q 2506 1872 2764 1633 
Q 3022 1394 3022 966 
Q 3022 478 2636 193 
Q 2250 -91 1575 -91 
Q 1294 -91 989 -36 
Q 684 19 347 128 
L 347 722 
Q 666 556 975 473 
Q 1284 391 1588 391 
Q 1994 391 2212 530 
Q 2431 669 2431 922 
Q 2431 1156 2273 1281 
Q 2116 1406 1581 1522 
L 1381 1569 
Q 847 1681 609 1914 
Q 372 2147 372 2553 
Q 372 3047 722 3315 
Q 1072 3584 1716 3584 
Q 2034 3584 2315 3537 
Q 2597 3491 2834 3397 
z
" transform="scale(0.015625)"/>
       <path id="DejaVuSans-29" d="M 513 4856 
L 1013 4856 
Q 1481 4119 1714 3412 
Q 1947 2706 1947 2009 
Q 1947 1309 1714 600 
Q 1481 -109 1013 -844 
L 513 -844 
Q 928 -128 1133 580 
Q 1338 1288 1338 2009 
Q 1338 2731 1133 3434 
Q 928 4138 513 4856 
z
" transform="scale(0.015625)"/>
      </defs>
      <use xlink:href="#DejaVuSans-54"/>
      <use xlink:href="#DejaVuSans-69" transform="translate(57.958984 0)"/>
      <use xlink:href="#DejaVuSans-6d" transform="translate(85.742188 0)"/>
      <use xlink:href="#DejaVuSans-65" transform="translate(183.154297 0)"/>
      <use xlink:href="#DejaVuSans-20" transform="translate(244.677734 0)"/>
      <use xlink:href="#DejaVuSans-28" transform="translate(276.464844 0)"/>
      <use xlink:href="#DejaVuSans-73" transform="translate(315.478516 0)"/>
      <use xlink:href="#DejaVuSans-29" transform="translate(367.578125 0)"/>
     </g>
    </g>
   </g>
   <g id="matplotlib.axis_2">
    <g id="ytick_1">
     <g id="line2d_17">
      <path d="M 46.64 222.134795 
L 564.135923 222.134795 
" clip-path="url(#pb8e86315a5)" style="fill: none; stroke: #b0b0b0; stroke-opacity: 0.3; stroke-width: 0.8; stroke-linecap: square"/>
     </g>
     <g id="line2d_18">
      <defs>
       <path id="mff1bccbe02" d="M 0 0 
L -3.5 0 
" style="stroke: #000000; stroke-width: 0.8"/>
      </defs>
      <g>
       <use xlink:href="#mff1bccbe02" x="46.64" y="222.134795" style="stroke: #000000; stroke-width: 0.8"/>
      </g>
     </g>
     <g id="text_10">
      <!-- −2 -->
      <g transform="translate(24.897813 225.934013) scale(0.1 -0.1)">
       <defs>
        <path id="DejaVuSans-2212" d="M 678 2272 
L 4684 2272 
L 4684 1741 
L 678 1741 
L 678 2272 
z
" transform="scale(0.015625)"/>
       </defs>
       <use xlink:href="#DejaVuSans-2212"/>
       <use xlink:href="#DejaVuSans-32" transform="translate(83.789062 0)"/>
      </g>
     </g>
    </g>
    <g id="ytick_2">
     <g id="line2d_19">
      <path d="M 46.64 179.582434 
L 564.135923 179.582434 
" clip-path="url(#pb8e86315a5)" style="fill: none; stroke: #b0b0b0; stroke-opacity: 0.3; stroke-width: 0.8; stroke-linecap: square"/>
     </g>
     <g id="line2d_20">
      <g>
       <use xlink:href="#mff1bccbe02" x="46.64" y="179.582434" style="stroke: #000000; stroke-width: 0.8"/>
      </g>
     </g>
     <g id="text_11">
      <!-- −1 -->
      <g transform="translate(24.897813 183.381653) scale(0.1 -0.1)">
       <use xlink:href="#DejaVuSans-2212"/>
       <use xlink:href="#DejaVuSans-31" transform="translate(83.789062 0)"/>
      </g>
     </g>
    </g>
    <g id="ytick_3">
     <g id="line2d_21">
      <path d="M 46.64 137.030074 
L 564.135923 137.030074 
" clip-path="url(#pb8e86315a5)" style="fill: none; stroke: #b0b0b0; stroke-opacity: 0.3; stroke-width: 0.8; stroke-linecap: square"/>
     </g>
     <g id="line2d_22">
      <g>
       <use xlink:href="#mff1bccbe02" x="46.64" y="137.030074" style="stroke: #000000; stroke-width: 0.8"/>
      </g>
     </g>
     <g id="text_12">
      <!-- 0 -->
      <g transform="translate(33.2775 140.829293) scale(0.1 -0.1)">
       <use xlink:href="#DejaVuSans-30"/>
      </g>
     </g>
    </g>
    <g id="ytick_4">
     <g id="line2d_23">
      <path d="M 46.64 94.477714 
L 564.135923 94.477714 
" clip-path="url(#pb8e86315a5)" style="fill: none; stroke: #b0b0b0; stroke-opacity: 0.3; stroke-width: 0.8; stroke-linecap: square"/>
     </g>
     <g id="line2d_24">
      <g>
       <use xlink:href="#mff1bccbe02" x="46.64" y="94.477714" style="stroke: #000000; stroke-width: 0.8"/>
      </g>
     </g>
     <g id="text_13">
      <!-- 1 -->
      <g transform="translate(33.2775 98.276932) scale(0.1 -0.1)">
       <use xlink:href="#DejaVuSans-31"/>
      </g>
     </g>
    </g>
    <g id="ytick_5">
     <g id="line2d_25">
      <path d="M 46.64 51.925353 
L 564.135923 51.925353 
" clip-path="url(#pb8e86315a5)" style="fill: none; stroke: #b0b0b0; stroke-opacity: 0.3; stroke-width: 0.8; stroke-linecap: square"/>
     </g>
     <g id="line2d_26">
      <g>
       <use xlink:href="#mff1bccbe02" x="46.64" y="51.925353" style="stroke: #000000; stroke-width: 0.8"/>
      </g>
     </g>
     <g id="text_14">
      <!-- 2 -->
      <g transform="translate(33.2775 55.724572) scale(0.1 -0.1)">
       <use xlink:href="#DejaVuSans-32"/>
      </g>
     </g>
    </g>
    <g id="text_15">
     <!-- Amplitude -->
     <g transform="translate(18.818125 162.082656) rotate(-90) scale(0.1 -0.1)">
      <defs>
       <path id="DejaVuSans-41" d="M 2188 4044 
L 1331 1722 
L 3047 1722 
L 2188 4044 
z
M 1831 4666 
L 2547 4666 
L 4325 0 
L 3669 0 
L 3244 1197 
L 1141 1197 
L 716 0 
L 50 0 
L 1831 4666 
z
" transform="scale(0.015625)"/>
       <path id="DejaVuSans-70" d="M 1159 525 
L 1159 -1331 
L 581 -1331 
L 581 3500 
L 1159 3500 
L 1159 2969 
Q 1341 3281 1617 3432 
Q 1894 3584 2278 3584 
Q 2916 3584 3314 3078 
Q 3713 2572 3713 1747 
Q 3713 922 3314 415 
Q 2916 -91 2278 -91 
Q 1894 -91 1617 61 
Q 1341 213 1159 525 
z
M 3116 1747 
Q 3116 2381 2855 2742 
Q 2594 3103 2138 3103 
Q 1681 3103 1420 2742 
Q 1159 2381 1159 1747 
Q 1159 1113 1420 752 
Q 1681 391 2138 391 
Q 2594 391 2855 752 
Q 3116 1113 3116 1747 
z
" transform="scale(0.015625)"/>
       <path id="DejaVuSans-6c" d="M 603 4863 
L 1178 4863 
L 1178 0 
L 603 0 
L 603 4863 
z
" transform="scale(0.015625)"/>
       <path id="DejaVuSans-74" d="M 1172 4494 
L 1172 3500 
L 2356 3500 
L 2356 3053 
L 1172 3053 
L 1172 1153 
Q 1172 725 1289 603 
Q 1406 481 1766 481 
L 2356 481 
L 2356 0 
L 1766 0 
Q 1100 0 847 248 
Q 594 497 594 1153 
L 594 3053 
L 172 3053 
L 172 3500 
L 594 3500 
L 594 4494 
L 1172 4494 
z
" transform="scale(0.015625)"/>
       <path id="DejaVuSans-75" d="M 544 1381 
L 544 3500 
L 1119 3500 
L 1119 1403 
Q 1119 906 1312 657 
Q 1506 409 1894 409 
Q 2359 409 2629 706 
Q 2900 1003 2900 1516 
L 2900 3500 
L 3475 3500 
L 3475 0 
L 2900 0 
L 2900 538 
Q 2691 219 2414 64 
Q 2138 -91 1772 -91 
Q 1169 -91 856 284 
Q 544 659 544 1381 
z
M 1991 3584 
L 1991 3584 
z
" transform="scale(0.015625)"/>
       <path id="DejaVuSans-64" d="M 2906 2969 
L 2906 4863 
L 3481 4863 
L 3481 0 
L 2906 0 
L 2906 525 
Q 2725 213 2448 61 
Q 2172 -91 1784 -91 
Q 1150 -91 751 415 
Q 353 922 353 1747 
Q 353 2572 751 3078 
Q 1150 3584 1784 3584 
Q 2172 3584 2448 3432 
Q 2725 3281 2906 2969 
z
M 947 1747 
Q 947 1113 1208 752 
Q 1469 391 1925 391 
Q 2381 391 2643 752 
Q 2906 1113 2906 1747 
Q 2906 2381 2643 2742 
Q 2381 3103 1925 3103 
Q 1469 3103 1208 2742 
Q 947 2381 947 1747 
z
" transform="scale(0.015625)"/>
      </defs>
      <use xlink:href="#DejaVuSans-41"/>
      <use xlink:href="#DejaVuSans-6d" transform="translate(68.408203 0)"/>
      <use xlink:href="#DejaVuSans-70" transform="translate(165.820312 0)"/>
      <use xlink:href="#DejaVuSans-6c" transform="translate(229.296875 0)"/>
      <use xlink:href="#DejaVuSans-69" transform="translate(257.080078 0)"/>
      <use xlink:href="#DejaVuSans-74" transform="translate(284.863281 0)"/>
      <use xlink:href="#DejaVuSans-75" transform="translate(324.072266 0)"/>
      <use xlink:href="#DejaVuSans-64" transform="translate(387.451172 0)"/>
      <use xlink:href="#DejaVuSans-65" transform="translate(450.927734 0)"/>
     </g>
    </g>
   </g>
   <g id="line2d_27">
    <path d="M 70.162542 128.724194 
L 70.536078 91.746831 
L 70.565023 91.427731 
L 70.793831 73.511059 
L 70.822776 74.652995 
L 71.167366 84.789435 
L 71.196312 82.417439 
L 71.225258 82.060637 
L 71.511956 64.516937 
L 71.827601 52.14003 
L 71.999896 38.512637 
L 72.057787 36.841818 
L 73.00472 134.294808 
L 73.091557 132.381016 
L 73.120503 133.124703 
L 73.149448 132.535779 
L 73.178394 134.195236 
L 73.205961 135.27381 
L 73.234907 133.714522 
L 73.263852 134.527059 
L 73.292798 132.602501 
L 73.321743 136.396299 
L 73.809683 161.354152 
L 74.297622 218.746563 
L 74.326568 218.54912 
L 74.355513 219.06145 
L 74.584321 233.434999 
L 74.642212 233.584401 
L 74.727671 227.770812 
L 74.785562 223.721104 
L 75.188043 197.388044 
L 75.216988 199.169158 
L 75.302447 198.897802 
L 75.445796 191.785047 
L 75.474742 192.415375 
L 75.532633 190.282693 
L 75.590524 186.879398 
L 75.647037 190.091335 
L 75.819332 197.776164 
L 75.848277 197.546509 
L 75.877223 198.671721 
L 76.853102 83.316868 
L 77.025397 79.402604 
L 77.054342 81.796429 
L 77.141179 80.15927 
L 77.197692 80.553347 
L 77.255583 77.029076 
L 77.284529 74.329894 
L 77.369987 75.797313 
L 77.571227 82.604541 
L 77.600173 81.030955 
L 77.830359 62.800588 
L 78.001276 51.777867 
L 78.030221 52.192837 
L 78.088112 48.941539 
L 78.146004 50.444744 
L 78.174949 51.991139 
L 78.202516 48.56461 
L 78.403757 43.628792 
L 78.806238 87.585593 
L 79.063991 112.013243 
L 79.408581 142.136655 
L 79.524364 139.221265 
L 79.551931 139.367645 
L 79.638768 135.184791 
L 79.667713 135.956563 
L 79.840008 148.234238 
L 80.070194 167.929641 
L 80.097761 167.690964 
L 80.241111 179.158145 
L 80.585701 224.503429 
L 80.672538 230.577013 
L 80.786942 230.363272 
L 80.959237 225.205458 
L 81.189423 218.641288 
L 81.476122 190.110186 
L 81.591904 192.572946 
L 81.620849 192.326696 
L 81.764199 198.027904 
L 81.936494 189.269522 
L 81.964061 189.537772 
L 82.079843 188.127033 
L 82.165302 191.615518 
L 82.194247 189.748959 
L 82.223193 190.012954 
L 82.625674 142.986851 
L 82.854482 112.108646 
L 83.084668 88.971523 
L 83.256963 73.201746 
L 83.543662 84.210723 
L 83.601553 83.201806 
L 83.773848 73.689992 
L 83.802793 75.043412 
L 83.831739 73.3877 
L 83.888252 74.223726 
L 83.946143 75.708378 
L 84.434082 44.224312 
L 84.463028 44.325289 
L 84.491973 43.267352 
L 84.520919 45.295313 
L 84.548486 43.751641 
L 84.635323 48.465166 
L 84.865509 61.164662 
L 84.894455 61.547421 
L 85.094317 84.309359 
L 85.353448 119.81841 
L 85.496798 125.859484 
L 85.525743 124.746442 
L 85.554689 125.458598 
L 85.754551 142.012785 
L 85.783497 142.002956 
L 85.812442 142.142655 
L 85.899279 146.279638 
L 85.926846 143.784623 
L 85.955792 144.032533 
L 86.013683 141.516667 
L 86.042629 143.315568 
L 86.185978 148.130495 
L 86.559514 192.870345 
L 86.588459 192.735199 
L 86.989562 231.448315 
L 87.076399 236.078182 
L 87.132911 235.368025 
L 87.851037 187.975419 
L 87.966819 188.462218 
L 88.139114 194.164788 
L 88.16806 193.843773 
L 88.253518 196.145643 
L 88.483704 182.8842 
L 88.511271 183.13662 
L 88.913753 144.745796 
L 89.20183 100.523766 
L 89.488529 81.848131 
L 89.660824 71.536545 
L 89.947523 82.036212 
L 89.976468 81.797238 
L 90.665648 53.682808 
L 90.837943 40.863697 
L 90.923402 42.641194 
L 91.010238 51.475703 
L 91.469232 97.30685 
L 91.842768 134.323148 
L 91.986117 137.072882 
L 92.015063 135.331426 
L 92.072954 137.874611 
L 92.274194 146.194746 
L 92.589839 161.133348 
L 92.618785 159.862522 
L 92.64773 162.981354 
L 92.820025 187.772189 
L 93.048833 215.992915 
L 93.077778 215.434798 
L 93.106724 216.70022 
L 93.13567 216.625072 
L 93.364477 233.568231 
L 93.422368 233.702015 
L 93.48026 232.04592 
L 93.507827 232.304851 
L 93.6815 217.052511 
L 93.881362 201.815745 
L 94.369302 186.469747 
L 94.485084 188.071034 
L 94.51403 187.078288 
L 94.541597 189.805043 
L 94.570542 190.138058 
L 94.628434 193.990919 
L 94.686325 192.804772 
L 94.800729 186.994204 
L 95.116373 151.213286 
L 95.375505 116.400179 
L 95.691149 82.554968 
L 95.720095 82.549308 
L 95.776607 79.063674 
L 95.834499 80.266927 
L 95.863444 80.471136 
L 96.006794 75.877651 
L 96.035739 76.200837 
L 96.064685 76.068541 
L 96.150143 73.702758 
L 96.208034 73.964923 
L 96.43822 81.940129 
L 96.695974 60.924199 
L 96.868269 51.267281 
L 96.897214 54.755638 
L 96.982673 51.779186 
L 97.212859 45.643944 
L 97.040564 52.638276 
L 97.27075 46.355505 
L 98.275574 144.193679 
L 98.30452 143.817388 
L 98.332087 145.58229 
L 98.361033 144.094276 
L 98.504382 138.966079 
L 98.763514 159.526741 
L 98.935809 172.080368 
L 98.964754 171.909818 
L 99.137049 189.184842 
L 99.567098 228.981852 
L 99.596043 229.195976 
L 99.739393 226.332287 
L 99.768338 226.278629 
L 99.797284 227.028103 
L 99.826229 225.580472 
L 99.855175 225.470517 
L 100.343114 188.66281 
L 100.401006 189.023995 
L 100.515409 193.696073 
L 100.571922 193.658798 
L 100.600868 193.192168 
L 100.629813 195.406721 
L 100.658759 193.585012 
L 100.859999 184.14409 
L 101.032294 187.428281 
L 101.233535 173.842887 
L 101.663583 113.328452 
L 101.721475 108.516163 
L 102.122577 72.152235 
L 102.151523 73.034728 
L 102.209414 75.763909 
L 102.23836 74.855374 
L 102.352763 81.762217 
L 102.410655 80.447222 
L 102.640841 71.891687 
L 102.78419 75.914034 
L 102.813136 75.887907 
L 103.214239 46.167976 
L 103.357588 47.06864 
L 103.587774 57.416267 
L 103.61672 56.846108 
L 104.019201 102.39675 
L 104.248009 126.571257 
L 104.276954 125.368812 
L 104.334845 127.359625 
L 104.563653 143.36761 
L 104.707002 148.76976 
L 104.764894 148.512403 
L 104.908243 144.058107 
L 105.052971 154.04672 
L 105.33967 186.162774 
L 105.655314 215.847003 
L 105.8855 234.461362 
L 105.913068 234.258345 
L 105.942013 235.172029 
L 106.172199 216.280866 
L 106.201145 216.760644 
L 106.37344 209.755079 
L 106.402385 211.143648 
L 106.431331 208.086601 
L 106.545735 199.538513 
L 106.746975 184.020177 
L 106.832434 186.442173 
L 106.975783 191.447054 
L 107.004729 192.056701 
L 107.06262 191.40114 
L 107.119133 191.582753 
L 107.60845 160.445787 
L 107.722854 146.742437 
L 108.181848 89.421089 
L 108.297631 82.392418 
L 108.469926 68.519157 
L 108.497493 69.651518 
L 108.526438 70.117849 
L 108.698733 80.594368 
L 108.727679 80.264459 
L 108.814516 81.926682 
L 108.843461 80.745514 
L 109.13016 68.58073 
L 109.159106 70.040829 
L 109.188051 68.131122 
L 109.47475 56.023529 
L 109.703558 42.836084 
L 109.96269 66.406517 
L 110.192876 85.781118 
L 110.30728 96.86771 
L 110.593978 136.60804 
L 110.622924 136.379746 
L 110.65187 138.165328 
L 110.737328 138.103372 
L 110.766273 136.966416 
L 110.824165 138.331197 
L 110.99646 146.422018 
L 111.484399 167.808834 
L 112.03023 220.17662 
L 112.287983 235.564873 
L 112.316929 233.035263 
L 112.57606 209.002413 
L 112.777301 199.5503 
L 113.121891 185.517297 
L 113.150836 186.51115 
L 113.178404 184.242684 
L 113.207349 184.582464 
L 113.236295 183.546867 
L 113.26524 184.597996 
L 113.294186 184.467488 
L 113.40859 187.79555 
L 113.437535 185.93831 
L 113.495426 189.340073 
L 113.522994 190.146568 
L 113.551939 188.492516 
L 114.270065 103.142608 
L 114.471305 82.697263 
L 114.672546 76.639934 
L 114.729059 77.173498 
L 114.872408 71.981728 
L 114.930299 72.772053 
L 115.245944 79.627493 
L 115.733883 52.617425 
L 115.82072 56.511349 
L 115.849665 55.301883 
L 116.078473 48.065897 
L 116.107419 48.421209 
L 116.279714 68.474392 
L 117.084676 147.585272 
L 117.170134 144.717371 
L 117.228026 145.700075 
L 117.256971 146.093386 
L 117.313484 143.246931 
L 117.371375 144.388611 
L 118.002664 194.522696 
L 118.319687 228.86411 
L 118.405145 225.19482 
L 118.434091 226.642238 
L 118.490603 226.517049 
L 118.519549 228.021956 
L 118.691844 224.683255 
L 118.778681 222.12688 
L 119.152216 190.166057 
L 119.208729 187.58581 
L 119.26662 187.646873 
L 119.381024 191.778239 
L 119.40997 191.116166 
L 119.553319 187.546747 
L 119.669101 180.132721 
L 119.725614 180.390163 
L 119.870342 183.30883 
L 119.897909 183.197087 
L 120.213553 147.223066 
L 120.530576 108.624118 
L 120.902734 70.851665 
L 120.931679 72.757585 
L 120.960625 72.250956 
L 121.018516 72.796988 
L 121.047461 72.943879 
L 121.219756 79.36252 
L 121.247324 79.434263 
L 121.33416 76.227942 
L 121.47751 72.355295 
L 121.506455 71.517481 
L 121.535401 72.936049 
L 121.649805 75.952416 
L 121.707696 75.59387 
L 121.879991 62.397659 
L 122.081231 49.025325 
L 122.108799 49.302639 
L 122.137744 49.0786 
L 122.36793 56.438542 
L 122.396876 56.436201 
L 122.569171 66.149118 
L 122.654629 77.773061 
L 122.85587 105.29946 
L 123.115001 131.408907 
L 123.143947 131.777964 
L 123.171514 131.568861 
L 123.20046 130.913981 
L 123.430646 148.545041 
L 123.54505 152.653258 
L 123.602941 151.835359 
L 123.659454 147.568762 
L 123.775236 148.790568 
L 123.833127 151.839529 
L 124.722169 232.695439 
L 124.751115 232.426423 
L 124.78006 232.416892 
L 124.809006 232.743609 
L 125.095705 211.404281 
L 125.12465 212.638129 
L 125.182542 211.235944 
L 125.556077 182.032769 
L 125.61259 182.753862 
L 125.784885 189.875552 
L 125.842776 189.00574 
L 126.044017 182.429443 
L 126.158421 175.362049 
L 126.187366 175.787955 
L 126.272824 171.319191 
L 126.445119 157.647416 
L 126.99095 88.940375 
L 127.106732 82.302888 
L 127.33554 67.97121 
L 127.364486 68.130399 
L 127.393431 67.580282 
L 127.594672 79.719321 
L 127.622239 81.775238 
L 127.68013 81.148485 
L 127.910316 70.330058 
L 127.939262 71.503524 
L 127.968207 68.659409 
L 127.995775 67.909296 
L 128.053666 68.578134 
L 128.082611 69.351651 
L 128.36931 51.492043 
L 128.398256 52.030075 
L 128.483714 48.010706 
L 128.51266 48.520782 
L 128.828304 70.618009 
L 129.05849 91.245266 
L 129.145327 102.450792 
L 129.489917 140.674045 
L 129.518862 141.803853 
L 129.54643 139.510238 
L 129.575375 140.741278 
L 129.604321 140.298819 
L 129.633266 140.91753 
L 129.662212 141.371436 
L 129.689779 141.127526 
L 129.919965 153.907702 
L 130.322446 169.838114 
L 130.78144 217.229827 
L 131.154976 232.980455 
L 131.240434 226.156418 
L 131.585024 198.591978 
L 131.61397 199.757317 
L 131.671861 198.267218 
L 131.902047 183.164492 
L 132.045396 181.023215 
L 132.101909 181.711201 
L 132.275583 186.562128 
L 133.423757 77.445834 
L 133.481648 77.780125 
L 133.509215 78.655299 
L 133.68151 71.271358 
L 133.710455 71.744796 
L 133.739401 69.414544 
L 133.797292 70.767921 
L 133.969587 78.87355 
L 133.997154 77.376643 
L 134.055045 78.046715 
L 134.112937 79.172183 
L 134.141882 78.01012 
L 134.169449 77.856209 
L 134.399636 60.64046 
L 134.428581 60.77884 
L 134.514039 56.537731 
L 134.571931 57.470437 
L 134.658767 55.432859 
L 134.71528 55.892723 
L 134.744226 56.973042 
L 134.773171 56.335948 
L 134.858629 50.745079 
L 134.916521 51.928545 
L 135.05987 61.513804 
L 135.462351 107.681243 
L 135.864832 147.63676 
L 135.893778 146.764011 
L 135.921345 147.362383 
L 136.008182 150.371516 
L 136.037127 147.617484 
L 136.09364 146.831755 
L 136.811766 191.654113 
L 137.099843 225.790553 
L 137.12741 225.454389 
L 137.156356 224.853507 
L 137.243192 226.735513 
L 137.328651 224.669 
L 137.357596 225.363115 
L 137.444433 228.237101 
L 137.472 225.693917 
L 137.500946 226.090249 
L 137.529891 225.106481 
L 137.644295 218.434995 
L 138.075722 186.459066 
L 138.104667 186.606084 
L 138.16118 187.541853 
L 138.190126 185.705336 
L 138.305908 187.384282 
L 138.449257 179.438735 
L 138.476825 180.021234 
L 138.592607 176.551685 
L 138.678065 179.567201 
L 138.707011 178.747727 
L 138.764902 178.939723 
L 138.966142 155.761197 
L 139.281787 118.47699 
L 139.655323 73.749948 
L 139.769726 70.639158 
L 139.827618 70.859111 
L 139.999913 76.05518 
L 140.056425 76.808186 
L 140.085371 75.475234 
L 140.114316 76.190199 
L 140.172208 75.52336 
L 140.201153 75.51251 
L 140.286611 71.502248 
L 140.315557 73.957434 
L 140.344503 73.985305 
L 140.37207 73.526974 
L 140.429961 74.026496 
L 140.516798 76.474874 
L 140.544365 75.140687 
L 140.57331 75.295876 
L 140.832442 53.463791 
L 140.888955 50.134537 
L 140.946846 51.717613 
L 141.119141 57.616221 
L 141.148087 57.874258 
L 141.291436 61.75414 
L 141.320382 61.588314 
L 141.407218 69.510159 
L 141.95167 132.08966 
L 142.354152 155.877025 
L 142.43961 154.269354 
L 142.468555 154.62105 
L 142.497501 153.619707 
L 142.584338 150.022203 
L 142.613283 153.071122 
L 142.698742 157.85571 
L 143.244572 208.328043 
L 143.474758 230.629565 
L 143.502326 229.803964 
L 143.531271 231.082152 
L 143.560217 230.844795 
L 143.589162 231.706948 
L 143.618108 229.660052 
L 143.732512 225.377625 
L 143.962698 210.234048 
L 144.191506 198.525383 
L 144.421692 178.798407 
L 144.651878 186.771273 
L 144.708391 186.396259 
L 145.081926 168.799964 
L 145.110872 169.989983 
L 145.139817 168.49197 
L 145.312112 151.035588 
L 145.742161 93.184718 
L 146.144642 66.894806 
L 146.202533 68.380138 
L 146.316937 71.994961 
L 146.460286 79.576856 
L 146.489232 79.820681 
L 146.775931 68.994807 
L 146.804876 71.177913 
L 146.862767 70.781155 
L 147.292816 50.553508 
L 147.350707 50.508955 
L 147.494056 57.514861 
L 148.384477 144.463503 
L 148.442368 143.863855 
L 148.469935 143.212677 
L 148.758013 157.569715 
L 148.786958 157.160064 
L 149.044711 162.765741 
L 149.245952 182.873179 
L 149.676 220.624016 
L 149.935132 232.817011 
L 149.993023 229.80856 
L 150.02059 229.351207 
L 150.509908 194.744564 
L 150.538854 195.679396 
L 150.566421 193.260805 
L 150.825553 176.377731 
L 150.882065 178.476711 
L 150.911011 178.653474 
L 150.997848 181.863496 
L 151.055739 181.81388 
L 151.083306 180.514161 
L 151.170143 181.033044 
L 151.199088 180.774454 
L 151.571246 147.525954 
L 151.801432 123.273279 
L 152.203913 77.333155 
L 152.232858 78.559769 
L 152.289371 76.585595 
L 152.347262 74.776481 
L 152.376208 75.078093 
L 152.548503 67.388073 
L 152.577448 69.174676 
L 152.606394 69.206037 
L 152.835202 79.733831 
L 152.922038 78.480877 
L 153.094333 72.00611 
L 153.266628 61.973157 
L 153.294196 62.264002 
L 153.438923 58.646243 
L 153.467869 58.722412 
L 153.495436 59.252572 
L 153.524382 58.126934 
L 153.553327 58.626882 
L 153.582273 56.147441 
L 153.667731 57.018743 
L 153.725622 53.579704 
L 153.783513 55.000995 
L 154.099158 93.993468 
L 154.356911 116.090313 
L 154.730447 152.578238 
L 154.759392 151.272306 
L 154.817284 149.551659 
L 154.902742 150.797209 
L 154.960633 150.393643 
L 155.189441 161.065987 
L 155.477518 176.81002 
L 155.965457 227.250822 
L 155.994403 226.562325 
L 156.079861 223.641531 
L 156.137752 224.047906 
L 156.166698 225.892594 
L 156.252156 224.645129 
L 156.310047 227.052699 
L 156.367939 225.364519 
L 156.855878 185.667507 
L 156.912391 185.670996 
L 156.941336 185.580317 
L 157.200468 179.64571 
L 157.229414 179.793707 
L 157.314872 174.354962 
L 157.372763 175.181712 
L 157.401709 176.28518 
L 157.430654 175.397325 
L 157.458221 173.884716 
L 157.516113 174.539894 
L 157.545058 175.843401 
L 157.574004 174.148668 
L 157.601571 174.351558 
L 157.688408 168.459375 
L 158.520937 70.967067 
L 158.549883 69.269653 
L 158.607774 71.406845 
L 158.635341 71.269529 
L 158.693232 71.131234 
L 158.780069 72.92405 
L 158.923418 74.680441 
L 159.008877 71.966366 
L 159.037822 73.063111 
L 159.066768 74.322022 
L 159.124659 73.905945 
L 159.152226 72.139682 
L 159.210117 73.644546 
L 159.324521 75.93148 
L 159.583653 62.395702 
L 159.727002 54.199437 
L 159.755948 53.512046 
L 159.813839 53.987824 
L 160.013701 61.83099 
L 160.301778 79.820383 
L 161.134308 156.409993 
L 161.221144 157.784903 
L 161.277657 157.771796 
L 161.39344 155.294653 
L 161.421007 155.2961 
L 161.449952 154.791897 
L 161.709084 178.855002 
L 161.881379 191.661688 
L 161.910325 192.063467 
L 162.340373 231.147129 
L 162.598126 221.736675 
L 163.259739 178.725302 
L 163.316252 177.964594 
L 163.345197 176.546919 
L 163.374143 179.238569 
L 163.517492 182.319828 
L 163.546438 181.288486 
L 163.575384 181.748945 
L 163.976486 163.76636 
L 164.092269 155.703879 
L 164.522317 96.635501 
L 164.982689 66.119714 
L 165.039202 65.763977 
L 165.240443 75.670421 
L 165.327279 80.36484 
L 165.356225 78.743638 
L 165.556087 70.598818 
L 165.585033 70.586734 
L 165.642924 69.351098 
L 165.671869 70.941705 
L 165.699436 70.63652 
L 165.728382 72.130618 
L 165.786273 71.451568 
L 166.101918 52.675466 
L 166.188754 54.983421 
L 166.2177 54.725043 
L 166.734585 98.535166 
L 167.164633 147.56557 
L 167.193579 146.85018 
L 167.250092 146.596993 
L 167.279037 145.906284 
L 167.307983 147.512422 
L 167.336928 147.247108 
L 167.623627 163.508876 
L 167.739409 161.101646 
L 168.026108 179.143805 
L 168.62983 226.139908 
L 168.800747 229.797156 
L 168.858638 228.625093 
L 169.691167 173.552424 
L 169.921353 180.053872 
L 169.950299 178.196461 
L 170.00819 176.299264 
L 170.294889 155.939066 
L 170.69737 110.803735 
L 171.013015 75.5477 
L 171.04196 75.932204 
L 171.414117 65.611043 
L 171.443063 66.963826 
L 171.702195 79.998337 
L 171.816598 78.167777 
L 172.046785 65.113862 
L 172.074352 65.311688 
L 172.103297 64.846931 
L 172.21908 62.800035 
L 172.362429 59.669287 
L 172.42032 60.772798 
L 172.505779 56.500115 
L 172.534724 57.794175 
L 172.678074 62.911862 
L 172.763532 72.54427 
L 173.137067 114.183116 
L 173.338308 137.93295 
L 173.539549 153.787151 
L 173.568494 153.266438 
L 173.59744 154.300375 
L 173.625007 153.598218 
L 173.653952 154.628241 
L 173.682898 152.466624 
L 173.740789 152.082759 
L 173.769735 152.285521 
L 174.573319 206.044003 
L 174.83245 225.849445 
L 175.004745 222.166028 
L 175.090204 225.956124 
L 175.119149 224.356836 
L 175.175662 224.415261 
L 175.233553 223.161668 
L 175.721493 184.626506 
L 175.750438 184.363788 
L 176.066083 173.861738 
L 176.123974 173.433703 
L 176.152919 174.395685 
L 176.181865 172.277045 
L 176.238378 171.005921 
L 176.267323 172.631889 
L 176.35416 172.200536 
L 176.611913 153.931616 
L 176.927558 116.700641 
L 177.416876 69.198888 
L 177.444443 69.545818 
L 177.473388 69.529648 
L 177.587792 73.632248 
L 177.645683 71.953132 
L 177.674629 71.873432 
L 177.703574 72.631332 
L 177.760087 71.415228 
L 177.789033 72.069343 
L 177.817978 71.764838 
L 177.875869 71.523141 
L 177.990273 75.451532 
L 178.019219 74.830863 
L 178.048164 76.101477 
L 178.07711 74.991116 
L 178.191514 77.116606 
L 178.220459 75.69374 
L 178.363809 68.721919 
L 178.536104 56.289821 
L 178.593995 56.334714 
L 178.822803 65.307347 
L 178.851748 64.811229 
L 178.880694 64.946078 
L 179.11088 77.148478 
L 179.713223 144.034575 
L 179.94341 157.001131 
L 179.972355 157.137298 
L 180.086759 160.184558 
L 180.230108 157.805838 
L 180.431349 167.434927 
L 180.661535 190.736514 
L 180.775939 194.78052 
L 181.120529 230.007832 
L 181.234933 228.563392 
L 181.263879 228.418119 
L 182.125354 175.577789 
L 182.239757 176.81419 
L 182.268703 176.200883 
L 182.35554 179.223165 
L 182.384485 179.199889 
L 182.729075 162.100478 
L 182.758021 163.448196 
L 182.814534 161.459214 
L 183.015774 140.478432 
L 183.273528 103.447368 
L 183.59055 76.43313 
L 183.791791 65.965334 
L 183.906195 66.833147 
L 184.135003 76.880781 
L 184.163948 76.587808 
L 184.192894 78.731979 
L 184.250785 76.626403 
L 184.42308 71.106383 
L 184.595375 72.580141 
L 184.651888 72.697926 
L 184.853128 59.799455 
L 184.939965 54.496112 
L 184.996478 55.948934 
L 185.083314 59.678138 
L 186.117084 150.894229 
L 186.14603 150.782784 
L 186.203921 151.33822 
L 186.403783 162.543576 
L 186.49062 165.836235 
L 186.547133 165.726237 
L 186.662915 162.888845 
L 187.408608 223.930121 
L 187.609848 229.181082 
L 187.638794 227.228865 
L 187.66774 226.986359 
L 188.500269 169.561226 
L 188.672564 174.762997 
L 188.70151 174.980397 
L 188.730455 176.178203 
L 188.786968 176.011866 
L 189.189449 148.784993 
L 189.505094 112.131837 
L 189.764225 79.262096 
L 189.93652 72.763968 
L 189.965466 73.777267 
L 190.021979 72.237127 
L 190.194274 65.191733 
L 190.252165 66.344391 
L 190.395514 72.104746 
L 190.567809 80.444966 
L 190.999236 65.752019 
L 191.026803 66.527281 
L 191.084694 65.788912 
L 191.256989 60.436974 
L 191.31488 60.334423 
L 191.343826 60.952964 
L 191.371393 59.244572 
L 191.429284 60.947007 
L 191.630525 79.021079 
L 191.917224 113.611765 
L 192.118464 134.639355 
L 192.377596 157.773371 
L 192.434109 156.752497 
L 192.549891 154.555476 
L 192.606404 155.734517 
L 192.664295 156.718796 
L 193.268017 189.122163 
L 193.611228 223.394983 
L 193.698065 224.83721 
L 193.72701 223.17103 
L 193.812469 224.08382 
L 193.841414 224.139521 
L 193.87036 222.32445 
L 193.928251 222.670401 
L 193.957197 224.263306 
L 194.013709 223.786167 
L 194.21495 207.801287 
L 194.445136 185.951927 
L 194.818672 173.457958 
L 194.962021 168.574351 
L 194.990967 168.683754 
L 195.076425 170.675927 
L 195.105371 169.11949 
L 195.134316 169.231488 
L 195.392069 156.965472 
L 196.08125 74.062921 
L 196.224599 66.92855 
L 196.28249 68.402266 
L 196.454785 72.85103 
L 196.656026 69.936236 
L 196.684971 70.104403 
L 196.913779 78.330412 
L 197.172911 71.249061 
L 197.401718 59.913155 
L 197.430664 60.112896 
L 197.45961 59.113128 
L 197.488555 60.366678 
L 197.919982 76.688827 
L 198.407921 135.64525 
L 198.464434 139.101523 
L 198.809024 162.407791 
L 198.895861 160.844205 
L 198.924806 161.305302 
L 198.953752 161.533808 
L 198.981319 161.296281 
L 199.010265 161.434108 
L 199.03921 160.150005 
L 199.097101 161.477086 
L 199.786281 212.015758 
L 200.044035 230.300848 
L 200.992346 173.247196 
L 201.077805 174.179263 
L 201.10675 174.92461 
L 201.164642 174.71104 
L 201.45134 162.633744 
L 201.565744 159.858734 
L 201.79593 144.33257 
L 202.427219 72.461122 
L 202.62846 64.153455 
L 202.97305 76.845633 
L 203.001996 76.774017 
L 203.145345 74.791502 
L 203.232182 71.653096 
L 203.288694 71.974834 
L 203.433422 73.841138 
L 203.460989 73.890201 
L 203.749067 58.307484 
L 203.776634 58.588968 
L 203.805579 57.808175 
L 203.863471 58.702029 
L 204.409301 105.008572 
L 204.83935 151.753276 
L 204.868295 151.8197 
L 204.926186 151.724766 
L 205.127427 159.572144 
L 205.299722 167.349312 
L 205.38518 166.525328 
L 205.356235 167.631987 
L 205.443071 166.822258 
L 205.472017 167.301057 
L 205.499584 166.567199 
L 205.52853 165.832192 
L 205.557475 167.87011 
L 205.700825 181.832135 
L 205.988902 206.507015 
L 206.333492 228.135188 
L 206.390005 228.086551 
L 206.41895 228.162081 
L 206.5623 220.833543 
L 207.367262 167.602498 
L 207.396207 167.68339 
L 207.423775 167.723517 
L 207.568502 172.360618 
L 207.59607 172.330831 
L 207.682906 169.413101 
L 207.826256 157.487547 
L 208.28525 116.134014 
L 208.658785 73.858457 
L 208.687731 74.014752 
L 208.716676 73.565229 
L 209.061266 64.571957 
L 209.119158 65.402154 
L 209.405856 80.291693 
L 209.491315 78.254796 
L 209.692555 68.524774 
L 209.721501 67.629813 
L 209.779392 68.873405 
L 209.808338 70.574095 
L 209.86485 68.851363 
L 210.151549 61.52423 
L 210.180495 61.627334 
L 210.35279 70.385844 
L 211.185319 159.350872 
L 211.24321 160.939139 
L 211.301102 159.655802 
L 211.415505 156.755901 
L 211.444451 158.229107 
L 211.616746 166.554774 
L 211.789041 172.783418 
L 211.932391 176.375561 
L 212.563679 223.984418 
L 212.650516 221.85897 
L 212.679462 222.817717 
L 212.708407 223.370898 
L 212.76492 223.043075 
L 213.081943 202.435264 
L 213.281805 183.195257 
L 213.771123 165.197354 
L 213.885527 166.273673 
L 213.999931 167.539435 
L 214.458925 125.741358 
L 214.97581 69.261696 
L 215.091592 66.505154 
L 215.234941 71.926495 
L 215.378291 71.185403 
L 215.494073 68.66792 
L 215.52164 69.107358 
L 215.666368 75.344002 
L 215.809717 78.780701 
L 215.837285 79.973316 
L 215.86623 77.83906 
L 216.268711 63.345215 
L 216.355548 64.163072 
L 216.383115 64.070052 
L 216.55541 70.659498 
L 216.584356 70.617839 
L 216.871055 96.697628 
L 217.188078 133.456867 
L 217.676017 164.820723 
L 217.819366 161.785207 
L 217.733908 164.980124 
L 217.848312 162.830761 
L 218.106065 174.214029 
L 218.394143 193.636968 
L 218.42171 194.196191 
L 218.824191 228.106763 
L 218.853137 228.126252 
L 219.456858 194.934049 
L 219.685666 175.036608 
L 219.857961 171.604037 
L 219.886907 171.936881 
L 219.915852 171.113493 
L 220.00131 170.682651 
L 220.030256 171.369446 
L 220.289388 159.992179 
L 220.690491 133.237893 
L 220.978568 96.334018 
L 221.092972 88.22724 
L 221.437562 63.5647 
L 221.52302 65.202413 
L 221.638802 69.852024 
L 221.811097 74.336448 
L 221.868988 76.000287 
L 221.925501 75.167963 
L 222.012338 73.382594 
L 222.041283 74.500189 
L 222.068851 75.200771 
L 222.126742 74.061091 
L 222.155687 73.392466 
L 222.184633 74.869926 
L 222.2122 74.614527 
L 222.241146 74.92384 
L 222.270091 74.530571 
L 222.327982 74.872777 
L 222.614681 59.469334 
L 222.672572 61.879244 
L 223.102621 90.938974 
L 223.274916 111.99401 
L 223.562993 147.309618 
L 223.735288 155.063254 
L 223.964096 163.943846 
L 224.021987 166.089762 
L 224.050932 165.960147 
L 224.165336 169.528205 
L 224.194282 169.458504 
L 224.223227 169.818455 
L 224.308686 167.601732 
L 224.337631 169.501567 
L 224.480981 177.503369 
L 225.142594 226.790533 
L 225.199106 228.783133 
L 225.256998 227.167292 
L 225.458238 214.532092 
L 225.687046 195.721779 
L 226.060581 172.170068 
L 226.203931 165.453561 
L 226.434117 169.389612 
L 226.635358 157.47976 
L 227.698073 68.425286 
L 227.841423 64.930972 
L 227.870368 65.226923 
L 227.926881 66.032737 
L 228.271471 80.340841 
L 228.300417 79.276734 
L 228.358308 77.054352 
L 228.501657 70.137806 
L 228.559548 70.640903 
L 228.587115 70.654732 
L 228.645007 69.733942 
L 228.731843 72.467037 
L 228.75941 70.737922 
L 228.817302 69.419735 
L 229.018542 63.689592 
L 229.161892 72.808179 
L 229.966854 158.643992 
L 230.110203 163.061651 
L 230.195662 160.73459 
L 230.282498 160.749653 
L 230.855896 183.760523 
L 231.287323 219.641099 
L 231.488563 223.364175 
L 231.545076 222.379854 
L 231.717371 217.656669 
L 231.860721 207.078961 
L 232.177744 178.926277 
L 232.206689 178.798875 
L 232.636737 161.447001 
L 232.694629 162.269198 
L 232.751141 163.890103 
L 232.809032 163.635937 
L 232.952382 157.247679 
L 233.325917 121.117406 
L 233.871748 65.740275 
L 233.900694 65.771551 
L 233.929639 65.535981 
L 234.158447 71.13017 
L 234.272851 67.995508 
L 234.330742 68.640729 
L 234.531983 76.716188 
L 234.618819 80.484327 
L 234.646386 79.668811 
L 234.818681 73.731821 
L 234.990976 66.505834 
L 235.077813 67.398455 
L 235.106759 66.98408 
L 235.134326 66.952719 
L 235.422403 74.708653 
L 235.451349 73.944328 
L 235.480294 75.533318 
L 235.623644 87.884481 
L 236.398282 166.630985 
L 236.456173 168.202359 
L 236.512686 167.173698 
L 236.684981 163.787764 
L 236.771818 167.255016 
L 237.403107 206.815094 
L 237.691184 227.521285 
L 237.720129 227.36099 
L 238.006828 212.30337 
L 238.035774 212.453622 
L 238.293527 194.212872 
L 238.581604 170.392741 
L 238.609172 170.293084 
L 238.638117 170.679332 
L 238.696008 170.607333 
L 238.897249 165.471348 
L 239.44308 140.591026 
L 240.275609 61.284532 
L 240.304555 61.894691 
L 240.504417 71.674457 
L 240.591253 74.360873 
L 240.676712 73.697566 
L 240.705657 73.84067 
L 240.763549 73.724162 
L 240.849007 75.201835 
L 240.877952 73.955391 
L 240.993735 77.344474 
L 241.050247 76.605467 
L 241.251488 72.945666 
L 241.481674 63.674698 
L 241.538187 65.234753 
L 241.882777 89.833294 
L 242.055072 106.475054 
L 242.515444 154.563221 
L 243.003384 171.260129 
L 243.059896 170.341125 
L 243.088842 171.091919 
L 243.146733 171.361786 
L 243.175679 170.420486 
L 243.204624 171.875564 
L 243.319028 179.460607 
L 243.750455 210.84093 
L 243.835913 214.762853 
L 244.037154 226.377478 
L 244.066099 227.914129 
L 244.122612 225.614173 
L 244.668443 185.221601 
L 245.070924 162.101925 
L 245.127437 163.662575 
L 245.156382 164.804 
L 245.243219 164.417028 
L 245.299732 165.118461 
L 245.357623 162.326005 
L 245.817995 130.994532 
L 246.305934 74.893969 
L 246.650524 63.822398 
L 246.707037 64.172093 
L 247.080573 79.575835 
L 247.138464 79.307797 
L 247.367272 71.216338 
L 247.425163 72.194957 
L 247.454108 73.472932 
L 247.540945 73.226427 
L 247.568512 72.888646 
L 247.597458 74.018071 
L 247.655349 73.306127 
L 247.827644 66.615279 
L 247.85659 66.661746 
L 247.884157 66.784042 
L 248.429987 120.185424 
L 248.919305 165.193056 
L 249.062655 163.812359 
L 249.206004 166.463967 
L 249.43619 176.519132 
L 249.664998 181.488312 
L 250.096425 218.289806 
L 250.26872 220.670738 
L 250.354178 222.486362 
L 250.412069 222.471852 
L 250.698768 203.82728 
L 251.15914 173.00235 
L 251.186708 172.937287 
L 251.474785 157.839285 
L 251.531298 159.636441 
L 251.560243 159.418956 
L 251.64708 161.613509 
L 251.676025 160.886502 
L 252.048183 129.573241 
L 252.651904 67.926105 
L 252.795254 65.064926 
L 253.02544 69.710283 
L 253.139844 67.1948 
L 253.197735 68.668899 
L 253.484434 82.261442 
L 253.771133 68.892086 
L 253.914482 69.854365 
L 254.05921 71.829901 
L 254.374854 81.906002 
L 255.149493 163.377176 
L 255.321788 170.486442 
L 255.350733 170.038323 
L 255.379679 170.35304 
L 255.494083 166.076698 
L 255.523028 167.447735 
L 255.551974 167.044977 
L 256.12675 197.766037 
L 256.500286 224.487557 
L 256.556798 224.507982 
L 256.700148 217.761093 
L 256.930334 207.893286 
L 256.95928 207.335552 
L 257.476165 167.852195 
L 257.706351 162.293793 
L 257.964104 153.459881 
L 258.021995 154.168335 
L 258.279749 138.106606 
L 258.738742 86.784672 
L 259.084711 61.357169 
L 259.141224 62.031794 
L 259.170169 62.022433 
L 259.456868 74.278449 
L 259.543705 73.300085 
L 259.57265 73.713906 
L 259.629163 73.252171 
L 259.658109 73.813053 
L 259.859349 78.935932 
L 259.888295 78.877933 
L 259.91724 79.335286 
L 259.946186 78.0548 
L 260.06059 74.925968 
L 260.26183 66.807616 
L 260.347289 69.193356 
L 260.490638 77.063798 
L 260.922065 112.874078 
L 261.208764 150.148541 
L 261.754594 173.211069 
L 261.840053 171.608718 
L 261.897944 171.819394 
L 261.955835 171.962243 
L 262.099184 176.854488 
L 262.587124 210.506681 
L 262.788364 222.817334 
L 262.846255 226.168801 
L 262.902768 225.027419 
L 262.989605 222.860483 
L 263.334195 195.493783 
L 263.880026 161.090242 
L 263.908971 161.86044 
L 263.965484 160.606507 
L 263.994429 159.825288 
L 264.023375 161.105433 
L 264.052321 161.648657 
L 264.108833 160.862715 
L 264.569206 134.560761 
L 265.287331 69.395693 
L 265.430681 62.621102 
L 265.487193 63.434618 
L 265.516139 62.979946 
L 265.545085 63.738229 
L 265.71738 71.941303 
L 265.91862 79.31801 
L 265.947566 80.085697 
L 265.976511 79.451752 
L 266.234265 74.207769 
L 266.377614 76.166922 
L 266.292156 73.963561 
L 266.435505 75.712123 
L 266.578855 72.776776 
L 266.636746 69.371864 
L 266.693259 69.427437 
L 266.836608 79.281372 
L 267.354871 132.61833 
L 267.64157 163.480493 
L 267.670516 163.64249 
L 267.78492 167.359524 
L 267.842811 167.016595 
L 267.871756 166.584135 
L 267.899324 167.262803 
L 267.928269 166.866342 
L 268.272859 179.152145 
L 268.301805 178.698069 
L 268.33075 178.075613 
L 268.359696 179.189208 
L 268.388641 179.236739 
L 268.588504 190.735919 
L 268.876581 216.517415 
L 268.904148 215.813854 
L 268.990985 216.426821 
L 269.221171 221.663229 
L 269.393466 213.899679 
L 269.738056 182.020429 
L 269.939297 172.538912 
L 270.282508 155.745921 
L 270.311454 155.843451 
L 270.340399 154.955809 
L 270.39829 156.477524 
L 270.427236 156.591181 
L 270.512694 157.467973 
L 270.54164 156.779646 
L 270.627098 150.908356 
L 271.058525 111.906054 
L 271.546464 66.142778 
L 271.604355 65.049097 
L 271.660868 65.096458 
L 271.834542 68.841363 
L 271.862109 67.965806 
L 271.891054 67.941806 
L 271.92 67.505177 
L 272.350048 82.522756 
L 272.638126 71.165829 
L 272.696017 71.695478 
L 272.95377 75.773781 
L 272.982716 75.396469 
L 273.011661 76.260623 
L 273.155011 80.756322 
L 274.13089 173.30311 
L 274.361076 168.027511 
L 274.418967 169.501312 
L 274.705666 185.728016 
L 274.849015 190.181802 
L 275.02131 202.366245 
L 275.308009 222.205644 
L 275.3659 222.9478 
L 275.882785 198.333728 
L 276.256321 164.749235 
L 276.341779 166.158271 
L 276.715315 151.114139 
L 276.802151 152.080886 
L 277.203254 123.675952 
L 277.57679 85.392912 
L 277.950325 59.896176 
L 277.979271 61.987582 
L 278.237024 73.927647 
L 278.438265 73.753565 
L 278.581614 77.92476 
L 278.697397 81.200356 
L 278.726342 80.497008 
L 278.840746 79.515836 
L 279.041987 71.69535 
L 279.098499 71.877474 
L 279.127445 70.964598 
L 279.270794 76.704912 
L 279.760112 116.294734 
L 280.161215 157.722819 
L 280.304564 164.422475 
L 280.534751 175.717744 
L 280.707046 172.972308 
L 280.764937 172.956776 
L 280.908286 177.890765 
L 281.36728 207.545803 
L 281.71187 224.520918 
L 281.798707 221.927735 
L 282.74564 158.119237 
L 282.774586 159.100792 
L 282.803531 158.992879 
L 282.832477 159.026666 
L 283.492711 125.118009 
L 283.980651 73.775139 
L 284.009596 73.738161 
L 284.296295 61.038494 
L 284.354186 62.027879 
L 284.584372 74.121005 
L 284.727722 79.034441 
L 284.755289 78.051992 
L 284.842126 79.227458 
L 284.871071 79.01325 
L 285.014421 76.75457 
L 285.186716 77.819954 
L 285.215661 77.213242 
L 285.272174 77.765402 
L 285.30112 78.205861 
L 285.330065 77.692935 
L 285.50236 73.063621 
L 285.531306 72.971836 
L 285.589197 74.98469 
L 285.703601 85.478783 
L 286.67948 168.768475 
L 287.02407 178.2768 
L 287.053015 177.6166 
L 287.081961 178.643304 
L 287.397605 188.900678 
L 287.800087 216.080147 
L 287.856599 215.460202 
L 287.885545 215.654496 
L 287.943436 218.134149 
L 288.05784 220.134919 
L 288.086785 220.033857 
L 288.201189 215.775812 
L 288.833857 166.481711 
L 289.149501 151.9214 
L 289.207392 152.924529 
L 289.321796 153.899276 
L 289.523037 143.080807 
L 289.809736 117.441393 
L 289.953085 104.012293 
L 290.384512 65.656106 
L 290.498916 66.005929 
L 290.527861 65.174158 
L 290.556807 66.046312 
L 290.585752 65.861677 
L 290.758047 68.305544 
L 290.786993 67.282287 
L 290.843506 69.137358 
L 291.15915 82.788368 
L 291.217041 83.213253 
L 291.447227 73.201193 
L 291.476173 73.949859 
L 291.561631 75.278004 
L 291.819385 79.278138 
L 291.84833 78.652661 
L 291.906221 79.351073 
L 292.136407 100.50466 
L 292.796642 166.774514 
L 292.997882 174.933717 
L 293.083341 172.723164 
L 293.197745 171.284299 
L 293.22669 172.03522 
L 293.342472 176.158586 
L 293.542335 186.612382 
L 293.830412 200.756446 
L 294.175002 220.38802 
L 294.232893 219.991092 
L 294.777345 189.100802 
L 295.179826 161.662274 
L 295.208772 162.275113 
L 295.237718 161.459639 
L 295.265285 161.558701 
L 295.611253 147.216684 
L 295.63882 147.372127 
L 295.667766 148.707676 
L 295.725657 147.576379 
L 295.926898 133.784095 
L 296.299055 93.882364 
L 296.817318 60.851945 
L 297.104017 74.673079 
L 297.16053 73.960838 
L 297.276312 73.299319 
L 297.563011 84.324848 
L 297.620902 82.363865 
L 297.907601 73.444848 
L 298.108842 79.642727 
L 298.540268 112.445831 
L 299.028208 161.327684 
L 299.171557 168.366738 
L 299.372798 177.379413 
L 299.401743 178.492541 
L 299.458256 177.074228 
L 299.574038 174.112243 
L 299.601606 174.912526 
L 299.630551 174.583894 
L 299.831792 185.491681 
L 300.089545 201.224522 
L 300.520972 221.855694 
L 300.578863 221.34081 
L 300.722212 213.637131 
L 301.008911 191.177782 
L 301.123315 184.55021 
L 301.525796 155.903195 
L 301.554742 156.73888 
L 301.612633 156.116808 
L 301.755982 154.411777 
L 302.387271 116.194821 
L 302.818698 73.399657 
L 303.105397 61.048239 
L 303.190855 61.676822 
L 303.277692 65.694233 
L 303.593336 80.030081 
L 303.680173 77.859443 
L 303.736686 78.750531 
L 304.05233 80.479136 
L 304.081276 79.985444 
L 304.253571 77.496684 
L 304.340408 75.727782 
L 304.369353 76.926014 
L 304.512703 85.292106 
L 305.43069 169.913091 
L 305.459636 169.895432 
L 305.833172 178.525646 
L 306.177762 184.937776 
L 306.551297 213.82968 
L 306.609188 214.306522 
L 306.636756 213.445943 
L 306.694647 214.814725 
L 306.866942 218.755371 
L 306.924833 218.628735 
L 307.068182 211.522449 
L 307.499609 173.656422 
L 308.015116 149.459278 
L 308.073007 149.663785 
L 308.159843 150.399387 
L 308.303193 144.751498 
L 309.193613 66.556259 
L 309.222559 66.683448 
L 309.308017 65.161095 
L 309.336963 65.660149 
L 309.365908 66.202649 
L 309.393476 65.656787 
L 309.422421 65.707808 
L 309.451367 65.188328 
L 309.480312 66.212096 
L 309.509258 65.847422 
L 309.538204 65.808614 
L 309.652607 69.063487 
L 309.997197 83.784731 
L 310.084034 83.311506 
L 310.312842 76.209773 
L 310.428624 79.131503 
L 310.599541 82.678285 
L 310.628486 81.964596 
L 310.715323 82.410162 
L 310.771836 82.908152 
L 310.945509 99.03588 
L 311.633311 169.285784 
L 311.834551 176.340583 
L 311.892443 175.996334 
L 312.064738 173.546382 
L 312.494786 190.261885 
L 312.523731 190.214227 
L 312.696026 202.278842 
L 312.955158 219.511271 
L 313.500989 197.42166 
L 314.246682 150.21454 
L 314.505813 143.985555 
L 314.534759 144.404015 
L 314.562326 143.864026 
L 314.591272 144.058362 
L 314.763567 130.790962 
L 315.568529 61.425083 
L 315.596096 61.027941 
L 315.625042 61.720949 
L 315.740824 64.760209 
L 316.027523 74.723631 
L 316.056468 74.081729 
L 316.114359 74.800864 
L 316.141927 74.840991 
L 316.430004 85.166959 
L 316.457571 84.968836 
L 316.486517 84.960963 
L 316.716703 75.838205 
L 316.802161 77.956164 
L 317.204642 98.11143 
L 317.405883 119.927302 
L 317.864877 164.076354 
L 318.180521 179.934172 
L 318.296304 178.585943 
L 318.325249 178.55905 
L 318.439653 174.949206 
L 318.468599 175.689149 
L 318.640894 185.468149 
L 319.359019 219.683523 
L 319.386586 220.009049 
L 319.415532 219.32336 
L 319.473423 216.89979 
L 319.990308 179.032573 
L 320.334898 153.15278 
L 320.478248 153.669877 
L 320.621597 149.864164 
L 321.138482 122.279894 
L 321.626421 73.336254 
L 321.914499 62.549103 
L 321.97239 60.221617 
L 322.028903 60.913561 
L 322.373493 79.814553 
L 322.431384 78.843466 
L 322.487897 79.254011 
L 322.516842 79.758597 
L 322.545788 79.186055 
L 322.574733 79.264351 
L 322.603679 79.17814 
L 322.833865 83.404781 
L 322.861432 83.05449 
L 323.062673 79.374477 
L 323.091618 79.593962 
L 323.178455 80.151483 
L 323.149509 79.567579 
L 323.206022 79.875446 
L 323.349372 89.211306 
L 323.866257 139.982825 
L 324.125388 168.391206 
L 324.268738 171.198641 
L 324.297683 171.144131 
L 324.326629 171.210811 
L 324.556815 179.899832 
L 324.584382 179.852599 
L 324.671219 180.850069 
L 324.727732 180.737603 
L 324.957918 184.124899 
L 325.474803 213.678704 
L 325.56164 212.842253 
L 325.704989 215.860024 
L 325.733935 216.449033 
L 325.790447 216.371418 
L 325.935175 206.565482 
L 326.279765 175.219371 
L 326.79665 147.42502 
L 326.911054 147.875351 
L 327.226699 133.363848 
L 328.059228 65.278795 
L 328.117119 66.58945 
L 328.146065 66.576514 
L 328.173632 65.375218 
L 328.260469 65.47845 
L 328.289414 65.571597 
L 328.31836 64.865781 
L 328.374872 65.342793 
L 328.5196 70.46997 
L 328.748408 82.969087 
L 328.777354 82.800112 
L 328.86419 84.371741 
L 328.920703 83.800858 
L 329.121944 79.45639 
L 329.236348 80.401308 
L 329.69672 91.945295 
L 330.614708 177.55507 
L 330.643653 177.991146 
L 330.672599 177.071037 
L 330.701544 177.330563 
L 330.815948 176.240883 
L 330.844894 176.351348 
L 330.959298 177.779959 
L 331.534074 201.609153 
L 331.791827 217.011788 
L 331.820773 217.788114 
L 331.878664 216.480011 
L 332.050959 210.958077 
L 332.079904 211.041096 
L 332.281145 201.300989 
L 332.79803 157.725159 
L 333.285969 141.228588 
L 333.314915 141.734237 
L 333.371428 141.435647 
L 333.400373 141.25114 
L 333.601614 127.377497 
L 334.089553 81.056742 
L 334.405198 61.295468 
L 334.463089 61.865712 
L 335.237727 87.173644 
L 335.266673 86.614037 
L 335.410022 83.089681 
L 335.525805 78.115097 
L 335.55475 78.877593 
L 335.640209 80.491349 
L 336.24393 122.964008 
L 336.559575 158.360381 
L 336.875219 175.606001 
L 337.047514 181.997962 
L 337.07646 181.925112 
L 337.161918 179.366056 
L 337.306646 177.438519 
L 337.334213 177.551368 
L 337.477563 186.229241 
L 337.736694 198.752485 
L 337.823531 200.936017 
L 338.11023 217.665307 
L 338.139175 217.466503 
L 338.168121 218.112831 
L 338.224634 217.462418 
L 338.396929 208.023028 
L 339.229458 150.133307 
L 339.316295 150.569341 
L 339.34524 150.643595 
L 339.918638 125.073073 
L 340.694655 63.551552 
L 340.809059 61.246788 
L 340.838004 61.459891 
L 340.923463 63.97882 
L 341.240486 80.966446 
L 341.269431 80.543731 
L 341.354889 79.393881 
L 341.383835 80.030464 
L 341.412781 80.166589 
L 341.641588 86.480678 
L 341.929666 81.564902 
L 342.015124 82.604286 
L 342.475496 119.547522 
L 343.07784 173.26009 
L 343.106785 173.243111 
L 343.480321 183.217002 
L 343.565779 181.720733 
L 343.594725 181.869964 
L 343.62367 181.560055 
L 343.652616 181.405505 
L 343.709128 181.642734 
L 344.370741 212.876422 
L 344.398309 213.041525 
L 344.427254 212.531067 
L 344.4562 213.397263 
L 344.485145 213.523559 
L 344.541658 214.94468 
L 344.599549 214.41669 
L 344.771844 204.220932 
L 345.174325 170.579887 
L 345.547861 145.433442 
L 345.576806 145.787648 
L 345.747723 144.77005 
L 345.776669 145.316891 
L 345.805614 144.605245 
L 346.0358 133.027301 
L 346.839384 65.67934 
L 346.86833 66.096651 
L 346.897275 65.795593 
L 346.926221 65.192456 
L 346.982734 65.746913 
L 347.011679 66.711703 
L 347.06957 65.943718 
L 347.183974 64.562894 
L 347.385215 72.60163 
L 347.642968 84.877476 
L 347.671914 85.34819 
L 347.700859 84.83803 
L 347.729805 84.851178 
L 347.9021 82.611265 
L 347.987558 83.021214 
L 348.016504 82.559606 
L 348.045449 83.257124 
L 348.24669 87.442064 
L 348.476876 91.418156 
L 348.649171 109.044621 
L 349.050274 150.567256 
L 349.481701 178.776067 
L 349.510646 179.385587 
L 349.567159 178.568752 
L 349.596104 177.53273 
L 349.653996 178.256673 
L 349.739454 179.301972 
L 350.141935 190.535795 
L 350.199826 191.014381 
L 350.372121 201.667067 
L 350.600929 216.768006 
L 350.629874 216.152146 
L 351.14676 196.027688 
L 351.69259 153.361117 
L 352.151584 138.384175 
L 352.18053 138.572001 
L 352.352825 132.228083 
L 352.496174 118.453756 
L 352.840764 88.73072 
L 353.2143 61.356276 
L 353.272191 62.275194 
L 353.444486 66.835317 
L 353.76013 76.377301 
L 353.789076 76.464619 
L 354.075775 88.094094 
L 354.133666 88.675912 
L 354.162611 88.053371 
L 354.391419 80.767556 
L 354.563714 88.294813 
L 355.051654 122.605675 
L 355.425189 162.261709 
L 355.856616 182.947517 
L 355.885561 182.788414 
L 355.913129 183.001559 
L 356.086802 178.445818 
L 356.143315 179.046955 
L 356.975844 216.905663 
L 357.091627 214.82949 
L 357.608512 178.724366 
L 357.982047 147.657271 
L 358.009614 147.824501 
L 358.03856 147.797651 
L 358.067506 148.141389 
L 358.096451 147.538805 
L 358.297692 143.511905 
L 358.642282 129.664899 
L 358.669849 129.348352 
L 359.589215 62.014773 
L 359.676052 61.184534 
L 360.1061 81.765451 
L 360.135046 81.125889 
L 360.278395 81.618433 
L 360.508581 89.210242 
L 360.737389 83.946941 
L 360.824226 85.310829 
L 360.882117 86.738801 
L 361.110925 103.727065 
L 361.944832 175.503578 
L 361.9724 175.097969 
L 362.001345 176.081609 
L 362.260477 184.567699 
L 362.403826 184.155196 
L 362.489285 181.943452 
L 362.547176 182.218255 
L 362.576121 182.505015 
L 363.150898 210.09337 
L 363.323193 213.142672 
L 363.379705 212.674171 
L 363.523055 208.444424 
L 364.38453 142.176229 
L 364.442421 142.282099 
L 364.471366 142.088103 
L 364.556825 143.445481 
L 364.58577 142.367161 
L 364.815957 133.003685 
L 365.706377 64.510597 
L 365.791835 66.059758 
L 365.849727 65.429558 
L 365.907618 65.616107 
L 365.935185 66.002866 
L 365.993076 65.444196 
L 366.050967 64.688125 
L 366.078534 65.510407 
L 366.194317 71.439142 
L 366.45207 85.755458 
L 366.481016 85.54342 
L 366.538907 86.095154 
L 366.595419 86.067665 
L 366.682256 84.441782 
L 366.711202 85.131769 
L 366.825606 86.245491 
L 367.026846 89.015948 
L 367.284599 93.016721 
L 367.601622 126.763296 
L 367.975158 161.806356 
L 368.261857 181.162318 
L 368.290802 181.289975 
L 368.376261 179.448777 
L 368.405206 179.625795 
L 368.463097 179.440267 
L 368.720851 184.673441 
L 368.951037 188.919358 
L 368.979982 189.131099 
L 369.467922 214.524688 
L 369.55338 212.20418 
L 369.783566 205.625245 
L 369.841457 204.246208 
L 369.955861 197.291152 
L 370.616096 146.494144 
L 370.875227 137.031265 
L 370.902795 137.197305 
L 370.93174 137.121945 
L 371.190872 130.282674 
L 372.052347 60.821563 
L 372.081293 61.02858 
L 372.511341 73.767437 
L 372.683636 81.189675 
L 372.942768 89.671808 
L 372.99928 89.376962 
L 373.171575 84.27987 
L 373.258412 85.464911 
L 373.316303 86.589144 
L 373.947592 133.57078 
L 374.321128 168.139126 
L 374.406586 172.753632 
L 374.636772 183.540995 
L 374.72223 184.179919 
L 374.780122 184.104942 
L 374.952417 180.745688 
L 375.010308 180.789687 
L 375.842837 215.068167 
L 375.900728 213.714959 
L 376.560963 164.731788 
L 376.847662 145.088257 
L 377.221197 135.364617 
L 377.450005 127.960975 
L 377.651246 115.566451 
L 378.140563 72.185809 
L 378.427262 61.493166 
L 378.483775 62.109878 
L 378.628503 68.322778 
L 378.944147 82.137019 
L 379.34525 91.199097 
L 379.432087 90.885614 
L 379.604382 86.533188 
L 379.633327 86.706546 
L 379.68984 89.123648 
L 379.948972 107.493927 
L 380.150213 123.815524 
L 380.810447 178.015699 
L 380.839393 177.96553 
L 381.126091 186.690423 
L 381.212928 185.01969 
L 381.356278 182.48608 
L 381.385223 183.013942 
L 381.441736 184.273917 
L 382.045458 209.879417 
L 382.188807 212.033034 
L 382.217753 211.651553 
L 382.274265 209.400192 
L 382.418993 201.453028 
L 383.13574 142.07338 
L 383.251523 139.01978 
L 383.308035 139.671852 
L 383.365927 139.897337 
L 383.394872 139.72083 
L 383.423818 140.565452 
L 383.452763 139.926188 
L 383.625058 131.829665 
L 384.571992 64.630595 
L 384.687774 66.068183 
L 384.744287 65.875464 
L 384.831123 65.098543 
L 385.059931 74.448275 
L 385.319063 88.071669 
L 385.348008 87.703335 
L 385.433467 86.167195 
L 385.491358 86.708078 
L 385.549249 86.559826 
L 385.576816 87.280705 
L 385.950352 92.662302 
L 385.979297 92.803534 
L 386.008243 92.363032 
L 386.037188 93.268248 
L 386.209483 102.949293 
L 387.013067 181.459419 
L 387.156417 182.619481 
L 387.243254 180.31442 
L 387.328712 181.009981 
L 387.558898 186.381621 
L 387.587844 186.476768 
L 387.816651 189.788873 
L 387.874542 191.197229 
L 387.988946 197.862971 
L 388.277024 212.266902 
L 388.305969 211.611553 
L 388.333536 211.590022 
L 388.534777 205.693201 
L 388.764963 196.845842 
L 388.966204 174.146285 
L 389.281848 152.486751 
L 389.396252 146.677758 
L 389.684329 135.604144 
L 389.942083 130.795132 
L 390.085432 122.34351 
L 390.861449 60.7345 
L 390.917962 61.911286 
L 391.378334 75.650379 
L 391.808382 91.212799 
L 391.866273 90.473324 
L 392.038568 87.391044 
L 392.210863 93.023317 
L 392.354213 99.882672 
L 392.640912 116.79898 
L 393.244633 175.65366 
L 393.531332 185.305982 
L 393.560278 185.292408 
L 393.761518 182.150129 
L 393.790464 182.334168 
L 393.962759 186.725742 
L 394.249458 197.165878 
L 394.421753 202.848916 
L 394.622993 213.805255 
L 394.679506 213.557388 
L 394.880747 202.730706 
L 395.714655 143.160337 
L 396.057866 132.591565 
L 396.288052 125.089371 
L 396.316998 125.119285 
L 396.518239 110.953392 
L 396.862829 78.459941 
L 397.207419 61.418317 
L 397.321822 62.185068 
L 397.552009 74.335469 
L 397.780816 83.405079 
L 397.809762 83.449887 
L 398.212243 94.33261 
L 398.270134 92.634218 
L 398.442429 89.406877 
L 398.471375 89.713679 
L 398.585779 95.216806 
L 399.590603 179.241079 
L 399.762898 182.501058 
L 399.935193 186.955099 
L 399.993084 186.919865 
L 400.020652 186.907951 
L 400.049597 187.033693 
L 400.221892 183.358573 
L 400.423133 193.369952 
L 400.653319 203.812344 
L 400.682264 203.864854 
L 400.968963 210.453831 
L 401.026854 210.187879 
L 401.170204 204.962279 
L 402.060624 136.597997 
L 402.088192 136.738207 
L 402.117137 136.264642 
L 402.175028 137.053095 
L 402.203974 137.454576 
L 402.261865 136.753994 
L 402.289432 136.706846 
L 402.43416 130.092763 
L 402.749805 113.094924 
L 403.036503 86.68544 
L 403.323202 66.577025 
L 403.438985 65.077692 
L 403.466552 65.267391 
L 403.495497 64.934674 
L 403.524443 65.333006 
L 403.553388 65.127649 
L 403.61128 66.188011 
L 403.667792 65.658447 
L 403.696738 65.284922 
L 403.725683 66.17682 
L 403.869033 73.076387 
L 404.184677 89.112584 
L 404.213623 89.064202 
L 404.242569 89.268283 
L 404.328027 87.695931 
L 404.356972 88.105966 
L 404.587159 94.357333 
L 404.616104 94.276824 
L 404.701562 94.922343 
L 404.730508 94.426566 
L 404.759454 94.123082 
L 404.788399 94.276101 
L 404.931749 97.958284 
L 405.276339 131.350398 
L 405.764278 177.438178 
L 405.936573 184.775312 
L 405.965519 184.206259 
L 406.108868 182.270807 
L 406.195705 182.675736 
L 406.424513 187.913803 
L 406.453458 187.549725 
L 406.511349 187.734701 
L 406.540295 188.050907 
L 406.567862 187.515939 
L 406.596808 187.705935 
L 406.625753 187.759679 
L 406.741535 192.851579 
L 407.142638 209.959671 
L 407.229475 208.07141 
L 407.516174 199.891867 
L 407.717414 183.260533 
L 408.062004 152.563983 
L 408.263245 142.283588 
L 408.520998 131.926344 
L 408.578889 132.922537 
L 408.635402 132.114085 
L 408.894534 121.47425 
L 409.669172 62.188089 
L 409.727063 60.757266 
L 409.756009 61.734183 
L 410.243948 77.565959 
L 410.530647 92.072739 
L 410.559593 92.08708 
L 410.617484 93.010891 
L 410.675375 92.314437 
L 410.818724 90.723787 
L 410.84767 91.179778 
L 411.048911 96.263168 
L 411.565796 131.180401 
L 411.937953 167.008169 
L 412.311488 187.554321 
L 412.340434 187.036204 
L 412.598187 183.347425 
L 412.685024 184.353575 
L 413.345259 206.915858 
L 413.488608 211.364877 
L 413.517554 211.239646 
L 413.575445 209.66023 
L 413.805631 194.599588 
L 414.09233 173.820887 
L 414.493432 141.982275 
L 415.32734 111.261428 
L 415.700876 78.673086 
L 416.073033 61.027559 
L 416.101979 61.47155 
L 416.15987 62.853268 
L 416.446569 77.806337 
L 416.676755 85.66095 
L 416.934508 94.017382 
L 417.077858 96.074534 
L 417.135749 95.360079 
L 417.250153 92.529326 
L 417.308044 92.915829 
L 417.451393 100.531851 
L 418.572 184.242045 
L 418.800808 188.4169 
L 419.059939 184.098942 
L 419.088885 184.28847 
L 419.634716 204.162337 
L 419.663661 204.228804 
L 419.835956 209.077135 
L 419.892469 208.448253 
L 420.122655 192.342525 
L 420.78289 138.615064 
L 420.926239 133.638736 
L 421.040643 134.099067 
L 421.069588 134.500123 
L 421.098534 134.229788 
L 421.212938 130.775558 
L 422.304599 65.070969 
L 422.333545 65.226583 
L 422.36249 65.130925 
L 422.420381 64.971184 
L 422.620244 68.869107 
L 422.993779 90.879444 
L 423.05167 90.309284 
L 423.080616 89.887676 
L 423.109561 90.501408 
L 423.137129 90.303795 
L 423.252911 91.60194 
L 423.510664 97.829435 
L 423.53961 97.272 
L 423.568555 97.754884 
L 423.626446 97.471315 
L 423.654014 97.132087 
L 423.682959 97.452847 
L 423.855254 107.501459 
L 424.745675 185.715804 
L 424.77462 185.714017 
L 424.803566 185.924098 
L 424.832512 185.613338 
L 424.975861 183.372786 
L 425.204669 188.891061 
L 425.26256 188.905699 
L 425.349397 187.962228 
L 425.434855 187.411303 
L 425.578204 191.294716 
L 425.837336 205.477333 
L 425.922794 207.020707 
L 425.980685 207.01092 
L 426.095089 205.726264 
L 426.29633 199.98127 
L 426.49757 186.639062 
L 426.98551 146.273 
L 427.387991 129.110782 
L 427.502395 129.961063 
L 427.67469 122.498868 
L 428.334924 72.600056 
L 428.50722 62.102261 
L 428.565111 62.170345 
L 428.679515 65.135691 
L 429.39764 95.036086 
L 429.512044 93.923682 
L 429.569935 93.322162 
L 429.655393 93.733473 
L 429.684339 93.772834 
L 430.028929 104.83849 
L 430.259115 117.764025 
L 430.518247 148.320832 
L 430.833891 172.531763 
L 431.091645 188.612641 
L 431.178481 188.550046 
L 431.407289 184.236811 
L 431.46518 184.583443 
L 431.751879 191.417522 
L 431.80977 192.633456 
L 432.326655 209.279386 
L 432.384546 207.816479 
L 432.527896 199.98744 
L 433.360425 139.4239 
L 433.53272 134.162002 
L 434.164009 109.743245 
L 434.624382 74.322703 
L 434.882135 61.176151 
L 434.940026 61.364063 
L 435.141267 71.762498 
L 435.456911 84.627864 
L 435.886959 98.162961 
L 436.059254 96.296189 
L 436.117146 95.565948 
L 436.146091 96.229296 
L 436.260495 101.679871 
L 436.806326 147.38417 
L 437.12197 177.022825 
L 437.580964 188.77068 
L 437.667801 188.159075 
L 437.725692 187.763381 
L 437.840096 185.090667 
L 437.897987 185.735846 
L 437.9545 185.985628 
L 438.614734 205.925111 
L 438.701571 207.006494 
L 438.730516 206.359528 
L 438.815975 202.307352 
L 439.849745 131.102445 
L 439.907636 131.055935 
L 439.936581 131.244144 
L 440.108876 124.296323 
L 440.654707 90.53911 
L 440.941406 68.906383 
L 441.228105 64.84659 
L 441.516182 74.147855 
L 441.889718 92.585623 
L 441.94623 92.106058 
L 441.975176 92.2218 
L 442.004121 92.139972 
L 442.348712 100.843377 
L 442.377657 100.688358 
L 442.463115 100.020542 
L 442.492061 100.525553 
L 442.549952 101.350218 
L 442.664356 108.447696 
L 443.32459 171.855734 
L 443.612668 186.960631 
L 443.841475 185.016796 
L 444.129553 189.535346 
L 444.300469 187.096032 
L 444.329415 187.784742 
L 444.472764 194.420868 
L 444.731896 205.134063 
L 445.018595 202.107952 
L 445.219836 193.292379 
L 445.506534 164.527154 
L 445.736721 147.322894 
L 445.88007 140.256224 
L 446.168147 126.480918 
L 446.195715 126.512492 
L 446.282551 127.459452 
L 446.311497 127.144778 
L 446.425901 125.408599 
L 447.144026 74.064538 
L 447.374212 62.5874 
L 447.459671 63.982097 
L 448.092338 92.280778 
L 448.263255 97.192682 
L 448.43555 95.19021 
L 448.838031 106.114678 
L 449.097163 121.044259 
L 449.958638 190.658133 
L 450.01515 190.175206 
L 450.245336 184.529614 
L 450.274282 185.102284 
L 450.963462 201.607664 
L 451.135757 206.363018 
L 451.164703 206.260637 
L 451.19227 206.244254 
L 451.250161 204.803176 
L 451.767046 168.991279 
L 452.198473 137.219347 
L 453.002057 106.24625 
L 453.720182 62.000518 
L 453.778073 61.754906 
L 453.834586 63.741208 
L 454.523766 96.588141 
L 454.725007 99.849779 
L 454.753952 100.133518 
L 454.811843 99.631485 
L 454.897302 98.681249 
L 454.926247 99.246812 
L 455.069597 103.42405 
L 455.557536 138.984887 
L 455.988963 179.378864 
L 456.390066 190.223843 
L 456.419011 189.945125 
L 456.505848 188.63596 
L 456.70571 185.526871 
L 456.734656 185.449256 
L 457.280486 200.425134 
L 457.309432 200.38807 
L 457.338377 200.485771 
L 457.510672 204.803091 
L 457.539618 204.399737 
L 457.596131 203.236313 
L 457.711913 195.446422 
L 458.515497 131.757198 
L 459.032382 116.734258 
L 459.405918 98.190365 
L 459.80702 68.829023 
L 460.037207 65.393729 
L 460.066152 64.995396 
L 460.124043 65.401048 
L 460.209502 67.505475 
L 460.497579 85.654992 
L 460.726387 93.800025 
L 461.070977 101.49447 
L 461.214326 103.752426 
L 461.330108 103.06912 
L 461.444512 107.305293 
L 461.703644 130.904704 
L 462.391446 187.131521 
L 462.478282 187.817933 
L 462.507228 187.504663 
L 462.536173 187.704148 
L 462.563741 187.185137 
L 462.621632 186.871228 
L 462.650577 187.215009 
L 462.880763 189.89636 
L 463.080626 187.559172 
L 463.109571 187.241519 
L 463.167462 187.572065 
L 463.254299 190.801279 
L 463.512052 203.179122 
L 463.540998 202.885596 
L 463.655402 202.373861 
L 463.827697 199.885059 
L 463.856642 199.856762 
L 463.943479 197.861822 
L 464.114396 186.584255 
L 464.574768 145.576928 
L 464.977249 124.527425 
L 465.062707 123.979648 
L 465.091653 124.397087 
L 465.120599 124.43615 
L 465.149544 124.99499 
L 465.206057 124.455851 
L 465.436243 110.836245 
L 466.183314 64.024181 
L 466.210881 63.984437 
L 466.239827 64.099243 
L 466.498959 71.12851 
L 467.072356 98.840735 
L 467.130248 98.608824 
L 467.273597 97.491995 
L 467.302543 97.74582 
L 467.819428 115.057354 
L 468.077181 139.96074 
L 468.479662 174.793634 
L 468.824252 191.370715 
L 468.853198 190.94 
L 468.882143 190.835534 
L 469.112329 185.643039 
L 469.139897 186.271963 
L 469.542378 191.814834 
L 469.571323 191.510967 
L 469.600269 192.163252 
L 469.944859 204.257101 
L 470.030317 203.023508 
L 470.173667 197.253536 
L 470.719497 153.773534 
L 470.978629 136.290897 
L 471.495514 119.600202 
L 471.523081 119.621818 
L 471.580972 119.120764 
L 471.840104 104.904914 
L 472.212261 77.304219 
L 472.585797 62.305023 
L 472.758092 70.187592 
L 473.102682 85.791671 
L 473.303922 96.054194 
L 473.476217 102.057183 
L 473.505163 101.952376 
L 473.534109 102.17484 
L 473.563054 101.776975 
L 473.648512 101.46345 
L 473.677458 101.686126 
L 473.706404 101.7257 
L 473.762916 101.701998 
L 473.820807 103.325541 
L 474.366638 138.288858 
L 474.941414 184.340129 
L 475.170222 191.828833 
L 475.228113 191.238292 
L 475.286004 190.561156 
L 475.485866 185.711336 
L 475.543758 186.356983 
L 475.744998 191.586115 
L 476.031697 198.284026 
L 476.060643 197.936842 
L 476.118534 198.464406 
L 476.34872 202.771258 
L 476.405233 201.688428 
L 476.548582 192.935663 
L 477.237762 134.262085 
L 477.439003 128.088717 
L 477.611298 125.312899 
L 478.215019 99.217834 
L 478.702959 68.742131 
L 478.931767 65.368197 
L 478.989658 66.058907 
L 479.10544 71.682627 
L 479.564434 95.341314 
L 479.851133 102.631299 
L 480.023428 105.939532 
L 480.195723 106.633859 
L 480.339072 114.832933 
L 481.229493 187.397601 
L 481.31633 188.690682 
L 481.401788 188.637577 
L 481.459679 188.669363 
L 481.488625 188.457708 
L 481.603028 189.735555 
L 481.66092 189.667939 
L 481.688487 189.332414 
L 481.746378 189.650918 
L 481.775324 189.89768 
L 481.804269 189.563303 
L 481.947619 187.269561 
L 481.976564 187.272199 
L 482.062022 188.970549 
L 482.377667 201.814979 
L 482.493449 199.67085 
L 482.838039 193.325825 
L 483.153684 162.356686 
L 483.583732 132.582076 
L 483.871809 121.741564 
L 483.928322 122.042367 
L 483.957268 122.171726 
L 483.986213 121.793648 
L 484.015159 121.812116 
L 484.100617 120.349208 
L 484.76223 77.06265 
L 484.991038 64.9808 
L 485.019983 64.946716 
L 485.10682 65.605129 
L 485.623705 85.040196 
L 485.910404 100.870525 
L 485.968295 101.320984 
L 485.99724 100.879844 
L 486.082699 99.931565 
L 486.111644 100.708869 
L 486.168157 101.297963 
L 486.628529 115.59211 
L 486.742933 124.264068 
L 487.490004 187.628447 
L 487.662299 192.379418 
L 487.691245 192.04568 
L 487.920053 186.121115 
L 488.264643 190.906511 
L 488.293588 190.501455 
L 488.351479 189.764278 
L 488.380425 189.972444 
L 488.753961 202.130334 
L 488.839419 201.203842 
L 488.89731 199.866549 
L 489.2419 181.342996 
L 490.07443 124.238154 
L 490.361128 117.555305 
L 490.533424 112.722804 
L 490.76361 95.692115 
L 491.1082 74.392191 
L 491.45279 63.467085 
L 491.65403 74.658484 
L 491.911784 85.951795 
L 492.34321 104.70662 
L 492.457614 103.988719 
L 492.515505 103.460006 
L 492.543073 103.67196 
L 492.716746 109.193299 
L 493.261198 147.655952 
L 493.72157 183.681035 
L 493.778083 185.117262 
L 494.037215 193.371442 
L 494.352859 185.794058 
L 494.41075 186.471874 
L 494.75534 194.735883 
L 495.128876 200.148884 
L 495.214334 199.417409 
L 495.299793 196.648356 
L 495.789111 157.318146 
L 496.248104 125.895951 
L 496.420399 122.860946 
L 496.62164 116.146567 
L 496.995176 101.568894 
L 497.483115 69.121783 
L 497.539628 68.932766 
L 497.568573 69.094763 
L 497.79876 66.344136 
L 497.885596 68.891065 
L 498.516885 100.40496 
L 498.861475 108.645692 
L 498.890421 108.622459 
L 498.919366 108.359825 
L 498.946933 108.773562 
L 499.062716 110.742417 
L 499.235011 122.850776 
L 499.924191 184.783439 
L 500.06754 189.086759 
L 500.125431 188.865615 
L 500.152999 188.698384 
L 500.181944 189.017101 
L 500.297726 189.852191 
L 500.41213 190.543327 
L 500.441076 190.538773 
L 500.55548 189.908062 
L 500.785666 187.036629 
L 500.814611 186.952801 
L 500.957961 190.899277 
L 501.186769 199.360559 
L 501.215714 199.040778 
L 501.24466 199.105117 
L 501.331496 197.8768 
L 501.560304 194.989112 
L 501.647141 192.279931 
L 501.904894 168.433503 
L 502.307375 136.657273 
L 502.708478 119.83424 
L 502.737424 119.877643 
L 502.880773 118.861791 
L 503.054447 111.327895 
L 503.426604 90.94191 
L 503.829085 65.686999 
L 503.914543 66.560344 
L 504.144729 71.292592 
L 504.374916 81.536349 
L 504.777397 102.721765 
L 504.804964 102.663128 
L 504.862855 103.332009 
L 504.920746 102.81687 
L 504.948313 102.711851 
L 505.465198 118.360524 
L 505.695384 139.636917 
L 506.270161 186.342132 
L 506.471401 192.6452 
L 506.55686 192.2424 
L 506.815991 187.337176 
L 506.843558 187.506705 
L 507.017232 190.411712 
L 507.073745 190.322139 
L 507.24604 189.14463 
L 507.332876 191.780239 
L 507.59063 200.36722 
L 507.619575 200.095906 
L 507.677466 198.771464 
L 508.051002 180.983258 
L 508.82564 125.867909 
L 509.141285 114.82455 
L 509.17023 115.331349 
L 509.228121 115.784744 
L 509.257067 115.113991 
L 509.371471 111.292917 
L 510.175055 64.985524 
L 510.232946 64.497661 
L 510.261891 65.01331 
L 510.434186 72.231893 
L 510.778776 88.831994 
L 511.007584 102.150798 
L 511.123367 106.943343 
L 511.208825 106.929981 
L 511.295662 106.066977 
L 511.38112 106.503096 
L 511.439011 107.313463 
L 511.955896 136.240898 
L 512.61613 186.767571 
L 512.817371 193.631649 
L 512.902829 193.504162 
L 512.989666 191.002424 
L 513.190907 185.837418 
L 513.219852 186.304431 
L 513.305311 188.019035 
L 513.620955 193.287316 
L 513.649901 193.257274 
L 513.994491 198.18356 
L 514.023436 197.975096 
L 514.224677 187.711041 
L 515.028261 124.329258 
L 515.057206 124.327386 
L 515.142665 123.246811 
L 515.343905 117.697303 
L 516.00414 86.36651 
L 516.34873 69.673177 
L 516.607861 66.795616 
L 516.636807 67.353095 
L 516.751211 71.680372 
L 517.23915 98.202875 
L 517.612686 110.250937 
L 517.641631 110.01141 
L 517.699523 110.563442 
L 517.986221 118.887705 
L 518.646456 176.938826 
L 518.876642 189.151141 
L 518.905588 189.14995 
L 519.048937 189.884701 
L 519.076504 189.895722 
L 519.248799 191.918236 
L 519.30669 191.473011 
L 519.594768 186.840718 
L 519.622335 186.848207 
L 519.738117 188.381496 
L 520.053762 197.589061 
L 520.456243 190.95417 
L 520.570647 183.79916 
L 521.345285 122.242959 
L 521.51758 118.157932 
L 521.633362 117.473945 
L 521.718821 116.471539 
L 521.834603 112.212686 
L 522.379055 81.884811 
L 522.638187 66.015674 
L 522.667132 66.240478 
L 522.839427 69.333864 
L 523.126126 77.869783 
L 523.643011 105.138314 
L 523.671957 104.923637 
L 523.72847 105.289502 
L 524.332191 122.146833 
L 525.30807 193.09383 
L 525.337016 193.027278 
L 525.596147 188.183798 
L 525.625093 188.300647 
L 525.853901 189.808235 
L 525.911792 189.631515 
L 526.026196 188.334817 
L 526.113032 188.918507 
L 526.227436 192.438311 
L 526.399731 198.490235 
L 526.457623 198.235985 
L 526.657485 190.251247 
L 527.03102 166.835024 
L 527.520338 128.259309 
L 527.921441 113.469853 
L 527.950386 113.584489 
L 528.008278 113.231603 
L 528.151627 112.244643 
L 528.352868 99.278131 
L 528.639567 82.302164 
L 529.042048 65.551981 
L 529.070993 65.785253 
L 529.09856 65.864358 
L 529.270855 73.568888 
L 529.816686 102.728148 
L 530.017927 109.856264 
L 530.161276 108.488631 
L 530.219167 108.89607 
L 530.420408 117.596283 
L 531.080642 168.32976 
L 531.396287 186.297452 
L 531.682986 194.702054 
L 531.711931 194.471718 
L 531.913172 188.126267 
L 532.000008 185.732527 
L 532.056521 185.950182 
L 532.34322 191.439692 
L 532.430057 191.092805 
L 532.516893 191.746069 
L 532.774647 196.438701 
L 532.860105 195.04209 
L 532.975887 190.492604 
L 533.291532 165.473901 
L 534.038603 120.387803 
L 534.669892 98.754013 
L 535.157831 70.460736 
L 535.359072 68.239758 
L 535.388018 68.319203 
L 535.531367 69.888705 
L 535.790499 88.693784 
L 536.019306 98.533379 
L 536.191601 105.084953 
L 536.421788 112.320599 
L 536.708486 116.116397 
L 536.909727 128.556112 
L 537.713311 190.746514 
L 537.800148 190.260013 
L 537.829093 190.000912 
L 537.885606 190.468434 
L 538.057901 192.799708 
L 538.086847 192.708774 
L 538.144738 192.062659 
L 538.202629 190.951446 
L 538.431437 185.829206 
L 538.460382 185.720442 
L 538.747081 193.108 
L 538.890431 194.750989 
L 539.006213 193.780668 
L 539.379748 183.699077 
L 540.297736 116.421711 
L 540.355627 116.509922 
L 540.384573 116.548091 
L 540.413518 116.489199 
L 540.613381 112.315152 
L 540.613381 112.315152 
" clip-path="url(#pb8e86315a5)" style="fill: none; stroke: #1f77b4; stroke-width: 1.5; stroke-linecap: square"/>
   </g>
   <g id="patch_3">
    <path d="M 46.64 246.04 
L 46.64 26.88 
" style="fill: none; stroke: #000000; stroke-width: 0.8; stroke-linejoin: miter; stroke-linecap: square"/>
   </g>
   <g id="patch_4">
    <path d="M 564.135923 246.04 
L 564.135923 26.88 
" style="fill: none; stroke: #000000; stroke-width: 0.8; stroke-linejoin: miter; stroke-linecap: square"/>
   </g>
   <g id="patch_5">
    <path d="M 46.64 246.04 
L 564.135923 246.04 
" style="fill: none; stroke: #000000; stroke-width: 0.8; stroke-linejoin: miter; stroke-linecap: square"/>
   </g>
   <g id="patch_6">
    <path d="M 46.64 26.88 
L 564.135923 26.88 
" style="fill: none; stroke: #000000; stroke-width: 0.8; stroke-linejoin: miter; stroke-linecap: square"/>
   </g>
   <g id="text_16">
    <!-- ModalBank impulse response (Marimba, 32 modes, 220 Hz) -->
    <g transform="translate(126.407961 20.88) scale(0.12 -0.12)">
     <defs>
      <path id="DejaVuSans-4d" d="M 628 4666 
L 1569 4666 
L 2759 1491 
L 3956 4666 
L 4897 4666 
L 4897 0 
L 4281 0 
L 4281 4097 
L 3078 897 
L 2444 897 
L 1241 4097 
L 1241 0 
L 628 0 
L 628 4666 
z
" transform="scale(0.015625)"/>
      <path id="DejaVuSans-6f" d="M 1959 3097 
Q 1497 3097 1228 2736 
Q 959 2375 959 1747 
Q 959 1119 1226 758 
Q 1494 397 1959 397 
Q 2419 397 2687 759 
Q 2956 1122 2956 1747 
Q 2956 2369 2687 2733 
Q 2419 3097 1959 3097 
z
M 1959 3584 
Q 2709 3584 3137 3096 
Q 3566 2609 3566 1747 
Q 3566 888 3137 398 
Q 2709 -91 1959 -91 
Q 1206 -91 779 398 
Q 353 888 353 1747 
Q 353 2609 779 3096 
Q 1206 3584 1959 3584 
z
" transform="scale(0.015625)"/>
      <path id="DejaVuSans-61" d="M 2194 1759 
Q 1497 1759 1228 1600 
Q 959 1441 959 1056 
Q 959 750 1161 570 
Q 1363 391 1709 391 
Q 2188 391 2477 730 
Q 2766 1069 2766 1631 
L 2766 1759 
L 2194 1759 
z
M 3341 1997 
L 3341 0 
L 2766 0 
L 2766 531 
Q 2569 213 2275 61 
Q 1981 -91 1556 -91 
Q 1019 -91 701 211 
Q 384 513 384 1019 
Q 384 1609 779 1909 
Q 1175 2209 1959 2209 
L 2766 2209 
L 2766 2266 
Q 2766 2663 2505 2880 
Q 2244 3097 1772 3097 
Q 1472 3097 1187 3025 
Q 903 2953 641 2809 
L 641 3341 
Q 956 3463 1253 3523 
Q 1550 3584 1831 3584 
Q 2591 3584 2966 3190 
Q 3341 2797 3341 1997 
z
" transform="scale(0.015625)"/>
      <path id="DejaVuSans-42" d="M 1259 2228 
L 1259 519 
L 2272 519 
Q 2781 519 3026 730 
Q 3272 941 3272 1375 
Q 3272 1813 3026 2020 
Q 2781 2228 2272 2228 
L 1259 2228 
z
M 1259 4147 
L 1259 2741 
L 2194 2741 
Q 2656 2741 2882 2914 
Q 3109 3088 3109 3444 
Q 3109 3797 2882 3972 
Q 2656 4147 2194 4147 
L 1259 4147 
z
M 628 4666 
L 2241 4666 
Q 2963 4666 3353 4366 
Q 3744 4066 3744 3513 
Q 3744 3084 3544 2831 
Q 3344 2578 2956 2516 
Q 3422 2416 3680 2098 
Q 3938 1781 3938 1306 
Q 3938 681 3513 340 
Q 3088 0 2303 0 
L 628 0 
L 628 4666 
z
" transform="scale(0.015625)"/>
      <path id="DejaVuSans-6e" d="M 3513 2113 
L 3513 0 
L 2938 0 
L 2938 2094 
Q 2938 2591 2744 2837 
Q 2550 3084 2163 3084 
Q 1697 3084 1428 2787 
Q 1159 2491 1159 1978 
L 1159 0 
L 581 0 
L 581 3500 
L 1159 3500 
L 1159 2956 
Q 1366 3272 1645 3428 
Q 1925 3584 2291 3584 
Q 2894 3584 3203 3211 
Q 3513 2838 3513 2113 
z
" transform="scale(0.015625)"/>
      <path id="DejaVuSans-6b" d="M 581 4863 
L 1159 4863 
L 1159 1991 
L 2875 3500 
L 3609 3500 
L 1753 1863 
L 3688 0 
L 2938 0 
L 1159 1709 
L 1159 0 
L 581 0 
L 581 4863 
z
" transform="scale(0.015625)"/>
      <path id="DejaVuSans-72" d="M 2631 2963 
Q 2534 3019 2420 3045 
Q 2306 3072 2169 3072 
Q 1681 3072 1420 2755 
Q 1159 2438 1159 1844 
L 1159 0 
L 581 0 
L 581 3500 
L 1159 3500 
L 1159 2956 
Q 1341 3275 1631 3429 
Q 1922 3584 2338 3584 
Q 2397 3584 2469 3576 
Q 2541 3569 2628 3553 
L 2631 2963 
z
" transform="scale(0.015625)"/>
      <path id="DejaVuSans-62" d="M 3116 1747 
Q 3116 2381 2855 2742 
Q 2594 3103 2138 3103 
Q 1681 3103 1420 2742 
Q 1159 2381 1159 1747 
Q 1159 1113 1420 752 
Q 1681 391 2138 391 
Q 2594 391 2855 752 
Q 3116 1113 3116 1747 
z
M 1159 2969 
Q 1341 3281 1617 3432 
Q 1894 3584 2278 3584 
Q 2916 3584 3314 3078 
Q 3713 2572 3713 1747 
Q 3713 922 3314 415 
Q 2916 -91 2278 -91 
Q 1894 -91 1617 61 
Q 1341 213 1159 525 
L 1159 0 
L 581 0 
L 581 4863 
L 1159 4863 
L 1159 2969 
z
" transform="scale(0.015625)"/>
      <path id="DejaVuSans-2c" d="M 750 794 
L 1409 794 
L 1409 256 
L 897 -744 
L 494 -744 
L 750 256 
L 750 794 
z
" transform="scale(0.015625)"/>
      <path id="DejaVuSans-48" d="M 628 4666 
L 1259 4666 
L 1259 2753 
L 3553 2753 
L 3553 4666 
L 4184 4666 
L 4184 0 
L 3553 0 
L 3553 2222 
L 1259 2222 
L 1259 0 
L 628 0 
L 628 4666 
z
" transform="scale(0.015625)"/>
      <path id="DejaVuSans-7a" d="M 353 3500 
L 3084 3500 
L 3084 2975 
L 922 459 
L 3084 459 
L 3084 0 
L 275 0 
L 275 525 
L 2438 3041 
L 353 3041 
L 353 3500 
z
" transform="scale(0.015625)"/>
     </defs>
     <use xlink:href="#DejaVuSans-4d"/>
     <use xlink:href="#DejaVuSans-6f" transform="translate(86.279297 0)"/>
     <use xlink:href="#DejaVuSans-64" transform="translate(147.460938 0)"/>
     <use xlink:href="#DejaVuSans-61" transform="translate(210.9375 0)"/>
     <use xlink:href="#DejaVuSans-6c" transform="translate(272.216797 0)"/>
     <use xlink:href="#DejaVuSans-42" transform="translate(300 0)"/>
     <use xlink:href="#DejaVuSans-61" transform="translate(368.603516 0)"/>
     <use xlink:href="#DejaVuSans-6e" transform="translate(429.882812 0)"/>
     <use xlink:href="#DejaVuSans-6b" transform="translate(493.261719 0)"/>
     <use xlink:href="#DejaVuSans-20" transform="translate(551.171875 0)"/>
     <use xlink:href="#DejaVuSans-69" transform="translate(582.958984 0)"/>
     <use xlink:href="#DejaVuSans-6d" transform="translate(610.742188 0)"/>
     <use xlink:href="#DejaVuSans-70" transform="translate(708.154297 0)"/>
     <use xlink:href="#DejaVuSans-75" transform="translate(771.630859 0)"/>
     <use xlink:href="#DejaVuSans-6c" transform="translate(835.009766 0)"/>
     <use xlink:href="#DejaVuSans-73" transform="translate(862.792969 0)"/>
     <use xlink:href="#DejaVuSans-65" transform="translate(914.892578 0)"/>
     <use xlink:href="#DejaVuSans-20" transform="translate(976.416016 0)"/>
     <use xlink:href="#DejaVuSans-72" transform="translate(1008.203125 0)"/>
     <use xlink:href="#DejaVuSans-65" transform="translate(1047.066406 0)"/>
     <use xlink:href="#DejaVuSans-73" transform="translate(1108.589844 0)"/>
     <use xlink:href="#DejaVuSans-70" transform="translate(1160.689453 0)"/>
     <use xlink:href="#DejaVuSans-6f" transform="translate(1224.166016 0)"/>
     <use xlink:href="#DejaVuSans-6e" transform="translate(1285.347656 0)"/>
     <use xlink:href="#DejaVuSans-73" transform="translate(1348.726562 0)"/>
     <use xlink:href="#DejaVuSans-65" transform="translate(1400.826172 0)"/>
     <use xlink:href="#DejaVuSans-20" transform="translate(1462.349609 0)"/>
     <use xlink:href="#DejaVuSans-28" transform="translate(1494.136719 0)"/>
     <use xlink:href="#DejaVuSans-4d" transform="translate(1533.150391 0)"/>
     <use xlink:href="#DejaVuSans-61" transform="translate(1619.429688 0)"/>
     <use xlink:href="#DejaVuSans-72" transform="translate(1680.708984 0)"/>
     <use xlink:href="#DejaVuSans-69" transform="translate(1721.822266 0)"/>
     <use xlink:href="#DejaVuSans-6d" transform="translate(1749.605469 0)"/>
     <use xlink:href="#DejaVuSans-62" transform="translate(1847.017578 0)"/>
     <use xlink:href="#DejaVuSans-61" transform="translate(1910.494141 0)"/>
     <use xlink:href="#DejaVuSans-2c" transform="translate(1971.773438 0)"/>
     <use xlink:href="#DejaVuSans-20" transform="translate(2003.560547 0)"/>
     <use xlink:href="#DejaVuSans-33" transform="translate(2035.347656 0)"/>
     <use xlink:href="#DejaVuSans-32" transform="translate(2098.970703 0)"/>
     <use xlink:href="#DejaVuSans-20" transform="translate(2162.59375 0)"/>
     <use xlink:href="#DejaVuSans-6d" transform="translate(2194.380859 0)"/>
     <use xlink:href="#DejaVuSans-6f" transform="translate(2291.792969 0)"/>
     <use xlink:href="#DejaVuSans-64" transform="translate(2352.974609 0)"/>
     <use xlink:href="#DejaVuSans-65" transform="translate(2416.451172 0)"/>
     <use xlink:href="#DejaVuSans-73" transform="translate(2477.974609 0)"/>
     <use xlink:href="#DejaVuSans-2c" transform="translate(2530.074219 0)"/>
     <use xlink:href="#DejaVuSans-20" transform="translate(2561.861328 0)"/>
     <use xlink:href="#DejaVuSans-32" transform="translate(2593.648438 0)"/>
     <use xlink:href="#DejaVuSans-32" transform="translate(2657.271484 0)"/>
     <use xlink:href="#DejaVuSans-30" transform="translate(2720.894531 0)"/>
     <use xlink:href="#DejaVuSans-20" transform="translate(2784.517578 0)"/>
     <use xlink:href="#DejaVuSans-48" transform="translate(2816.304688 0)"/>
     <use xlink:href="#DejaVuSans-7a" transform="translate(2891.5 0)"/>
     <use xlink:href="#DejaVuSans-29" transform="translate(2943.990234 0)"/>
    </g>
   </g>
  </g>
 </g>
 <defs>
  <clipPath id="pb8e86315a5">
   <rect x="46.64" y="26.88" width="517.495923" height="219.16"/>
  </clipPath>
 </defs>
</svg>
