<?xml version="1.0" encoding="utf-8" standalone="no"?>
<!DOCTYPE svg PUBLIC "-//W3C//DTD SVG 1.1//EN"
  "http://www.w3.org/Graphics/SVG/1.1/DTD/svg11.dtd">
<svg xmlns:xlink="http://www.w3.org/1999/xlink" width="720pt" height="288pt" viewBox="0 0 720 288" xmlns="http://www.w3.org/2000/svg" version="1.1">
 <metadata>
  <rdf:RDF xmlns:dc="http://purl.org/dc/elements/1.1/" xmlns:cc="http://creativecommons.org/ns#" xmlns:rdf="http://www.w3.org/1999/02/22-rdf-syntax-ns#">
   <cc:Work>
    <dc:type rdf:resource="http://purl.org/dc/dcmitype/StillImage"/>
    <dc:date>2026-05-25T00:05:48.793817</dc:date>
    <dc:format>image/svg+xml</dc:format>
    <dc:creator>
     <cc:Agent>
      <dc:title>Matplotlib v3.10.9, https://matplotlib.org/</dc:title>
     </cc:Agent>
    </dc:creator>
   </cc:Work>
  </rdf:RDF>
 </metadata>
 <defs>
  <style type="text/css">*{stroke-linejoin: round; stroke-linecap: butt}</style>
 </defs>
 <g id="figure_1">
  <g id="patch_1">
   <path d="M 0 288 
L 720 288 
L 720 0 
L 0 0 
z
" style="fill: #ffffff"/>
  </g>
  <g id="axes_1">
   <g id="patch_2">
    <path d="M 62.39 246.04 
L 709.2 246.04 
L 709.2 26.88 
L 62.39 26.88 
z
" style="fill: #ffffff"/>
   </g>
   <g id="matplotlib.axis_1">
    <g id="xtick_1">
     <g id="line2d_1">
      <path d="M 91.790455 246.04 
L 91.790455 26.88 
" clip-path="url(#p03dff3b915)" style="fill: none; stroke: #b0b0b0; stroke-opacity: 0.3; stroke-width: 0.8; stroke-linecap: square"/>
     </g>
     <g id="line2d_2">
      <defs>
       <path id="m6a40640e84" d="M 0 0 
L 0 3.5 
" style="stroke: #000000; stroke-width: 0.8"/>
      </defs>
      <g>
       <use xlink:href="#m6a40640e84" x="91.790455" y="246.04" style="stroke: #000000; stroke-width: 0.8"/>
      </g>
     </g>
     <g id="text_1">
      <!-- 0.0 -->
      <g transform="translate(83.838892 260.638438) scale(0.1 -0.1)">
       <defs>
        <path id="DejaVuSans-30" d="M 2034 4250 
Q 1547 4250 1301 3770 
Q 1056 3291 1056 2328 
Q 1056 1369 1301 889 
Q 1547 409 2034 409 
Q 2525 409 2770 889 
Q 3016 1369 3016 2328 
Q 3016 3291 2770 3770 
Q 2525 4250 2034 4250 
z
M 2034 4750 
Q 2819 4750 3233 4129 
Q 3647 3509 3647 2328 
Q 3647 1150 3233 529 
Q 2819 -91 2034 -91 
Q 1250 -91 836 529 
Q 422 1150 422 2328 
Q 422 3509 836 4129 
Q 1250 4750 2034 4750 
z
" transform="scale(0.015625)"/>
        <path id="DejaVuSans-2e" d="M 684 794 
L 1344 794 
L 1344 0 
L 684 0 
L 684 794 
z
" transform="scale(0.015625)"/>
       </defs>
       <use xlink:href="#DejaVuSans-30"/>
       <use xlink:href="#DejaVuSans-2e" transform="translate(63.623047 0)"/>
       <use xlink:href="#DejaVuSans-30" transform="translate(95.410156 0)"/>
      </g>
     </g>
    </g>
    <g id="xtick_2">
     <g id="line2d_3">
      <path d="M 209.421681 246.04 
L 209.421681 26.88 
" clip-path="url(#p03dff3b915)" style="fill: none; stroke: #b0b0b0; stroke-opacity: 0.3; stroke-width: 0.8; stroke-linecap: square"/>
     </g>
     <g id="line2d_4">
      <g>
       <use xlink:href="#m6a40640e84" x="209.421681" y="246.04" style="stroke: #000000; stroke-width: 0.8"/>
      </g>
     </g>
     <g id="text_2">
      <!-- 0.2 -->
      <g transform="translate(201.470118 260.638438) scale(0.1 -0.1)">
       <defs>
        <path id="DejaVuSans-32" d="M 1228 531 
L 3431 531 
L 3431 0 
L 469 0 
L 469 531 
Q 828 903 1448 1529 
Q 2069 2156 2228 2338 
Q 2531 2678 2651 2914 
Q 2772 3150 2772 3378 
Q 2772 3750 2511 3984 
Q 2250 4219 1831 4219 
Q 1534 4219 1204 4116 
Q 875 4013 500 3803 
L 500 4441 
Q 881 4594 1212 4672 
Q 1544 4750 1819 4750 
Q 2544 4750 2975 4387 
Q 3406 4025 3406 3419 
Q 3406 3131 3298 2873 
Q 3191 2616 2906 2266 
Q 2828 2175 2409 1742 
Q 1991 1309 1228 531 
z
" transform="scale(0.015625)"/>
       </defs>
       <use xlink:href="#DejaVuSans-30"/>
       <use xlink:href="#DejaVuSans-2e" transform="translate(63.623047 0)"/>
       <use xlink:href="#DejaVuSans-32" transform="translate(95.410156 0)"/>
      </g>
     </g>
    </g>
    <g id="xtick_3">
     <g id="line2d_5">
      <path d="M 327.052907 246.04 
L 327.052907 26.88 
" clip-path="url(#p03dff3b915)" style="fill: none; stroke: #b0b0b0; stroke-opacity: 0.3; stroke-width: 0.8; stroke-linecap: square"/>
     </g>
     <g id="line2d_6">
      <g>
       <use xlink:href="#m6a40640e84" x="327.052907" y="246.04" style="stroke: #000000; stroke-width: 0.8"/>
      </g>
     </g>
     <g id="text_3">
      <!-- 0.4 -->
      <g transform="translate(319.101344 260.638438) scale(0.1 -0.1)">
       <defs>
        <path id="DejaVuSans-34" d="M 2419 4116 
L 825 1625 
L 2419 1625 
L 2419 4116 
z
M 2253 4666 
L 3047 4666 
L 3047 1625 
L 3713 1625 
L 3713 1100 
L 3047 1100 
L 3047 0 
L 2419 0 
L 2419 1100 
L 313 1100 
L 313 1709 
L 2253 4666 
z
" transform="scale(0.015625)"/>
       </defs>
       <use xlink:href="#DejaVuSans-30"/>
       <use xlink:href="#DejaVuSans-2e" transform="translate(63.623047 0)"/>
       <use xlink:href="#DejaVuSans-34" transform="translate(95.410156 0)"/>
      </g>
     </g>
    </g>
    <g id="xtick_4">
     <g id="line2d_7">
      <path d="M 444.684133 246.04 
L 444.684133 26.88 
" clip-path="url(#p03dff3b915)" style="fill: none; stroke: #b0b0b0; stroke-opacity: 0.3; stroke-width: 0.8; stroke-linecap: square"/>
     </g>
     <g id="line2d_8">
      <g>
       <use xlink:href="#m6a40640e84" x="444.684133" y="246.04" style="stroke: #000000; stroke-width: 0.8"/>
      </g>
     </g>
     <g id="text_4">
      <!-- 0.6 -->
      <g transform="translate(436.73257 260.638438) scale(0.1 -0.1)">
       <defs>
        <path id="DejaVuSans-36" d="M 2113 2584 
Q 1688 2584 1439 2293 
Q 1191 2003 1191 1497 
Q 1191 994 1439 701 
Q 1688 409 2113 409 
Q 2538 409 2786 701 
Q 3034 994 3034 1497 
Q 3034 2003 2786 2293 
Q 2538 2584 2113 2584 
z
M 3366 4563 
L 3366 3988 
Q 3128 4100 2886 4159 
Q 2644 4219 2406 4219 
Q 1781 4219 1451 3797 
Q 1122 3375 1075 2522 
Q 1259 2794 1537 2939 
Q 1816 3084 2150 3084 
Q 2853 3084 3261 2657 
Q 3669 2231 3669 1497 
Q 3669 778 3244 343 
Q 2819 -91 2113 -91 
Q 1303 -91 875 529 
Q 447 1150 447 2328 
Q 447 3434 972 4092 
Q 1497 4750 2381 4750 
Q 2619 4750 2861 4703 
Q 3103 4656 3366 4563 
z
" transform="scale(0.015625)"/>
       </defs>
       <use xlink:href="#DejaVuSans-30"/>
       <use xlink:href="#DejaVuSans-2e" transform="translate(63.623047 0)"/>
       <use xlink:href="#DejaVuSans-36" transform="translate(95.410156 0)"/>
      </g>
     </g>
    </g>
    <g id="xtick_5">
     <g id="line2d_9">
      <path d="M 562.315358 246.04 
L 562.315358 26.88 
" clip-path="url(#p03dff3b915)" style="fill: none; stroke: #b0b0b0; stroke-opacity: 0.3; stroke-width: 0.8; stroke-linecap: square"/>
     </g>
     <g id="line2d_10">
      <g>
       <use xlink:href="#m6a40640e84" x="562.315358" y="246.04" style="stroke: #000000; stroke-width: 0.8"/>
      </g>
     </g>
     <g id="text_5">
      <!-- 0.8 -->
      <g transform="translate(554.363796 260.638438) scale(0.1 -0.1)">
       <defs>
        <path id="DejaVuSans-38" d="M 2034 2216 
Q 1584 2216 1326 1975 
Q 1069 1734 1069 1313 
Q 1069 891 1326 650 
Q 1584 409 2034 409 
Q 2484 409 2743 651 
Q 3003 894 3003 1313 
Q 3003 1734 2745 1975 
Q 2488 2216 2034 2216 
z
M 1403 2484 
Q 997 2584 770 2862 
Q 544 3141 544 3541 
Q 544 4100 942 4425 
Q 1341 4750 2034 4750 
Q 2731 4750 3128 4425 
Q 3525 4100 3525 3541 
Q 3525 3141 3298 2862 
Q 3072 2584 2669 2484 
Q 3125 2378 3379 2068 
Q 3634 1759 3634 1313 
Q 3634 634 3220 271 
Q 2806 -91 2034 -91 
Q 1263 -91 848 271 
Q 434 634 434 1313 
Q 434 1759 690 2068 
Q 947 2378 1403 2484 
z
M 1172 3481 
Q 1172 3119 1398 2916 
Q 1625 2713 2034 2713 
Q 2441 2713 2670 2916 
Q 2900 3119 2900 3481 
Q 2900 3844 2670 4047 
Q 2441 4250 2034 4250 
Q 1625 4250 1398 4047 
Q 1172 3844 1172 3481 
z
" transform="scale(0.015625)"/>
       </defs>
       <use xlink:href="#DejaVuSans-30"/>
       <use xlink:href="#DejaVuSans-2e" transform="translate(63.623047 0)"/>
       <use xlink:href="#DejaVuSans-38" transform="translate(95.410156 0)"/>
      </g>
     </g>
    </g>
    <g id="xtick_6">
     <g id="line2d_11">
      <path d="M 679.946584 246.04 
L 679.946584 26.88 
" clip-path="url(#p03dff3b915)" style="fill: none; stroke: #b0b0b0; stroke-opacity: 0.3; stroke-width: 0.8; stroke-linecap: square"/>
     </g>
     <g id="line2d_12">
      <g>
       <use xlink:href="#m6a40640e84" x="679.946584" y="246.04" style="stroke: #000000; stroke-width: 0.8"/>
      </g>
     </g>
     <g id="text_6">
      <!-- 1.0 -->
      <g transform="translate(671.995022 260.638438) scale(0.1 -0.1)">
       <defs>
        <path id="DejaVuSans-31" d="M 794 531 
L 1825 531 
L 1825 4091 
L 703 3866 
L 703 4441 
L 1819 4666 
L 2450 4666 
L 2450 531 
L 3481 531 
L 3481 0 
L 794 0 
L 794 531 
z
" transform="scale(0.015625)"/>
       </defs>
       <use xlink:href="#DejaVuSans-31"/>
       <use xlink:href="#DejaVuSans-2e" transform="translate(63.623047 0)"/>
       <use xlink:href="#DejaVuSans-30" transform="translate(95.410156 0)"/>
      </g>
     </g>
    </g>
    <g id="text_7">
     <!-- Time (s) -->
     <g transform="translate(365.466094 274.316562) scale(0.1 -0.1)">
      <defs>
       <path id="DejaVuSans-54" d="M -19 4666 
L 3928 4666 
L 3928 4134 
L 2272 4134 
L 2272 0 
L 1638 0 
L 1638 4134 
L -19 4134 
L -19 4666 
z
" transform="scale(0.015625)"/>
       <path id="DejaVuSans-69" d="M 603 3500 
L 1178 3500 
L 1178 0 
L 603 0 
L 603 3500 
z
M 603 4863 
L 1178 4863 
L 1178 4134 
L 603 4134 
L 603 4863 
z
" transform="scale(0.015625)"/>
       <path id="DejaVuSans-6d" d="M 3328 2828 
Q 3544 3216 3844 3400 
Q 4144 3584 4550 3584 
Q 5097 3584 5394 3201 
Q 5691 2819 5691 2113 
L 5691 0 
L 5113 0 
L 5113 2094 
Q 5113 2597 4934 2840 
Q 4756 3084 4391 3084 
Q 3944 3084 3684 2787 
Q 3425 2491 3425 1978 
L 3425 0 
L 2847 0 
L 2847 2094 
Q 2847 2600 2669 2842 
Q 2491 3084 2119 3084 
Q 1678 3084 1418 2786 
Q 1159 2488 1159 1978 
L 1159 0 
L 581 0 
L 581 3500 
L 1159 3500 
L 1159 2956 
Q 1356 3278 1631 3431 
Q 1906 3584 2284 3584 
Q 2666 3584 2933 3390 
Q 3200 3197 3328 2828 
z
" transform="scale(0.015625)"/>
       <path id="DejaVuSans-65" d="M 3597 1894 
L 3597 1613 
L 953 1613 
Q 991 1019 1311 708 
Q 1631 397 2203 397 
Q 2534 397 2845 478 
Q 3156 559 3463 722 
L 3463 178 
Q 3153 47 2828 -22 
Q 2503 -91 2169 -91 
Q 1331 -91 842 396 
Q 353 884 353 1716 
Q 353 2575 817 3079 
Q 1281 3584 2069 3584 
Q 2775 3584 3186 3129 
Q 3597 2675 3597 1894 
z
M 3022 2063 
Q 3016 2534 2758 2815 
Q 2500 3097 2075 3097 
Q 1594 3097 1305 2825 
Q 1016 2553 972 2059 
L 3022 2063 
z
" transform="scale(0.015625)"/>
       <path id="DejaVuSans-20" transform="scale(0.015625)"/>
       <path id="DejaVuSans-28" d="M 1984 4856 
Q 1566 4138 1362 3434 
Q 1159 2731 1159 2009 
Q 1159 1288 1364 580 
Q 1569 -128 1984 -844 
L 1484 -844 
Q 1016 -109 783 600 
Q 550 1309 550 2009 
Q 550 2706 781 3412 
Q 1013 4119 1484 4856 
L 1984 4856 
z
" transform="scale(0.015625)"/>
       <path id="DejaVuSans-73" d="M 2834 3397 
L 2834 2853 
Q 2591 2978 2328 3040 
Q 2066 3103 1784 3103 
Q 1356 3103 1142 2972 
Q 928 2841 928 2578 
Q 928 2378 1081 2264 
Q 1234 2150 1697 2047 
L 1894 2003 
Q 2506 1872 2764 1633 
Q 3022 1394 3022 966 
Q 3022 478 2636 193 
Q 2250 -91 1575 -91 
Q 1294 -91 989 -36 
Q 684 19 347 128 
L 347 722 
Q 666 556 975 473 
Q 1284 391 1588 391 
Q 1994 391 2212 530 
Q 2431 669 2431 922 
Q 2431 1156 2273 1281 
Q 2116 1406 1581 1522 
L 1381 1569 
Q 847 1681 609 1914 
Q 372 2147 372 2553 
Q 372 3047 722 3315 
Q 1072 3584 1716 3584 
Q 2034 3584 2315 3537 
Q 2597 3491 2834 3397 
z
" transform="scale(0.015625)"/>
       <path id="DejaVuSans-29" d="M 513 4856 
L 1013 4856 
Q 1481 4119 1714 3412 
Q 1947 2706 1947 2009 
Q 1947 1309 1714 600 
Q 1481 -109 1013 -844 
L 513 -844 
Q 928 -128 1133 580 
Q 1338 1288 1338 2009 
Q 1338 2731 1133 3434 
Q 928 4138 513 4856 
z
" transform="scale(0.015625)"/>
      </defs>
      <use xlink:href="#DejaVuSans-54"/>
      <use xlink:href="#DejaVuSans-69" transform="translate(57.958984 0)"/>
      <use xlink:href="#DejaVuSans-6d" transform="translate(85.742188 0)"/>
      <use xlink:href="#DejaVuSans-65" transform="translate(183.154297 0)"/>
      <use xlink:href="#DejaVuSans-20" transform="translate(244.677734 0)"/>
      <use xlink:href="#DejaVuSans-28" transform="translate(276.464844 0)"/>
      <use xlink:href="#DejaVuSans-73" transform="translate(315.478516 0)"/>
      <use xlink:href="#DejaVuSans-29" transform="translate(367.578125 0)"/>
     </g>
    </g>
   </g>
   <g id="matplotlib.axis_2">
    <g id="ytick_1">
     <g id="line2d_13">
      <path d="M 62.39 241.771757 
L 709.2 241.771757 
" clip-path="url(#p03dff3b915)" style="fill: none; stroke: #b0b0b0; stroke-opacity: 0.3; stroke-width: 0.8; stroke-linecap: square"/>
     </g>
     <g id="line2d_14">
      <defs>
       <path id="mc4e8965c51" d="M 0 0 
L -3.5 0 
" style="stroke: #000000; stroke-width: 0.8"/>
      </defs>
      <g>
       <use xlink:href="#mc4e8965c51" x="62.39" y="241.771757" style="stroke: #000000; stroke-width: 0.8"/>
      </g>
     </g>
     <g id="text_8">
      <!-- −1.00 -->
      <g transform="translate(24.744688 245.570975) scale(0.1 -0.1)">
       <defs>
        <path id="DejaVuSans-2212" d="M 678 2272 
L 4684 2272 
L 4684 1741 
L 678 1741 
L 678 2272 
z
" transform="scale(0.015625)"/>
       </defs>
       <use xlink:href="#DejaVuSans-2212"/>
       <use xlink:href="#DejaVuSans-31" transform="translate(83.789062 0)"/>
       <use xlink:href="#DejaVuSans-2e" transform="translate(147.412109 0)"/>
       <use xlink:href="#DejaVuSans-30" transform="translate(179.199219 0)"/>
       <use xlink:href="#DejaVuSans-30" transform="translate(242.822266 0)"/>
      </g>
     </g>
    </g>
    <g id="ytick_2">
     <g id="line2d_15">
      <path d="M 62.39 215.443817 
L 709.2 215.443817 
" clip-path="url(#p03dff3b915)" style="fill: none; stroke: #b0b0b0; stroke-opacity: 0.3; stroke-width: 0.8; stroke-linecap: square"/>
     </g>
     <g id="line2d_16">
      <g>
       <use xlink:href="#mc4e8965c51" x="62.39" y="215.443817" style="stroke: #000000; stroke-width: 0.8"/>
      </g>
     </g>
     <g id="text_9">
      <!-- −0.75 -->
      <g transform="translate(24.744688 219.243036) scale(0.1 -0.1)">
       <defs>
        <path id="DejaVuSans-37" d="M 525 4666 
L 3525 4666 
L 3525 4397 
L 1831 0 
L 1172 0 
L 2766 4134 
L 525 4134 
L 525 4666 
z
" transform="scale(0.015625)"/>
        <path id="DejaVuSans-35" d="M 691 4666 
L 3169 4666 
L 3169 4134 
L 1269 4134 
L 1269 2991 
Q 1406 3038 1543 3061 
Q 1681 3084 1819 3084 
Q 2600 3084 3056 2656 
Q 3513 2228 3513 1497 
Q 3513 744 3044 326 
Q 2575 -91 1722 -91 
Q 1428 -91 1123 -41 
Q 819 9 494 109 
L 494 744 
Q 775 591 1075 516 
Q 1375 441 1709 441 
Q 2250 441 2565 725 
Q 2881 1009 2881 1497 
Q 2881 1984 2565 2268 
Q 2250 2553 1709 2553 
Q 1456 2553 1204 2497 
Q 953 2441 691 2322 
L 691 4666 
z
" transform="scale(0.015625)"/>
       </defs>
       <use xlink:href="#DejaVuSans-2212"/>
       <use xlink:href="#DejaVuSans-30" transform="translate(83.789062 0)"/>
       <use xlink:href="#DejaVuSans-2e" transform="translate(147.412109 0)"/>
       <use xlink:href="#DejaVuSans-37" transform="translate(179.199219 0)"/>
       <use xlink:href="#DejaVuSans-35" transform="translate(242.822266 0)"/>
      </g>
     </g>
    </g>
    <g id="ytick_3">
     <g id="line2d_17">
      <path d="M 62.39 189.115878 
L 709.2 189.115878 
" clip-path="url(#p03dff3b915)" style="fill: none; stroke: #b0b0b0; stroke-opacity: 0.3; stroke-width: 0.8; stroke-linecap: square"/>
     </g>
     <g id="line2d_18">
      <g>
       <use xlink:href="#mc4e8965c51" x="62.39" y="189.115878" style="stroke: #000000; stroke-width: 0.8"/>
      </g>
     </g>
     <g id="text_10">
      <!-- −0.50 -->
      <g transform="translate(24.744688 192.915097) scale(0.1 -0.1)">
       <use xlink:href="#DejaVuSans-2212"/>
       <use xlink:href="#DejaVuSans-30" transform="translate(83.789062 0)"/>
       <use xlink:href="#DejaVuSans-2e" transform="translate(147.412109 0)"/>
       <use xlink:href="#DejaVuSans-35" transform="translate(179.199219 0)"/>
       <use xlink:href="#DejaVuSans-30" transform="translate(242.822266 0)"/>
      </g>
     </g>
    </g>
    <g id="ytick_4">
     <g id="line2d_19">
      <path d="M 62.39 162.787939 
L 709.2 162.787939 
" clip-path="url(#p03dff3b915)" style="fill: none; stroke: #b0b0b0; stroke-opacity: 0.3; stroke-width: 0.8; stroke-linecap: square"/>
     </g>
     <g id="line2d_20">
      <g>
       <use xlink:href="#mc4e8965c51" x="62.39" y="162.787939" style="stroke: #000000; stroke-width: 0.8"/>
      </g>
     </g>
     <g id="text_11">
      <!-- −0.25 -->
      <g transform="translate(24.744688 166.587158) scale(0.1 -0.1)">
       <use xlink:href="#DejaVuSans-2212"/>
       <use xlink:href="#DejaVuSans-30" transform="translate(83.789062 0)"/>
       <use xlink:href="#DejaVuSans-2e" transform="translate(147.412109 0)"/>
       <use xlink:href="#DejaVuSans-32" transform="translate(179.199219 0)"/>
       <use xlink:href="#DejaVuSans-35" transform="translate(242.822266 0)"/>
      </g>
     </g>
    </g>
    <g id="ytick_5">
     <g id="line2d_21">
      <path d="M 62.39 136.46 
L 709.2 136.46 
" clip-path="url(#p03dff3b915)" style="fill: none; stroke: #b0b0b0; stroke-opacity: 0.3; stroke-width: 0.8; stroke-linecap: square"/>
     </g>
     <g id="line2d_22">
      <g>
       <use xlink:href="#mc4e8965c51" x="62.39" y="136.46" style="stroke: #000000; stroke-width: 0.8"/>
      </g>
     </g>
     <g id="text_12">
      <!-- 0.00 -->
      <g transform="translate(33.124375 140.259219) scale(0.1 -0.1)">
       <use xlink:href="#DejaVuSans-30"/>
       <use xlink:href="#DejaVuSans-2e" transform="translate(63.623047 0)"/>
       <use xlink:href="#DejaVuSans-30" transform="translate(95.410156 0)"/>
       <use xlink:href="#DejaVuSans-30" transform="translate(159.033203 0)"/>
      </g>
     </g>
    </g>
    <g id="ytick_6">
     <g id="line2d_23">
      <path d="M 62.39 110.132061 
L 709.2 110.132061 
" clip-path="url(#p03dff3b915)" style="fill: none; stroke: #b0b0b0; stroke-opacity: 0.3; stroke-width: 0.8; stroke-linecap: square"/>
     </g>
     <g id="line2d_24">
      <g>
       <use xlink:href="#mc4e8965c51" x="62.39" y="110.132061" style="stroke: #000000; stroke-width: 0.8"/>
      </g>
     </g>
     <g id="text_13">
      <!-- 0.25 -->
      <g transform="translate(33.124375 113.93128) scale(0.1 -0.1)">
       <use xlink:href="#DejaVuSans-30"/>
       <use xlink:href="#DejaVuSans-2e" transform="translate(63.623047 0)"/>
       <use xlink:href="#DejaVuSans-32" transform="translate(95.410156 0)"/>
       <use xlink:href="#DejaVuSans-35" transform="translate(159.033203 0)"/>
      </g>
     </g>
    </g>
    <g id="ytick_7">
     <g id="line2d_25">
      <path d="M 62.39 83.804122 
L 709.2 83.804122 
" clip-path="url(#p03dff3b915)" style="fill: none; stroke: #b0b0b0; stroke-opacity: 0.3; stroke-width: 0.8; stroke-linecap: square"/>
     </g>
     <g id="line2d_26">
      <g>
       <use xlink:href="#mc4e8965c51" x="62.39" y="83.804122" style="stroke: #000000; stroke-width: 0.8"/>
      </g>
     </g>
     <g id="text_14">
      <!-- 0.50 -->
      <g transform="translate(33.124375 87.60334) scale(0.1 -0.1)">
       <use xlink:href="#DejaVuSans-30"/>
       <use xlink:href="#DejaVuSans-2e" transform="translate(63.623047 0)"/>
       <use xlink:href="#DejaVuSans-35" transform="translate(95.410156 0)"/>
       <use xlink:href="#DejaVuSans-30" transform="translate(159.033203 0)"/>
      </g>
     </g>
    </g>
    <g id="ytick_8">
     <g id="line2d_27">
      <path d="M 62.39 57.476183 
L 709.2 57.476183 
" clip-path="url(#p03dff3b915)" style="fill: none; stroke: #b0b0b0; stroke-opacity: 0.3; stroke-width: 0.8; stroke-linecap: square"/>
     </g>
     <g id="line2d_28">
      <g>
       <use xlink:href="#mc4e8965c51" x="62.39" y="57.476183" style="stroke: #000000; stroke-width: 0.8"/>
      </g>
     </g>
     <g id="text_15">
      <!-- 0.75 -->
      <g transform="translate(33.124375 61.275401) scale(0.1 -0.1)">
       <use xlink:href="#DejaVuSans-30"/>
       <use xlink:href="#DejaVuSans-2e" transform="translate(63.623047 0)"/>
       <use xlink:href="#DejaVuSans-37" transform="translate(95.410156 0)"/>
       <use xlink:href="#DejaVuSans-35" transform="translate(159.033203 0)"/>
      </g>
     </g>
    </g>
    <g id="ytick_9">
     <g id="line2d_29">
      <path d="M 62.39 31.148243 
L 709.2 31.148243 
" clip-path="url(#p03dff3b915)" style="fill: none; stroke: #b0b0b0; stroke-opacity: 0.3; stroke-width: 0.8; stroke-linecap: square"/>
     </g>
     <g id="line2d_30">
      <g>
       <use xlink:href="#mc4e8965c51" x="62.39" y="31.148243" style="stroke: #000000; stroke-width: 0.8"/>
      </g>
     </g>
     <g id="text_16">
      <!-- 1.00 -->
      <g transform="translate(33.124375 34.947462) scale(0.1 -0.1)">
       <use xlink:href="#DejaVuSans-31"/>
       <use xlink:href="#DejaVuSans-2e" transform="translate(63.623047 0)"/>
       <use xlink:href="#DejaVuSans-30" transform="translate(95.410156 0)"/>
       <use xlink:href="#DejaVuSans-30" transform="translate(159.033203 0)"/>
      </g>
     </g>
    </g>
    <g id="text_17">
     <!-- Amplitude -->
     <g transform="translate(18.665 162.082656) rotate(-90) scale(0.1 -0.1)">
      <defs>
       <path id="DejaVuSans-41" d="M 2188 4044 
L 1331 1722 
L 3047 1722 
L 2188 4044 
z
M 1831 4666 
L 2547 4666 
L 4325 0 
L 3669 0 
L 3244 1197 
L 1141 1197 
L 716 0 
L 50 0 
L 1831 4666 
z
" transform="scale(0.015625)"/>
       <path id="DejaVuSans-70" d="M 1159 525 
L 1159 -1331 
L 581 -1331 
L 581 3500 
L 1159 3500 
L 1159 2969 
Q 1341 3281 1617 3432 
Q 1894 3584 2278 3584 
Q 2916 3584 3314 3078 
Q 3713 2572 3713 1747 
Q 3713 922 3314 415 
Q 2916 -91 2278 -91 
Q 1894 -91 1617 61 
Q 1341 213 1159 525 
z
M 3116 1747 
Q 3116 2381 2855 2742 
Q 2594 3103 2138 3103 
Q 1681 3103 1420 2742 
Q 1159 2381 1159 1747 
Q 1159 1113 1420 752 
Q 1681 391 2138 391 
Q 2594 391 2855 752 
Q 3116 1113 3116 1747 
z
" transform="scale(0.015625)"/>
       <path id="DejaVuSans-6c" d="M 603 4863 
L 1178 4863 
L 1178 0 
L 603 0 
L 603 4863 
z
" transform="scale(0.015625)"/>
       <path id="DejaVuSans-74" d="M 1172 4494 
L 1172 3500 
L 2356 3500 
L 2356 3053 
L 1172 3053 
L 1172 1153 
Q 1172 725 1289 603 
Q 1406 481 1766 481 
L 2356 481 
L 2356 0 
L 1766 0 
Q 1100 0 847 248 
Q 594 497 594 1153 
L 594 3053 
L 172 3053 
L 172 3500 
L 594 3500 
L 594 4494 
L 1172 4494 
z
" transform="scale(0.015625)"/>
       <path id="DejaVuSans-75" d="M 544 1381 
L 544 3500 
L 1119 3500 
L 1119 1403 
Q 1119 906 1312 657 
Q 1506 409 1894 409 
Q 2359 409 2629 706 
Q 2900 1003 2900 1516 
L 2900 3500 
L 3475 3500 
L 3475 0 
L 2900 0 
L 2900 538 
Q 2691 219 2414 64 
Q 2138 -91 1772 -91 
Q 1169 -91 856 284 
Q 544 659 544 1381 
z
M 1991 3584 
L 1991 3584 
z
" transform="scale(0.015625)"/>
       <path id="DejaVuSans-64" d="M 2906 2969 
L 2906 4863 
L 3481 4863 
L 3481 0 
L 2906 0 
L 2906 525 
Q 2725 213 2448 61 
Q 2172 -91 1784 -91 
Q 1150 -91 751 415 
Q 353 922 353 1747 
Q 353 2572 751 3078 
Q 1150 3584 1784 3584 
Q 2172 3584 2448 3432 
Q 2725 3281 2906 2969 
z
M 947 1747 
Q 947 1113 1208 752 
Q 1469 391 1925 391 
Q 2381 391 2643 752 
Q 2906 1113 2906 1747 
Q 2906 2381 2643 2742 
Q 2381 3103 1925 3103 
Q 1469 3103 1208 2742 
Q 947 2381 947 1747 
z
" transform="scale(0.015625)"/>
      </defs>
      <use xlink:href="#DejaVuSans-41"/>
      <use xlink:href="#DejaVuSans-6d" transform="translate(68.408203 0)"/>
      <use xlink:href="#DejaVuSans-70" transform="translate(165.820312 0)"/>
      <use xlink:href="#DejaVuSans-6c" transform="translate(229.296875 0)"/>
      <use xlink:href="#DejaVuSans-69" transform="translate(257.080078 0)"/>
      <use xlink:href="#DejaVuSans-74" transform="translate(284.863281 0)"/>
      <use xlink:href="#DejaVuSans-75" transform="translate(324.072266 0)"/>
      <use xlink:href="#DejaVuSans-64" transform="translate(387.451172 0)"/>
      <use xlink:href="#DejaVuSans-65" transform="translate(450.927734 0)"/>
     </g>
    </g>
   </g>
   <g id="line2d_31">
    <path d="M 91.790455 136.46 
L 150.900146 136.419666 
L 151.194224 136.199353 
L 151.635341 135.782319 
L 151.78238 135.817493 
L 151.929419 136.032856 
L 152.223497 137.09661 
L 152.958692 140.573056 
L 153.105731 140.402346 
L 153.25277 139.664742 
L 153.546848 136.46 
L 154.282043 126.122914 
L 154.429082 125.857739 
L 154.576121 126.763736 
L 154.870199 132.214883 
L 155.752434 156.030926 
L 155.899473 156.07105 
L 156.046512 154.007361 
L 156.34059 143.841196 
L 157.075785 108.235607 
L 157.222824 105.57996 
L 157.369863 105.934545 
L 157.516902 109.499453 
L 157.81098 125.392261 
L 158.546175 176.592415 
L 158.693214 179.953755 
L 158.840253 179.06187 
L 158.987292 173.754368 
L 159.28137 151.513368 
L 160.016566 83.912277 
L 160.163605 79.907587 
L 160.310644 81.442927 
L 160.604722 100.944031 
L 161.633995 205.626129 
L 161.781034 203.3852 
L 162.075112 179.211413 
L 162.957346 60.921457 
L 163.104385 55.984757 
L 163.251424 58.945492 
L 163.545502 87.382826 
L 164.427737 221.007332 
L 164.574776 226.169083 
L 164.721815 222.523611 
L 165.015893 190.522212 
L 165.898127 45.423463 
L 166.045166 40.221588 
L 166.192205 44.470391 
L 166.486283 79.093632 
L 167.368517 231.023849 
L 167.515556 236.078182 
L 167.662595 231.348947 
L 167.956673 195.225329 
L 168.838908 41.571053 
L 168.985947 36.841818 
L 169.132986 41.896151 
L 169.427064 78.296949 
L 170.309298 228.449714 
L 170.456337 232.698412 
L 170.603376 227.496432 
L 170.897454 192.061027 
L 171.779688 50.396389 
L 171.926727 46.750917 
L 172.073766 51.912668 
L 172.367844 85.206558 
L 173.10304 203.212383 
L 173.397118 216.935243 
L 173.544157 211.998543 
L 173.838235 181.876432 
L 174.57343 78.567811 
L 174.867508 67.293871 
L 175.014547 71.835967 
L 175.308625 97.97108 
L 176.04382 184.3045 
L 176.190859 191.477073 
L 176.337898 193.012413 
L 176.484937 189.007723 
L 176.779015 167.401437 
L 177.51421 99.165632 
L 177.66125 93.85813 
L 177.808289 92.966245 
L 177.955328 96.327585 
L 178.249406 113.170305 
L 178.984601 163.420547 
L 179.13164 166.985455 
L 179.278679 167.34004 
L 179.425718 164.684393 
L 179.719796 152.514145 
L 180.307952 123.071085 
L 180.60203 116.84895 
L 180.749069 116.889074 
L 180.896108 118.82502 
L 181.337225 131.642619 
L 181.778342 144.012327 
L 182.07242 147.062261 
L 182.21946 146.797086 
L 182.513538 143.577495 
L 183.248733 133.255258 
L 183.542811 132.346944 
L 183.68985 132.652243 
L 184.130967 135.020915 
L 184.572084 136.887144 
L 184.866162 137.137681 
L 185.16024 136.887987 
L 185.601357 136.500334 
L 186.189513 136.46 
L 268.531372 136.419666 
L 268.82545 136.199353 
L 269.266567 135.782319 
L 269.413606 135.817493 
L 269.560645 136.032856 
L 269.854723 137.09661 
L 270.589918 140.573056 
L 270.736957 140.402346 
L 270.883996 139.664742 
L 271.178074 136.46 
L 271.913269 126.122914 
L 272.060308 125.857739 
L 272.207347 126.763736 
L 272.501425 132.214883 
L 273.38366 156.030926 
L 273.530699 156.07105 
L 273.677738 154.007361 
L 273.971816 143.841196 
L 274.707011 108.235607 
L 274.85405 105.57996 
L 275.001089 105.934545 
L 275.148128 109.499453 
L 275.442206 125.392261 
L 276.177401 176.592415 
L 276.32444 179.953755 
L 276.471479 179.06187 
L 276.618518 173.754368 
L 276.912596 151.513368 
L 277.647792 83.912277 
L 277.794831 79.907587 
L 277.94187 81.442927 
L 278.235948 100.944031 
L 279.265221 205.626129 
L 279.41226 203.3852 
L 279.706338 179.211413 
L 280.588572 60.921457 
L 280.735611 55.984757 
L 280.88265 58.945492 
L 281.176728 87.382826 
L 282.058963 221.007332 
L 282.206002 226.169083 
L 282.353041 222.523611 
L 282.647119 190.522212 
L 283.529353 45.423463 
L 283.676392 40.221588 
L 283.823431 44.470391 
L 284.117509 79.093632 
L 284.999743 231.023849 
L 285.146782 236.078182 
L 285.293821 231.348947 
L 285.587899 195.225329 
L 286.470134 41.571053 
L 286.617173 36.841818 
L 286.764212 41.896151 
L 287.05829 78.296949 
L 287.940524 228.449714 
L 288.087563 232.698412 
L 288.234602 227.496432 
L 288.52868 192.061027 
L 289.410914 50.396389 
L 289.557953 46.750917 
L 289.704992 51.912668 
L 289.99907 85.206558 
L 290.734265 203.212383 
L 291.028344 216.935243 
L 291.175383 211.998543 
L 291.469461 181.876432 
L 292.204656 78.567811 
L 292.498734 67.293871 
L 292.645773 71.835967 
L 292.939851 97.97108 
L 293.675046 184.3045 
L 293.822085 191.477073 
L 293.969124 193.012413 
L 294.116163 189.007723 
L 294.410241 167.401437 
L 295.145436 99.165632 
L 295.292476 93.85813 
L 295.439515 92.966245 
L 295.586554 96.327585 
L 295.880632 113.170305 
L 296.615827 163.420547 
L 296.762866 166.985455 
L 296.909905 167.34004 
L 297.056944 164.684393 
L 297.351022 152.514145 
L 297.939178 123.071085 
L 298.233256 116.84895 
L 298.380295 116.889074 
L 298.527334 118.82502 
L 298.968451 131.642619 
L 299.409568 144.012327 
L 299.703646 147.062261 
L 299.850686 146.797086 
L 300.144764 143.577495 
L 300.879959 133.255258 
L 301.174037 132.346944 
L 301.321076 132.652243 
L 301.762193 135.020915 
L 302.20331 136.887144 
L 302.497388 137.137681 
L 302.791466 136.887987 
L 303.232583 136.500334 
L 303.820739 136.46 
L 415.570404 136.419666 
L 415.864482 136.199353 
L 416.305599 135.782319 
L 416.452638 135.817493 
L 416.599677 136.032856 
L 416.893755 137.09661 
L 417.628951 140.573056 
L 417.77599 140.402346 
L 417.923029 139.664742 
L 418.217107 136.46 
L 418.952302 126.122914 
L 419.099341 125.857739 
L 419.24638 126.763736 
L 419.540458 132.214883 
L 420.422692 156.030926 
L 420.569731 156.07105 
L 420.71677 154.007361 
L 421.010848 143.841196 
L 421.746043 108.235607 
L 421.893082 105.57996 
L 422.040122 105.934545 
L 422.187161 109.499453 
L 422.481239 125.392261 
L 423.216434 176.592415 
L 423.363473 179.953755 
L 423.510512 179.06187 
L 423.657551 173.754368 
L 423.951629 151.513368 
L 424.686824 83.912277 
L 424.833863 79.907587 
L 424.980902 81.442927 
L 425.27498 100.944031 
L 426.304253 205.626129 
L 426.451292 203.3852 
L 426.745371 179.211413 
L 427.627605 60.921457 
L 427.774644 55.984757 
L 427.921683 58.945492 
L 428.215761 87.382826 
L 429.097995 221.007332 
L 429.245034 226.169083 
L 429.392073 222.523611 
L 429.686151 190.522212 
L 430.568385 45.423463 
L 430.715424 40.221588 
L 430.862463 44.470391 
L 431.156542 79.093632 
L 432.038776 231.023849 
L 432.185815 236.078182 
L 432.332854 231.348947 
L 432.626932 195.225329 
L 433.509166 41.571053 
L 433.656205 36.841818 
L 433.803244 41.896151 
L 434.097322 78.296949 
L 434.979556 228.449714 
L 435.126595 232.698412 
L 435.273634 227.496432 
L 435.567712 192.061027 
L 436.449947 50.396389 
L 436.596986 46.750917 
L 436.744025 51.912668 
L 437.038103 85.206558 
L 437.773298 203.212383 
L 438.067376 216.935243 
L 438.214415 211.998543 
L 438.508493 181.876432 
L 439.243688 78.567811 
L 439.537766 67.293871 
L 439.684805 71.835967 
L 439.978883 97.97108 
L 440.714079 184.3045 
L 440.861118 191.477073 
L 441.008157 193.012413 
L 441.155196 189.007723 
L 441.449274 167.401437 
L 442.184469 99.165632 
L 442.331508 93.85813 
L 442.478547 92.966245 
L 442.625586 96.327585 
L 442.919664 113.170305 
L 443.654859 163.420547 
L 443.801898 166.985455 
L 443.948937 167.34004 
L 444.095976 164.684393 
L 444.390054 152.514145 
L 444.978211 123.071085 
L 445.272289 116.84895 
L 445.419328 116.889074 
L 445.566367 118.82502 
L 446.007484 131.642619 
L 446.448601 144.012327 
L 446.742679 147.062261 
L 446.889718 146.797086 
L 447.183796 143.577495 
L 447.918991 133.255258 
L 448.213069 132.346944 
L 448.360108 132.652243 
L 448.801225 135.020915 
L 449.242343 136.887144 
L 449.536421 137.137681 
L 449.830499 136.887987 
L 450.271616 136.500334 
L 450.859772 136.46 
L 592.017243 136.419666 
L 592.311321 136.199353 
L 592.752438 135.782319 
L 592.899477 135.817493 
L 593.046516 136.032856 
L 593.340594 137.09661 
L 594.07579 140.573056 
L 594.222829 140.402346 
L 594.369868 139.664742 
L 594.663946 136.46 
L 595.399141 126.122914 
L 595.54618 125.857739 
L 595.693219 126.763736 
L 595.987297 132.214883 
L 596.869531 156.030926 
L 597.01657 156.07105 
L 597.163609 154.007361 
L 597.457687 143.841196 
L 598.192882 108.235607 
L 598.339921 105.57996 
L 598.48696 105.934545 
L 598.634 109.499453 
L 598.928078 125.392261 
L 599.663273 176.592415 
L 599.810312 179.953755 
L 599.957351 179.06187 
L 600.10439 173.754368 
L 600.398468 151.513368 
L 601.133663 83.912277 
L 601.280702 79.907587 
L 601.427741 81.442927 
L 601.721819 100.944031 
L 602.751092 205.626129 
L 602.898131 203.3852 
L 603.19221 179.211413 
L 604.074444 60.921457 
L 604.221483 55.984757 
L 604.368522 58.945492 
L 604.6626 87.382826 
L 605.544834 221.007332 
L 605.691873 226.169083 
L 605.838912 222.523611 
L 606.13299 190.522212 
L 607.015224 45.423463 
L 607.162263 40.221588 
L 607.309302 44.470391 
L 607.603381 79.093632 
L 608.485615 231.023849 
L 608.632654 236.078182 
L 608.779693 231.348947 
L 609.073771 195.225329 
L 609.956005 41.571053 
L 610.103044 36.841818 
L 610.250083 41.896151 
L 610.544161 78.296949 
L 611.426395 228.449714 
L 611.573434 232.698412 
L 611.720473 227.496432 
L 612.014551 192.061027 
L 612.896786 50.396389 
L 613.043825 46.750917 
L 613.190864 51.912668 
L 613.484942 85.206558 
L 614.220137 203.212383 
L 614.514215 216.935243 
L 614.661254 211.998543 
L 614.955332 181.876432 
L 615.690527 78.567811 
L 615.984605 67.293871 
L 616.131644 71.835967 
L 616.425722 97.97108 
L 617.160918 184.3045 
L 617.307957 191.477073 
L 617.454996 193.012413 
L 617.602035 189.007723 
L 617.896113 167.401437 
L 618.631308 99.165632 
L 618.778347 93.85813 
L 618.925386 92.966245 
L 619.072425 96.327585 
L 619.366503 113.170305 
L 620.101698 163.420547 
L 620.248737 166.985455 
L 620.395776 167.34004 
L 620.542815 164.684393 
L 620.836893 152.514145 
L 621.42505 123.071085 
L 621.719128 116.84895 
L 621.866167 116.889074 
L 622.013206 118.82502 
L 622.454323 131.642619 
L 622.89544 144.012327 
L 623.189518 147.062261 
L 623.336557 146.797086 
L 623.630635 143.577495 
L 624.36583 133.255258 
L 624.659908 132.346944 
L 624.806947 132.652243 
L 625.248064 135.020915 
L 625.689181 136.887144 
L 625.98326 137.137681 
L 626.277338 136.887987 
L 626.718455 136.500334 
L 627.306611 136.46 
L 679.799545 136.46 
L 679.799545 136.46 
" clip-path="url(#p03dff3b915)" style="fill: none; stroke: #1f77b4; stroke-width: 0.5; stroke-linecap: square"/>
   </g>
   <g id="line2d_32">
    <path d="M 91.790455 246.04 
L 91.790455 26.88 
" clip-path="url(#p03dff3b915)" style="fill: none; stroke: #d62728; stroke-opacity: 0.7; stroke-linecap: square"/>
   </g>
   <g id="line2d_33">
    <path d="M 160.800578 246.04 
L 160.800578 26.88 
" clip-path="url(#p03dff3b915)" style="fill: none; stroke: #d62728; stroke-opacity: 0.7; stroke-linecap: square"/>
   </g>
   <g id="line2d_34">
    <path d="M 273.726555 246.04 
L 273.726555 26.88 
" clip-path="url(#p03dff3b915)" style="fill: none; stroke: #d62728; stroke-opacity: 0.7; stroke-linecap: square"/>
   </g>
   <g id="line2d_35">
    <path d="M 424.294524 246.04 
L 424.294524 26.88 
" clip-path="url(#p03dff3b915)" style="fill: none; stroke: #d62728; stroke-opacity: 0.7; stroke-linecap: square"/>
   </g>
   <g id="line2d_36">
    <path d="M 599.957351 246.04 
L 599.957351 26.88 
" clip-path="url(#p03dff3b915)" style="fill: none; stroke: #d62728; stroke-opacity: 0.7; stroke-linecap: square"/>
   </g>
   <g id="patch_3">
    <path d="M 62.39 246.04 
L 62.39 26.88 
" style="fill: none; stroke: #000000; stroke-width: 0.8; stroke-linejoin: miter; stroke-linecap: square"/>
   </g>
   <g id="patch_4">
    <path d="M 709.2 246.04 
L 709.2 26.88 
" style="fill: none; stroke: #000000; stroke-width: 0.8; stroke-linejoin: miter; stroke-linecap: square"/>
   </g>
   <g id="patch_5">
    <path d="M 62.39 246.04 
L 709.2 246.04 
" style="fill: none; stroke: #000000; stroke-width: 0.8; stroke-linejoin: miter; stroke-linecap: square"/>
   </g>
   <g id="patch_6">
    <path d="M 62.39 26.88 
L 709.2 26.88 
" style="fill: none; stroke: #000000; stroke-width: 0.8; stroke-linejoin: miter; stroke-linecap: square"/>
   </g>
   <g id="text_18">
    <!-- EnergyTransientDetector on synthetic tone bursts (sensitivity=0.7) -->
    <g transform="translate(184.621563 20.88) scale(0.12 -0.12)">
     <defs>
      <path id="DejaVuSans-45" d="M 628 4666 
L 3578 4666 
L 3578 4134 
L 1259 4134 
L 1259 2753 
L 3481 2753 
L 3481 2222 
L 1259 2222 
L 1259 531 
L 3634 531 
L 3634 0 
L 628 0 
L 628 4666 
z
" transform="scale(0.015625)"/>
      <path id="DejaVuSans-6e" d="M 3513 2113 
L 3513 0 
L 2938 0 
L 2938 2094 
Q 2938 2591 2744 2837 
Q 2550 3084 2163 3084 
Q 1697 3084 1428 2787 
Q 1159 2491 1159 1978 
L 1159 0 
L 581 0 
L 581 3500 
L 1159 3500 
L 1159 2956 
Q 1366 3272 1645 3428 
Q 1925 3584 2291 3584 
Q 2894 3584 3203 3211 
Q 3513 2838 3513 2113 
z
" transform="scale(0.015625)"/>
      <path id="DejaVuSans-72" d="M 2631 2963 
Q 2534 3019 2420 3045 
Q 2306 3072 2169 3072 
Q 1681 3072 1420 2755 
Q 1159 2438 1159 1844 
L 1159 0 
L 581 0 
L 581 3500 
L 1159 3500 
L 1159 2956 
Q 1341 3275 1631 3429 
Q 1922 3584 2338 3584 
Q 2397 3584 2469 3576 
Q 2541 3569 2628 3553 
L 2631 2963 
z
" transform="scale(0.015625)"/>
      <path id="DejaVuSans-67" d="M 2906 1791 
Q 2906 2416 2648 2759 
Q 2391 3103 1925 3103 
Q 1463 3103 1205 2759 
Q 947 2416 947 1791 
Q 947 1169 1205 825 
Q 1463 481 1925 481 
Q 2391 481 2648 825 
Q 2906 1169 2906 1791 
z
M 3481 434 
Q 3481 -459 3084 -895 
Q 2688 -1331 1869 -1331 
Q 1566 -1331 1297 -1286 
Q 1028 -1241 775 -1147 
L 775 -588 
Q 1028 -725 1275 -790 
Q 1522 -856 1778 -856 
Q 2344 -856 2625 -561 
Q 2906 -266 2906 331 
L 2906 616 
Q 2728 306 2450 153 
Q 2172 0 1784 0 
Q 1141 0 747 490 
Q 353 981 353 1791 
Q 353 2603 747 3093 
Q 1141 3584 1784 3584 
Q 2172 3584 2450 3431 
Q 2728 3278 2906 2969 
L 2906 3500 
L 3481 3500 
L 3481 434 
z
" transform="scale(0.015625)"/>
      <path id="DejaVuSans-79" d="M 2059 -325 
Q 1816 -950 1584 -1140 
Q 1353 -1331 966 -1331 
L 506 -1331 
L 506 -850 
L 844 -850 
Q 1081 -850 1212 -737 
Q 1344 -625 1503 -206 
L 1606 56 
L 191 3500 
L 800 3500 
L 1894 763 
L 2988 3500 
L 3597 3500 
L 2059 -325 
z
" transform="scale(0.015625)"/>
      <path id="DejaVuSans-61" d="M 2194 1759 
Q 1497 1759 1228 1600 
Q 959 1441 959 1056 
Q 959 750 1161 570 
Q 1363 391 1709 391 
Q 2188 391 2477 730 
Q 2766 1069 2766 1631 
L 2766 1759 
L 2194 1759 
z
M 3341 1997 
L 3341 0 
L 2766 0 
L 2766 531 
Q 2569 213 2275 61 
Q 1981 -91 1556 -91 
Q 1019 -91 701 211 
Q 384 513 384 1019 
Q 384 1609 779 1909 
Q 1175 2209 1959 2209 
L 2766 2209 
L 2766 2266 
Q 2766 2663 2505 2880 
Q 2244 3097 1772 3097 
Q 1472 3097 1187 3025 
Q 903 2953 641 2809 
L 641 3341 
Q 956 3463 1253 3523 
Q 1550 3584 1831 3584 
Q 2591 3584 2966 3190 
Q 3341 2797 3341 1997 
z
" transform="scale(0.015625)"/>
      <path id="DejaVuSans-44" d="M 1259 4147 
L 1259 519 
L 2022 519 
Q 2988 519 3436 956 
Q 3884 1394 3884 2338 
Q 3884 3275 3436 3711 
Q 2988 4147 2022 4147 
L 1259 4147 
z
M 628 4666 
L 1925 4666 
Q 3281 4666 3915 4102 
Q 4550 3538 4550 2338 
Q 4550 1131 3912 565 
Q 3275 0 1925 0 
L 628 0 
L 628 4666 
z
" transform="scale(0.015625)"/>
      <path id="DejaVuSans-63" d="M 3122 3366 
L 3122 2828 
Q 2878 2963 2633 3030 
Q 2388 3097 2138 3097 
Q 1578 3097 1268 2742 
Q 959 2388 959 1747 
Q 959 1106 1268 751 
Q 1578 397 2138 397 
Q 2388 397 2633 464 
Q 2878 531 3122 666 
L 3122 134 
Q 2881 22 2623 -34 
Q 2366 -91 2075 -91 
Q 1284 -91 818 406 
Q 353 903 353 1747 
Q 353 2603 823 3093 
Q 1294 3584 2113 3584 
Q 2378 3584 2631 3529 
Q 2884 3475 3122 3366 
z
" transform="scale(0.015625)"/>
      <path id="DejaVuSans-6f" d="M 1959 3097 
Q 1497 3097 1228 2736 
Q 959 2375 959 1747 
Q 959 1119 1226 758 
Q 1494 397 1959 397 
Q 2419 397 2687 759 
Q 2956 1122 2956 1747 
Q 2956 2369 2687 2733 
Q 2419 3097 1959 3097 
z
M 1959 3584 
Q 2709 3584 3137 3096 
Q 3566 2609 3566 1747 
Q 3566 888 3137 398 
Q 2709 -91 1959 -91 
Q 1206 -91 779 398 
Q 353 888 353 1747 
Q 353 2609 779 3096 
Q 1206 3584 1959 3584 
z
" transform="scale(0.015625)"/>
      <path id="DejaVuSans-68" d="M 3513 2113 
L 3513 0 
L 2938 0 
L 2938 2094 
Q 2938 2591 2744 2837 
Q 2550 3084 2163 3084 
Q 1697 3084 1428 2787 
Q 1159 2491 1159 1978 
L 1159 0 
L 581 0 
L 581 4863 
L 1159 4863 
L 1159 2956 
Q 1366 3272 1645 3428 
Q 1925 3584 2291 3584 
Q 2894 3584 3203 3211 
Q 3513 2838 3513 2113 
z
" transform="scale(0.015625)"/>
      <path id="DejaVuSans-62" d="M 3116 1747 
Q 3116 2381 2855 2742 
Q 2594 3103 2138 3103 
Q 1681 3103 1420 2742 
Q 1159 2381 1159 1747 
Q 1159 1113 1420 752 
Q 1681 391 2138 391 
Q 2594 391 2855 752 
Q 3116 1113 3116 1747 
z
M 1159 2969 
Q 1341 3281 1617 3432 
Q 1894 3584 2278 3584 
Q 2916 3584 3314 3078 
Q 3713 2572 3713 1747 
Q 3713 922 3314 415 
Q 2916 -91 2278 -91 
Q 1894 -91 1617 61 
Q 1341 213 1159 525 
L 1159 0 
L 581 0 
L 581 4863 
L 1159 4863 
L 1159 2969 
z
" transform="scale(0.015625)"/>
      <path id="DejaVuSans-76" d="M 191 3500 
L 800 3500 
L 1894 563 
L 2988 3500 
L 3597 3500 
L 2284 0 
L 1503 0 
L 191 3500 
z
" transform="scale(0.015625)"/>
      <path id="DejaVuSans-3d" d="M 678 2906 
L 4684 2906 
L 4684 2381 
L 678 2381 
L 678 2906 
z
M 678 1631 
L 4684 1631 
L 4684 1100 
L 678 1100 
L 678 1631 
z
" transform="scale(0.015625)"/>
     </defs>
     <use xlink:href="#DejaVuSans-45"/>
     <use xlink:href="#DejaVuSans-6e" transform="translate(63.183594 0)"/>
     <use xlink:href="#DejaVuSans-65" transform="translate(126.5625 0)"/>
     <use xlink:href="#DejaVuSans-72" transform="translate(188.085938 0)"/>
     <use xlink:href="#DejaVuSans-67" transform="translate(227.449219 0)"/>
     <use xlink:href="#DejaVuSans-79" transform="translate(290.925781 0)"/>
     <use xlink:href="#DejaVuSans-54" transform="translate(350.105469 0)"/>
     <use xlink:href="#DejaVuSans-72" transform="translate(396.439453 0)"/>
     <use xlink:href="#DejaVuSans-61" transform="translate(437.552734 0)"/>
     <use xlink:href="#DejaVuSans-6e" transform="translate(498.832031 0)"/>
     <use xlink:href="#DejaVuSans-73" transform="translate(562.210938 0)"/>
     <use xlink:href="#DejaVuSans-69" transform="translate(614.310547 0)"/>
     <use xlink:href="#DejaVuSans-65" transform="translate(642.09375 0)"/>
     <use xlink:href="#DejaVuSans-6e" transform="translate(703.617188 0)"/>
     <use xlink:href="#DejaVuSans-74" transform="translate(766.996094 0)"/>
     <use xlink:href="#DejaVuSans-44" transform="translate(806.205078 0)"/>
     <use xlink:href="#DejaVuSans-65" transform="translate(883.207031 0)"/>
     <use xlink:href="#DejaVuSans-74" transform="translate(944.730469 0)"/>
     <use xlink:href="#DejaVuSans-65" transform="translate(983.939453 0)"/>
     <use xlink:href="#DejaVuSans-63" transform="translate(1045.462891 0)"/>
     <use xlink:href="#DejaVuSans-74" transform="translate(1100.443359 0)"/>
     <use xlink:href="#DejaVuSans-6f" transform="translate(1139.652344 0)"/>
     <use xlink:href="#DejaVuSans-72" transform="translate(1200.833984 0)"/>
     <use xlink:href="#DejaVuSans-20" transform="translate(1241.947266 0)"/>
     <use xlink:href="#DejaVuSans-6f" transform="translate(1273.734375 0)"/>
     <use xlink:href="#DejaVuSans-6e" transform="translate(1334.916016 0)"/>
     <use xlink:href="#DejaVuSans-20" transform="translate(1398.294922 0)"/>
     <use xlink:href="#DejaVuSans-73" transform="translate(1430.082031 0)"/>
     <use xlink:href="#DejaVuSans-79" transform="translate(1482.181641 0)"/>
     <use xlink:href="#DejaVuSans-6e" transform="translate(1541.361328 0)"/>
     <use xlink:href="#DejaVuSans-74" transform="translate(1604.740234 0)"/>
     <use xlink:href="#DejaVuSans-68" transform="translate(1643.949219 0)"/>
     <use xlink:href="#DejaVuSans-65" transform="translate(1707.328125 0)"/>
     <use xlink:href="#DejaVuSans-74" transform="translate(1768.851562 0)"/>
     <use xlink:href="#DejaVuSans-69" transform="translate(1808.060547 0)"/>
     <use xlink:href="#DejaVuSans-63" transform="translate(1835.84375 0)"/>
     <use xlink:href="#DejaVuSans-20" transform="translate(1890.824219 0)"/>
     <use xlink:href="#DejaVuSans-74" transform="translate(1922.611328 0)"/>
     <use xlink:href="#DejaVuSans-6f" transform="translate(1961.820312 0)"/>
     <use xlink:href="#DejaVuSans-6e" transform="translate(2023.001953 0)"/>
     <use xlink:href="#DejaVuSans-65" transform="translate(2086.380859 0)"/>
     <use xlink:href="#DejaVuSans-20" transform="translate(2147.904297 0)"/>
     <use xlink:href="#DejaVuSans-62" transform="translate(2179.691406 0)"/>
     <use xlink:href="#DejaVuSans-75" transform="translate(2243.167969 0)"/>
     <use xlink:href="#DejaVuSans-72" transform="translate(2306.546875 0)"/>
     <use xlink:href="#DejaVuSans-73" transform="translate(2347.660156 0)"/>
     <use xlink:href="#DejaVuSans-74" transform="translate(2399.759766 0)"/>
     <use xlink:href="#DejaVuSans-73" transform="translate(2438.96875 0)"/>
     <use xlink:href="#DejaVuSans-20" transform="translate(2491.068359 0)"/>
     <use xlink:href="#DejaVuSans-28" transform="translate(2522.855469 0)"/>
     <use xlink:href="#DejaVuSans-73" transform="translate(2561.869141 0)"/>
     <use xlink:href="#DejaVuSans-65" transform="translate(2613.96875 0)"/>
     <use xlink:href="#DejaVuSans-6e" transform="translate(2675.492188 0)"/>
     <use xlink:href="#DejaVuSans-73" transform="translate(2738.871094 0)"/>
     <use xlink:href="#DejaVuSans-69" transform="translate(2790.970703 0)"/>
     <use xlink:href="#DejaVuSans-74" transform="translate(2818.753906 0)"/>
     <use xlink:href="#DejaVuSans-69" transform="translate(2857.962891 0)"/>
     <use xlink:href="#DejaVuSans-76" transform="translate(2885.746094 0)"/>
     <use xlink:href="#DejaVuSans-69" transform="translate(2944.925781 0)"/>
     <use xlink:href="#DejaVuSans-74" transform="translate(2972.708984 0)"/>
     <use xlink:href="#DejaVuSans-79" transform="translate(3011.917969 0)"/>
     <use xlink:href="#DejaVuSans-3d" transform="translate(3071.097656 0)"/>
     <use xlink:href="#DejaVuSans-30" transform="translate(3154.886719 0)"/>
     <use xlink:href="#DejaVuSans-2e" transform="translate(3218.509766 0)"/>
     <use xlink:href="#DejaVuSans-37" transform="translate(3250.296875 0)"/>
     <use xlink:href="#DejaVuSans-29" transform="translate(3313.919922 0)"/>
    </g>
   </g>
   <g id="legend_1">
    <g id="patch_7">
     <path d="M 597.872813 60.500625 
L 702.9 60.500625 
Q 704.7 60.500625 704.7 58.700625 
L 704.7 33.18 
Q 704.7 31.38 702.9 31.38 
L 597.872813 31.38 
Q 596.072813 31.38 596.072813 33.18 
L 596.072813 58.700625 
Q 596.072813 60.500625 597.872813 60.500625 
z
" style="fill: #ffffff; opacity: 0.8; stroke: #cccccc; stroke-linejoin: miter"/>
    </g>
    <g id="line2d_37">
     <path d="M 599.672813 38.668594 
L 608.672813 38.668594 
L 617.672813 38.668594 
" style="fill: none; stroke: #1f77b4; stroke-width: 0.5; stroke-linecap: square"/>
    </g>
    <g id="text_19">
     <!-- Audio -->
     <g transform="translate(624.872813 41.818594) scale(0.09 -0.09)">
      <use xlink:href="#DejaVuSans-41"/>
      <use xlink:href="#DejaVuSans-75" transform="translate(68.408203 0)"/>
      <use xlink:href="#DejaVuSans-64" transform="translate(131.787109 0)"/>
      <use xlink:href="#DejaVuSans-69" transform="translate(195.263672 0)"/>
      <use xlink:href="#DejaVuSans-6f" transform="translate(223.046875 0)"/>
     </g>
    </g>
    <g id="line2d_38">
     <path d="M 599.672813 51.878906 
L 608.672813 51.878906 
L 617.672813 51.878906 
" style="fill: none; stroke: #d62728; stroke-opacity: 0.7; stroke-linecap: square"/>
    </g>
    <g id="text_20">
     <!-- Detected marker -->
     <g transform="translate(624.872813 55.028906) scale(0.09 -0.09)">
      <defs>
       <path id="DejaVuSans-6b" d="M 581 4863 
L 1159 4863 
L 1159 1991 
L 2875 3500 
L 3609 3500 
L 1753 1863 
L 3688 0 
L 2938 0 
L 1159 1709 
L 1159 0 
L 581 0 
L 581 4863 
z
" transform="scale(0.015625)"/>
      </defs>
      <use xlink:href="#DejaVuSans-44"/>
      <use xlink:href="#DejaVuSans-65" transform="translate(77.001953 0)"/>
      <use xlink:href="#DejaVuSans-74" transform="translate(138.525391 0)"/>
      <use xlink:href="#DejaVuSans-65" transform="translate(177.734375 0)"/>
      <use xlink:href="#DejaVuSans-63" transform="translate(239.257812 0)"/>
      <use xlink:href="#DejaVuSans-74" transform="translate(294.238281 0)"/>
      <use xlink:href="#DejaVuSans-65" transform="translate(333.447266 0)"/>
      <use xlink:href="#DejaVuSans-64" transform="translate(394.970703 0)"/>
      <use xlink:href="#DejaVuSans-20" transform="translate(458.447266 0)"/>
      <use xlink:href="#DejaVuSans-6d" transform="translate(490.234375 0)"/>
      <use xlink:href="#DejaVuSans-61" transform="translate(587.646484 0)"/>
      <use xlink:href="#DejaVuSans-72" transform="translate(648.925781 0)"/>
      <use xlink:href="#DejaVuSans-6b" transform="translate(690.039062 0)"/>
      <use xlink:href="#DejaVuSans-65" transform="translate(744.324219 0)"/>
      <use xlink:href="#DejaVuSans-72" transform="translate(805.847656 0)"/>
     </g>
    </g>
   </g>
  </g>
 </g>
 <defs>
  <clipPath id="p03dff3b915">
   <rect x="62.39" y="26.88" width="646.81" height="219.16"/>
  </clipPath>
 </defs>
</svg>
