<?xml version="1.0" encoding="utf-8" standalone="no"?>
<!DOCTYPE svg PUBLIC "-//W3C//DTD SVG 1.1//EN"
  "http://www.w3.org/Graphics/SVG/1.1/DTD/svg11.dtd">
<svg xmlns:xlink="http://www.w3.org/1999/xlink" width="576pt" height="288pt" viewBox="0 0 576 288" xmlns="http://www.w3.org/2000/svg" version="1.1">
 <metadata>
  <rdf:RDF xmlns:dc="http://purl.org/dc/elements/1.1/" xmlns:cc="http://creativecommons.org/ns#" xmlns:rdf="http://www.w3.org/1999/02/22-rdf-syntax-ns#">
   <cc:Work>
    <dc:type rdf:resource="http://purl.org/dc/dcmitype/StillImage"/>
    <dc:date>2026-05-25T00:05:28.636057</dc:date>
    <dc:format>image/svg+xml</dc:format>
    <dc:creator>
     <cc:Agent>
      <dc:title>Matplotlib v3.10.9, https://matplotlib.org/</dc:title>
     </cc:Agent>
    </dc:creator>
   </cc:Work>
  </rdf:RDF>
 </metadata>
 <defs>
  <style type="text/css">*{stroke-linejoin: round; stroke-linecap: butt}</style>
 </defs>
 <g id="figure_1">
  <g id="patch_1">
   <path d="M 0 288 
L 576 288 
L 576 0 
L 0 0 
z
" style="fill: #ffffff"/>
  </g>
  <g id="axes_1">
   <g id="patch_2">
    <path d="M 47.72 246.04 
L 560.916536 246.04 
L 560.916536 26.88 
L 47.72 26.88 
z
" style="fill: #ffffff"/>
   </g>
   <g id="matplotlib.axis_1">
    <g id="xtick_1">
     <g id="line2d_1">
      <path d="M 71.047115 246.04 
L 71.047115 26.88 
" clip-path="url(#p17f20193ec)" style="fill: none; stroke: #b0b0b0; stroke-opacity: 0.3; stroke-width: 0.8; stroke-linecap: square"/>
     </g>
     <g id="line2d_2">
      <defs>
       <path id="me2f517fcc9" d="M 0 0 
L 0 3.5 
" style="stroke: #000000; stroke-width: 0.8"/>
      </defs>
      <g>
       <use xlink:href="#me2f517fcc9" x="71.047115" y="246.04" style="stroke: #000000; stroke-width: 0.8"/>
      </g>
     </g>
     <g id="text_1">
      <!-- 0.000 -->
      <g transform="translate(56.733053 260.638438) scale(0.1 -0.1)">
       <defs>
        <path id="DejaVuSans-30" d="M 2034 4250 
Q 1547 4250 1301 3770 
Q 1056 3291 1056 2328 
Q 1056 1369 1301 889 
Q 1547 409 2034 409 
Q 2525 409 2770 889 
Q 3016 1369 3016 2328 
Q 3016 3291 2770 3770 
Q 2525 4250 2034 4250 
z
M 2034 4750 
Q 2819 4750 3233 4129 
Q 3647 3509 3647 2328 
Q 3647 1150 3233 529 
Q 2819 -91 2034 -91 
Q 1250 -91 836 529 
Q 422 1150 422 2328 
Q 422 3509 836 4129 
Q 1250 4750 2034 4750 
z
" transform="scale(0.015625)"/>
        <path id="DejaVuSans-2e" d="M 684 794 
L 1344 794 
L 1344 0 
L 684 0 
L 684 794 
z
" transform="scale(0.015625)"/>
       </defs>
       <use xlink:href="#DejaVuSans-30"/>
       <use xlink:href="#DejaVuSans-2e" transform="translate(63.623047 0)"/>
       <use xlink:href="#DejaVuSans-30" transform="translate(95.410156 0)"/>
       <use xlink:href="#DejaVuSans-30" transform="translate(159.033203 0)"/>
       <use xlink:href="#DejaVuSans-30" transform="translate(222.65625 0)"/>
      </g>
     </g>
    </g>
    <g id="xtick_2">
     <g id="line2d_3">
      <path d="M 139.39655 246.04 
L 139.39655 26.88 
" clip-path="url(#p17f20193ec)" style="fill: none; stroke: #b0b0b0; stroke-opacity: 0.3; stroke-width: 0.8; stroke-linecap: square"/>
     </g>
     <g id="line2d_4">
      <g>
       <use xlink:href="#me2f517fcc9" x="139.39655" y="246.04" style="stroke: #000000; stroke-width: 0.8"/>
      </g>
     </g>
     <g id="text_2">
      <!-- 0.025 -->
      <g transform="translate(125.082487 260.638438) scale(0.1 -0.1)">
       <defs>
        <path id="DejaVuSans-32" d="M 1228 531 
L 3431 531 
L 3431 0 
L 469 0 
L 469 531 
Q 828 903 1448 1529 
Q 2069 2156 2228 2338 
Q 2531 2678 2651 2914 
Q 2772 3150 2772 3378 
Q 2772 3750 2511 3984 
Q 2250 4219 1831 4219 
Q 1534 4219 1204 4116 
Q 875 4013 500 3803 
L 500 4441 
Q 881 4594 1212 4672 
Q 1544 4750 1819 4750 
Q 2544 4750 2975 4387 
Q 3406 4025 3406 3419 
Q 3406 3131 3298 2873 
Q 3191 2616 2906 2266 
Q 2828 2175 2409 1742 
Q 1991 1309 1228 531 
z
" transform="scale(0.015625)"/>
        <path id="DejaVuSans-35" d="M 691 4666 
L 3169 4666 
L 3169 4134 
L 1269 4134 
L 1269 2991 
Q 1406 3038 1543 3061 
Q 1681 3084 1819 3084 
Q 2600 3084 3056 2656 
Q 3513 2228 3513 1497 
Q 3513 744 3044 326 
Q 2575 -91 1722 -91 
Q 1428 -91 1123 -41 
Q 819 9 494 109 
L 494 744 
Q 775 591 1075 516 
Q 1375 441 1709 441 
Q 2250 441 2565 725 
Q 2881 1009 2881 1497 
Q 2881 1984 2565 2268 
Q 2250 2553 1709 2553 
Q 1456 2553 1204 2497 
Q 953 2441 691 2322 
L 691 4666 
z
" transform="scale(0.015625)"/>
       </defs>
       <use xlink:href="#DejaVuSans-30"/>
       <use xlink:href="#DejaVuSans-2e" transform="translate(63.623047 0)"/>
       <use xlink:href="#DejaVuSans-30" transform="translate(95.410156 0)"/>
       <use xlink:href="#DejaVuSans-32" transform="translate(159.033203 0)"/>
       <use xlink:href="#DejaVuSans-35" transform="translate(222.65625 0)"/>
      </g>
     </g>
    </g>
    <g id="xtick_3">
     <g id="line2d_5">
      <path d="M 207.745985 246.04 
L 207.745985 26.88 
" clip-path="url(#p17f20193ec)" style="fill: none; stroke: #b0b0b0; stroke-opacity: 0.3; stroke-width: 0.8; stroke-linecap: square"/>
     </g>
     <g id="line2d_6">
      <g>
       <use xlink:href="#me2f517fcc9" x="207.745985" y="246.04" style="stroke: #000000; stroke-width: 0.8"/>
      </g>
     </g>
     <g id="text_3">
      <!-- 0.050 -->
      <g transform="translate(193.431922 260.638438) scale(0.1 -0.1)">
       <use xlink:href="#DejaVuSans-30"/>
       <use xlink:href="#DejaVuSans-2e" transform="translate(63.623047 0)"/>
       <use xlink:href="#DejaVuSans-30" transform="translate(95.410156 0)"/>
       <use xlink:href="#DejaVuSans-35" transform="translate(159.033203 0)"/>
       <use xlink:href="#DejaVuSans-30" transform="translate(222.65625 0)"/>
      </g>
     </g>
    </g>
    <g id="xtick_4">
     <g id="line2d_7">
      <path d="M 276.095419 246.04 
L 276.095419 26.88 
" clip-path="url(#p17f20193ec)" style="fill: none; stroke: #b0b0b0; stroke-opacity: 0.3; stroke-width: 0.8; stroke-linecap: square"/>
     </g>
     <g id="line2d_8">
      <g>
       <use xlink:href="#me2f517fcc9" x="276.095419" y="246.04" style="stroke: #000000; stroke-width: 0.8"/>
      </g>
     </g>
     <g id="text_4">
      <!-- 0.075 -->
      <g transform="translate(261.781357 260.638438) scale(0.1 -0.1)">
       <defs>
        <path id="DejaVuSans-37" d="M 525 4666 
L 3525 4666 
L 3525 4397 
L 1831 0 
L 1172 0 
L 2766 4134 
L 525 4134 
L 525 4666 
z
" transform="scale(0.015625)"/>
       </defs>
       <use xlink:href="#DejaVuSans-30"/>
       <use xlink:href="#DejaVuSans-2e" transform="translate(63.623047 0)"/>
       <use xlink:href="#DejaVuSans-30" transform="translate(95.410156 0)"/>
       <use xlink:href="#DejaVuSans-37" transform="translate(159.033203 0)"/>
       <use xlink:href="#DejaVuSans-35" transform="translate(222.65625 0)"/>
      </g>
     </g>
    </g>
    <g id="xtick_5">
     <g id="line2d_9">
      <path d="M 344.444854 246.04 
L 344.444854 26.88 
" clip-path="url(#p17f20193ec)" style="fill: none; stroke: #b0b0b0; stroke-opacity: 0.3; stroke-width: 0.8; stroke-linecap: square"/>
     </g>
     <g id="line2d_10">
      <g>
       <use xlink:href="#me2f517fcc9" x="344.444854" y="246.04" style="stroke: #000000; stroke-width: 0.8"/>
      </g>
     </g>
     <g id="text_5">
      <!-- 0.100 -->
      <g transform="translate(330.130792 260.638438) scale(0.1 -0.1)">
       <defs>
        <path id="DejaVuSans-31" d="M 794 531 
L 1825 531 
L 1825 4091 
L 703 3866 
L 703 4441 
L 1819 4666 
L 2450 4666 
L 2450 531 
L 3481 531 
L 3481 0 
L 794 0 
L 794 531 
z
" transform="scale(0.015625)"/>
       </defs>
       <use xlink:href="#DejaVuSans-30"/>
       <use xlink:href="#DejaVuSans-2e" transform="translate(63.623047 0)"/>
       <use xlink:href="#DejaVuSans-31" transform="translate(95.410156 0)"/>
       <use xlink:href="#DejaVuSans-30" transform="translate(159.033203 0)"/>
       <use xlink:href="#DejaVuSans-30" transform="translate(222.65625 0)"/>
      </g>
     </g>
    </g>
    <g id="xtick_6">
     <g id="line2d_11">
      <path d="M 412.794289 246.04 
L 412.794289 26.88 
" clip-path="url(#p17f20193ec)" style="fill: none; stroke: #b0b0b0; stroke-opacity: 0.3; stroke-width: 0.8; stroke-linecap: square"/>
     </g>
     <g id="line2d_12">
      <g>
       <use xlink:href="#me2f517fcc9" x="412.794289" y="246.04" style="stroke: #000000; stroke-width: 0.8"/>
      </g>
     </g>
     <g id="text_6">
      <!-- 0.125 -->
      <g transform="translate(398.480226 260.638438) scale(0.1 -0.1)">
       <use xlink:href="#DejaVuSans-30"/>
       <use xlink:href="#DejaVuSans-2e" transform="translate(63.623047 0)"/>
       <use xlink:href="#DejaVuSans-31" transform="translate(95.410156 0)"/>
       <use xlink:href="#DejaVuSans-32" transform="translate(159.033203 0)"/>
       <use xlink:href="#DejaVuSans-35" transform="translate(222.65625 0)"/>
      </g>
     </g>
    </g>
    <g id="xtick_7">
     <g id="line2d_13">
      <path d="M 481.143723 246.04 
L 481.143723 26.88 
" clip-path="url(#p17f20193ec)" style="fill: none; stroke: #b0b0b0; stroke-opacity: 0.3; stroke-width: 0.8; stroke-linecap: square"/>
     </g>
     <g id="line2d_14">
      <g>
       <use xlink:href="#me2f517fcc9" x="481.143723" y="246.04" style="stroke: #000000; stroke-width: 0.8"/>
      </g>
     </g>
     <g id="text_7">
      <!-- 0.150 -->
      <g transform="translate(466.829661 260.638438) scale(0.1 -0.1)">
       <use xlink:href="#DejaVuSans-30"/>
       <use xlink:href="#DejaVuSans-2e" transform="translate(63.623047 0)"/>
       <use xlink:href="#DejaVuSans-31" transform="translate(95.410156 0)"/>
       <use xlink:href="#DejaVuSans-35" transform="translate(159.033203 0)"/>
       <use xlink:href="#DejaVuSans-30" transform="translate(222.65625 0)"/>
      </g>
     </g>
    </g>
    <g id="xtick_8">
     <g id="line2d_15">
      <path d="M 549.493158 246.04 
L 549.493158 26.88 
" clip-path="url(#p17f20193ec)" style="fill: none; stroke: #b0b0b0; stroke-opacity: 0.3; stroke-width: 0.8; stroke-linecap: square"/>
     </g>
     <g id="line2d_16">
      <g>
       <use xlink:href="#me2f517fcc9" x="549.493158" y="246.04" style="stroke: #000000; stroke-width: 0.8"/>
      </g>
     </g>
     <g id="text_8">
      <!-- 0.175 -->
      <g transform="translate(535.179096 260.638438) scale(0.1 -0.1)">
       <use xlink:href="#DejaVuSans-30"/>
       <use xlink:href="#DejaVuSans-2e" transform="translate(63.623047 0)"/>
       <use xlink:href="#DejaVuSans-31" transform="translate(95.410156 0)"/>
       <use xlink:href="#DejaVuSans-37" transform="translate(159.033203 0)"/>
       <use xlink:href="#DejaVuSans-35" transform="translate(222.65625 0)"/>
      </g>
     </g>
    </g>
    <g id="text_9">
     <!-- Time (s) -->
     <g transform="translate(283.989362 274.316562) scale(0.1 -0.1)">
      <defs>
       <path id="DejaVuSans-54" d="M -19 4666 
L 3928 4666 
L 3928 4134 
L 2272 4134 
L 2272 0 
L 1638 0 
L 1638 4134 
L -19 4134 
L -19 4666 
z
" transform="scale(0.015625)"/>
       <path id="DejaVuSans-69" d="M 603 3500 
L 1178 3500 
L 1178 0 
L 603 0 
L 603 3500 
z
M 603 4863 
L 1178 4863 
L 1178 4134 
L 603 4134 
L 603 4863 
z
" transform="scale(0.015625)"/>
       <path id="DejaVuSans-6d" d="M 3328 2828 
Q 3544 3216 3844 3400 
Q 4144 3584 4550 3584 
Q 5097 3584 5394 3201 
Q 5691 2819 5691 2113 
L 5691 0 
L 5113 0 
L 5113 2094 
Q 5113 2597 4934 2840 
Q 4756 3084 4391 3084 
Q 3944 3084 3684 2787 
Q 3425 2491 3425 1978 
L 3425 0 
L 2847 0 
L 2847 2094 
Q 2847 2600 2669 2842 
Q 2491 3084 2119 3084 
Q 1678 3084 1418 2786 
Q 1159 2488 1159 1978 
L 1159 0 
L 581 0 
L 581 3500 
L 1159 3500 
L 1159 2956 
Q 1356 3278 1631 3431 
Q 1906 3584 2284 3584 
Q 2666 3584 2933 3390 
Q 3200 3197 3328 2828 
z
" transform="scale(0.015625)"/>
       <path id="DejaVuSans-65" d="M 3597 1894 
L 3597 1613 
L 953 1613 
Q 991 1019 1311 708 
Q 1631 397 2203 397 
Q 2534 397 2845 478 
Q 3156 559 3463 722 
L 3463 178 
Q 3153 47 2828 -22 
Q 2503 -91 2169 -91 
Q 1331 -91 842 396 
Q 353 884 353 1716 
Q 353 2575 817 3079 
Q 1281 3584 2069 3584 
Q 2775 3584 3186 3129 
Q 3597 2675 3597 1894 
z
M 3022 2063 
Q 3016 2534 2758 2815 
Q 2500 3097 2075 3097 
Q 1594 3097 1305 2825 
Q 1016 2553 972 2059 
L 3022 2063 
z
" transform="scale(0.015625)"/>
       <path id="DejaVuSans-20" transform="scale(0.015625)"/>
       <path id="DejaVuSans-28" d="M 1984 4856 
Q 1566 4138 1362 3434 
Q 1159 2731 1159 2009 
Q 1159 1288 1364 580 
Q 1569 -128 1984 -844 
L 1484 -844 
Q 1016 -109 783 600 
Q 550 1309 550 2009 
Q 550 2706 781 3412 
Q 1013 4119 1484 4856 
L 1984 4856 
z
" transform="scale(0.015625)"/>
       <path id="DejaVuSans-73" d="M 2834 3397 
L 2834 2853 
Q 2591 2978 2328 3040 
Q 2066 3103 1784 3103 
Q 1356 3103 1142 2972 
Q 928 2841 928 2578 
Q 928 2378 1081 2264 
Q 1234 2150 1697 2047 
L 1894 2003 
Q 2506 1872 2764 1633 
Q 3022 1394 3022 966 
Q 3022 478 2636 193 
Q 2250 -91 1575 -91 
Q 1294 -91 989 -36 
Q 684 19 347 128 
L 347 722 
Q 666 556 975 473 
Q 1284 391 1588 391 
Q 1994 391 2212 530 
Q 2431 669 2431 922 
Q 2431 1156 2273 1281 
Q 2116 1406 1581 1522 
L 1381 1569 
Q 847 1681 609 1914 
Q 372 2147 372 2553 
Q 372 3047 722 3315 
Q 1072 3584 1716 3584 
Q 2034 3584 2315 3537 
Q 2597 3491 2834 3397 
z
" transform="scale(0.015625)"/>
       <path id="DejaVuSans-29" d="M 513 4856 
L 1013 4856 
Q 1481 4119 1714 3412 
Q 1947 2706 1947 2009 
Q 1947 1309 1714 600 
Q 1481 -109 1013 -844 
L 513 -844 
Q 928 -128 1133 580 
Q 1338 1288 1338 2009 
Q 1338 2731 1133 3434 
Q 928 4138 513 4856 
z
" transform="scale(0.015625)"/>
      </defs>
      <use xlink:href="#DejaVuSans-54"/>
      <use xlink:href="#DejaVuSans-69" transform="translate(57.958984 0)"/>
      <use xlink:href="#DejaVuSans-6d" transform="translate(85.742188 0)"/>
      <use xlink:href="#DejaVuSans-65" transform="translate(183.154297 0)"/>
      <use xlink:href="#DejaVuSans-20" transform="translate(244.677734 0)"/>
      <use xlink:href="#DejaVuSans-28" transform="translate(276.464844 0)"/>
      <use xlink:href="#DejaVuSans-73" transform="translate(315.478516 0)"/>
      <use xlink:href="#DejaVuSans-29" transform="translate(367.578125 0)"/>
     </g>
    </g>
   </g>
   <g id="matplotlib.axis_2">
    <g id="ytick_1">
     <g id="line2d_17">
      <path d="M 47.72 229.34444 
L 560.916536 229.34444 
" clip-path="url(#p17f20193ec)" style="fill: none; stroke: #b0b0b0; stroke-opacity: 0.3; stroke-width: 0.8; stroke-linecap: square"/>
     </g>
     <g id="line2d_18">
      <defs>
       <path id="mafb18375ce" d="M 0 0 
L -3.5 0 
" style="stroke: #000000; stroke-width: 0.8"/>
      </defs>
      <g>
       <use xlink:href="#mafb18375ce" x="47.72" y="229.34444" style="stroke: #000000; stroke-width: 0.8"/>
      </g>
     </g>
     <g id="text_10">
      <!-- 0.0 -->
      <g transform="translate(24.816875 233.143659) scale(0.1 -0.1)">
       <use xlink:href="#DejaVuSans-30"/>
       <use xlink:href="#DejaVuSans-2e" transform="translate(63.623047 0)"/>
       <use xlink:href="#DejaVuSans-30" transform="translate(95.410156 0)"/>
      </g>
     </g>
    </g>
    <g id="ytick_2">
     <g id="line2d_19">
      <path d="M 47.72 190.843916 
L 560.916536 190.843916 
" clip-path="url(#p17f20193ec)" style="fill: none; stroke: #b0b0b0; stroke-opacity: 0.3; stroke-width: 0.8; stroke-linecap: square"/>
     </g>
     <g id="line2d_20">
      <g>
       <use xlink:href="#mafb18375ce" x="47.72" y="190.843916" style="stroke: #000000; stroke-width: 0.8"/>
      </g>
     </g>
     <g id="text_11">
      <!-- 0.1 -->
      <g transform="translate(24.816875 194.643134) scale(0.1 -0.1)">
       <use xlink:href="#DejaVuSans-30"/>
       <use xlink:href="#DejaVuSans-2e" transform="translate(63.623047 0)"/>
       <use xlink:href="#DejaVuSans-31" transform="translate(95.410156 0)"/>
      </g>
     </g>
    </g>
    <g id="ytick_3">
     <g id="line2d_21">
      <path d="M 47.72 152.343391 
L 560.916536 152.343391 
" clip-path="url(#p17f20193ec)" style="fill: none; stroke: #b0b0b0; stroke-opacity: 0.3; stroke-width: 0.8; stroke-linecap: square"/>
     </g>
     <g id="line2d_22">
      <g>
       <use xlink:href="#mafb18375ce" x="47.72" y="152.343391" style="stroke: #000000; stroke-width: 0.8"/>
      </g>
     </g>
     <g id="text_12">
      <!-- 0.2 -->
      <g transform="translate(24.816875 156.14261) scale(0.1 -0.1)">
       <use xlink:href="#DejaVuSans-30"/>
       <use xlink:href="#DejaVuSans-2e" transform="translate(63.623047 0)"/>
       <use xlink:href="#DejaVuSans-32" transform="translate(95.410156 0)"/>
      </g>
     </g>
    </g>
    <g id="ytick_4">
     <g id="line2d_23">
      <path d="M 47.72 113.842867 
L 560.916536 113.842867 
" clip-path="url(#p17f20193ec)" style="fill: none; stroke: #b0b0b0; stroke-opacity: 0.3; stroke-width: 0.8; stroke-linecap: square"/>
     </g>
     <g id="line2d_24">
      <g>
       <use xlink:href="#mafb18375ce" x="47.72" y="113.842867" style="stroke: #000000; stroke-width: 0.8"/>
      </g>
     </g>
     <g id="text_13">
      <!-- 0.3 -->
      <g transform="translate(24.816875 117.642086) scale(0.1 -0.1)">
       <defs>
        <path id="DejaVuSans-33" d="M 2597 2516 
Q 3050 2419 3304 2112 
Q 3559 1806 3559 1356 
Q 3559 666 3084 287 
Q 2609 -91 1734 -91 
Q 1441 -91 1130 -33 
Q 819 25 488 141 
L 488 750 
Q 750 597 1062 519 
Q 1375 441 1716 441 
Q 2309 441 2620 675 
Q 2931 909 2931 1356 
Q 2931 1769 2642 2001 
Q 2353 2234 1838 2234 
L 1294 2234 
L 1294 2753 
L 1863 2753 
Q 2328 2753 2575 2939 
Q 2822 3125 2822 3475 
Q 2822 3834 2567 4026 
Q 2313 4219 1838 4219 
Q 1578 4219 1281 4162 
Q 984 4106 628 3988 
L 628 4550 
Q 988 4650 1302 4700 
Q 1616 4750 1894 4750 
Q 2613 4750 3031 4423 
Q 3450 4097 3450 3541 
Q 3450 3153 3228 2886 
Q 3006 2619 2597 2516 
z
" transform="scale(0.015625)"/>
       </defs>
       <use xlink:href="#DejaVuSans-30"/>
       <use xlink:href="#DejaVuSans-2e" transform="translate(63.623047 0)"/>
       <use xlink:href="#DejaVuSans-33" transform="translate(95.410156 0)"/>
      </g>
     </g>
    </g>
    <g id="ytick_5">
     <g id="line2d_25">
      <path d="M 47.72 75.342343 
L 560.916536 75.342343 
" clip-path="url(#p17f20193ec)" style="fill: none; stroke: #b0b0b0; stroke-opacity: 0.3; stroke-width: 0.8; stroke-linecap: square"/>
     </g>
     <g id="line2d_26">
      <g>
       <use xlink:href="#mafb18375ce" x="47.72" y="75.342343" style="stroke: #000000; stroke-width: 0.8"/>
      </g>
     </g>
     <g id="text_14">
      <!-- 0.4 -->
      <g transform="translate(24.816875 79.141561) scale(0.1 -0.1)">
       <defs>
        <path id="DejaVuSans-34" d="M 2419 4116 
L 825 1625 
L 2419 1625 
L 2419 4116 
z
M 2253 4666 
L 3047 4666 
L 3047 1625 
L 3713 1625 
L 3713 1100 
L 3047 1100 
L 3047 0 
L 2419 0 
L 2419 1100 
L 313 1100 
L 313 1709 
L 2253 4666 
z
" transform="scale(0.015625)"/>
       </defs>
       <use xlink:href="#DejaVuSans-30"/>
       <use xlink:href="#DejaVuSans-2e" transform="translate(63.623047 0)"/>
       <use xlink:href="#DejaVuSans-34" transform="translate(95.410156 0)"/>
      </g>
     </g>
    </g>
    <g id="ytick_6">
     <g id="line2d_27">
      <path d="M 47.72 36.841818 
L 560.916536 36.841818 
" clip-path="url(#p17f20193ec)" style="fill: none; stroke: #b0b0b0; stroke-opacity: 0.3; stroke-width: 0.8; stroke-linecap: square"/>
     </g>
     <g id="line2d_28">
      <g>
       <use xlink:href="#mafb18375ce" x="47.72" y="36.841818" style="stroke: #000000; stroke-width: 0.8"/>
      </g>
     </g>
     <g id="text_15">
      <!-- 0.5 -->
      <g transform="translate(24.816875 40.641037) scale(0.1 -0.1)">
       <use xlink:href="#DejaVuSans-30"/>
       <use xlink:href="#DejaVuSans-2e" transform="translate(63.623047 0)"/>
       <use xlink:href="#DejaVuSans-35" transform="translate(95.410156 0)"/>
      </g>
     </g>
    </g>
    <g id="text_16">
     <!-- Amplitude -->
     <g transform="translate(18.737187 162.082656) rotate(-90) scale(0.1 -0.1)">
      <defs>
       <path id="DejaVuSans-41" d="M 2188 4044 
L 1331 1722 
L 3047 1722 
L 2188 4044 
z
M 1831 4666 
L 2547 4666 
L 4325 0 
L 3669 0 
L 3244 1197 
L 1141 1197 
L 716 0 
L 50 0 
L 1831 4666 
z
" transform="scale(0.015625)"/>
       <path id="DejaVuSans-70" d="M 1159 525 
L 1159 -1331 
L 581 -1331 
L 581 3500 
L 1159 3500 
L 1159 2969 
Q 1341 3281 1617 3432 
Q 1894 3584 2278 3584 
Q 2916 3584 3314 3078 
Q 3713 2572 3713 1747 
Q 3713 922 3314 415 
Q 2916 -91 2278 -91 
Q 1894 -91 1617 61 
Q 1341 213 1159 525 
z
M 3116 1747 
Q 3116 2381 2855 2742 
Q 2594 3103 2138 3103 
Q 1681 3103 1420 2742 
Q 1159 2381 1159 1747 
Q 1159 1113 1420 752 
Q 1681 391 2138 391 
Q 2594 391 2855 752 
Q 3116 1113 3116 1747 
z
" transform="scale(0.015625)"/>
       <path id="DejaVuSans-6c" d="M 603 4863 
L 1178 4863 
L 1178 0 
L 603 0 
L 603 4863 
z
" transform="scale(0.015625)"/>
       <path id="DejaVuSans-74" d="M 1172 4494 
L 1172 3500 
L 2356 3500 
L 2356 3053 
L 1172 3053 
L 1172 1153 
Q 1172 725 1289 603 
Q 1406 481 1766 481 
L 2356 481 
L 2356 0 
L 1766 0 
Q 1100 0 847 248 
Q 594 497 594 1153 
L 594 3053 
L 172 3053 
L 172 3500 
L 594 3500 
L 594 4494 
L 1172 4494 
z
" transform="scale(0.015625)"/>
       <path id="DejaVuSans-75" d="M 544 1381 
L 544 3500 
L 1119 3500 
L 1119 1403 
Q 1119 906 1312 657 
Q 1506 409 1894 409 
Q 2359 409 2629 706 
Q 2900 1003 2900 1516 
L 2900 3500 
L 3475 3500 
L 3475 0 
L 2900 0 
L 2900 538 
Q 2691 219 2414 64 
Q 2138 -91 1772 -91 
Q 1169 -91 856 284 
Q 544 659 544 1381 
z
M 1991 3584 
L 1991 3584 
z
" transform="scale(0.015625)"/>
       <path id="DejaVuSans-64" d="M 2906 2969 
L 2906 4863 
L 3481 4863 
L 3481 0 
L 2906 0 
L 2906 525 
Q 2725 213 2448 61 
Q 2172 -91 1784 -91 
Q 1150 -91 751 415 
Q 353 922 353 1747 
Q 353 2572 751 3078 
Q 1150 3584 1784 3584 
Q 2172 3584 2448 3432 
Q 2725 3281 2906 2969 
z
M 947 1747 
Q 947 1113 1208 752 
Q 1469 391 1925 391 
Q 2381 391 2643 752 
Q 2906 1113 2906 1747 
Q 2906 2381 2643 2742 
Q 2381 3103 1925 3103 
Q 1469 3103 1208 2742 
Q 947 2381 947 1747 
z
" transform="scale(0.015625)"/>
      </defs>
      <use xlink:href="#DejaVuSans-41"/>
      <use xlink:href="#DejaVuSans-6d" transform="translate(68.408203 0)"/>
      <use xlink:href="#DejaVuSans-70" transform="translate(165.820312 0)"/>
      <use xlink:href="#DejaVuSans-6c" transform="translate(229.296875 0)"/>
      <use xlink:href="#DejaVuSans-69" transform="translate(257.080078 0)"/>
      <use xlink:href="#DejaVuSans-74" transform="translate(284.863281 0)"/>
      <use xlink:href="#DejaVuSans-75" transform="translate(324.072266 0)"/>
      <use xlink:href="#DejaVuSans-64" transform="translate(387.451172 0)"/>
      <use xlink:href="#DejaVuSans-65" transform="translate(450.927734 0)"/>
     </g>
    </g>
   </g>
   <g id="line2d_29">
    <path d="M 71.047115 229.34444 
L 76.684577 229.34444 
L 76.799404 36.841818 
L 76.914231 229.34444 
L 88.07706 229.34444 
L 88.191887 85.655093 
L 88.249301 87.935864 
L 88.361394 236.078182 
L 88.418808 231.299497 
L 88.476221 229.023731 
L 88.533635 229.251269 
L 88.703141 229.34367 
L 99.469544 229.34444 
L 99.526958 217.427373 
L 99.639051 111.308377 
L 99.696464 115.848359 
L 99.868705 234.213601 
L 99.980798 228.990235 
L 100.038211 229.313255 
L 100.210452 229.3429 
L 104.366098 229.34444 
L 110.859294 229.34444 
L 110.916708 226.379515 
L 111.031535 167.501048 
L 111.088948 128.531587 
L 111.146362 134.421397 
L 111.315868 233.885192 
L 111.430695 229.031431 
L 111.488109 229.169263 
L 111.600202 229.35907 
L 112.056776 229.34444 
L 122.251778 229.34444 
L 122.309191 228.60677 
L 122.366605 222.70464 
L 122.536111 141.430803 
L 122.593525 148.042113 
L 122.765766 232.457978 
L 122.823179 231.690277 
L 122.935272 229.072241 
L 123.050099 229.36908 
L 123.107513 229.34906 
L 124.075341 229.34444 
L 133.644262 229.34444 
L 133.701675 229.160793 
L 133.759089 227.325473 
L 133.871182 199.538104 
L 133.986009 151.683492 
L 134.043422 158.620517 
L 134.270342 231.87739 
L 134.385169 229.094187 
L 134.439849 229.243954 
L 134.61209 229.34367 
L 145.091425 229.298624 
L 145.148838 228.750762 
L 145.206252 225.795077 
L 145.321079 197.705479 
L 145.433172 160.133972 
L 145.490586 167.148768 
L 145.72024 231.727238 
L 145.889746 229.198908 
L 146.061987 229.347135 
L 147.483655 229.34444 
L 156.483909 229.33289 
L 156.541322 229.173883 
L 156.598736 228.155159 
L 156.710829 214.230674 
L 156.883069 167.269275 
L 156.940483 174.205144 
L 157.167403 231.405373 
L 157.33691 229.186588 
L 157.50915 229.35137 
L 158.307472 229.34444 
L 167.931072 229.296314 
L 167.988485 228.960975 
L 168.045899 227.440204 
L 168.160726 212.577462 
L 168.330233 173.398173 
L 168.387646 180.15617 
L 168.614566 231.017673 
L 168.786807 229.203143 
L 168.84422 229.285919 
L 169.013727 229.34521 
L 172.319106 229.34444 
L 179.323556 229.330965 
L 179.380969 229.224318 
L 179.438383 228.668371 
L 179.550476 221.455298 
L 179.78013 178.728571 
L 179.837543 185.247479 
L 180.064464 230.624198 
L 180.121877 230.442475 
L 180.23397 229.237794 
L 180.291384 229.270904 
L 180.463624 229.347135 
L 182.341867 229.34444 
L 190.773453 229.307865 
L 190.828133 229.113437 
L 190.885546 228.314551 
L 191.000373 220.341092 
L 191.227293 183.409849 
L 191.284707 189.653094 
L 191.56904 230.398199 
L 191.741281 229.265129 
L 191.910788 229.348675 
L 193.33519 229.34444 
L 202.220616 229.267824 
L 202.27803 228.96444 
L 202.392857 225.148653 
L 202.677191 187.551351 
L 202.734604 193.498912 
L 203.018938 230.319658 
L 203.188444 229.267824 
L 203.418098 229.344825 
L 208.656399 229.34444 
L 213.6131 229.3198 
L 213.670514 229.209303 
L 213.782607 227.503345 
L 213.897434 218.697505 
L 214.124354 191.238161 
L 214.296595 218.416451 
L 214.466101 230.221097 
L 214.638342 229.276294 
L 214.922675 229.344055 
L 225.060263 229.297854 
L 225.117677 229.131532 
L 225.232504 227.083304 
L 225.344597 218.146563 
L 225.574251 194.536116 
L 225.743758 219.06249 
L 225.915998 230.114451 
L 226.085505 229.288614 
L 226.142919 229.30979 
L 226.427252 229.344055 
L 236.452747 229.328655 
L 236.510161 229.266284 
L 236.567574 229.036436 
L 236.679667 226.674044 
L 236.851908 210.371767 
L 237.021415 197.498346 
L 237.363162 230.006649 
L 237.477989 229.435301 
L 237.592816 229.30825 
L 237.877149 229.344055 
L 247.899911 229.31672 
L 247.957324 229.225473 
L 248.072151 228.114348 
L 248.186978 222.849787 
L 248.413898 199.990485 
L 248.471312 200.168358 
L 248.813059 229.902698 
L 248.927886 229.458787 
L 249.039979 229.30902 
L 249.381726 229.34444 
L 259.349808 229.299779 
L 259.464635 228.802353 
L 259.576728 225.925979 
L 259.748969 211.188363 
L 259.863796 202.069514 
L 259.918475 202.582341 
L 260.260222 229.804906 
L 260.375049 229.475342 
L 260.544556 229.331735 
L 261.058544 229.34444 
L 270.799705 229.277834 
L 270.911798 228.669911 
L 271.026625 225.600649 
L 271.310959 204.003395 
L 271.368372 204.76994 
L 271.71012 229.715585 
L 271.767533 229.711735 
L 271.93704 229.314795 
L 272.451028 229.34444 
L 282.246869 229.250114 
L 282.361696 228.531694 
L 282.473789 225.31228 
L 282.758122 205.800214 
L 282.815536 206.756952 
L 283.214697 229.683245 
L 283.386937 229.319415 
L 284.125111 229.34444 
L 293.639352 229.307095 
L 293.751445 228.972525 
L 293.866272 227.194186 
L 294.035779 217.521699 
L 294.20802 207.469982 
L 294.265433 208.565322 
L 294.664594 229.653214 
L 294.891514 229.32904 
L 295.460181 229.34444 
L 305.086516 229.292079 
L 305.201343 228.893214 
L 305.31617 226.993213 
L 305.485676 217.712277 
L 305.657917 209.020398 
L 305.77001 213.665872 
L 306.054344 229.500752 
L 306.111757 229.623184 
L 306.169171 229.494592 
L 306.338677 229.329425 
L 306.967492 229.34444 
L 316.536413 229.273984 
L 316.648506 228.810053 
L 316.763333 226.809566 
L 316.935574 217.95175 
L 317.10508 210.459933 
L 317.219907 214.950634 
L 317.504241 229.446081 
L 317.561654 229.593153 
L 317.616334 229.491127 
L 317.788575 229.330195 
L 318.529482 229.34444 
L 327.983576 229.253194 
L 328.098403 228.724967 
L 328.210496 226.644783 
L 328.552244 211.796286 
L 328.609657 213.095294 
L 329.008818 229.564663 
L 329.293151 229.338665 
L 330.43322 229.34444 
L 339.37606 229.30517 
L 339.488153 229.044136 
L 339.60298 227.8537 
L 339.775221 221.688226 
L 340.002141 213.037158 
L 340.116968 217.183279 
L 340.401302 229.358685 
L 340.458715 229.537713 
L 340.516129 229.479192 
L 340.685635 229.33289 
L 341.883117 229.34444 
L 350.823223 229.293619 
L 350.93805 228.9937 
L 351.052877 227.736273 
L 351.222384 221.766767 
L 351.452038 214.188709 
L 351.564131 218.153493 
L 351.848465 229.32442 
L 351.905878 229.512687 
L 351.963292 229.471877 
L 352.190212 229.33828 
L 353.499787 229.34444 
L 362.273121 229.280529 
L 362.387948 228.94134 
L 362.500041 227.628087 
L 362.672281 221.876493 
L 362.899201 215.257483 
L 363.014029 219.039775 
L 363.298362 229.295929 
L 363.355776 229.489202 
L 363.410455 229.463792 
L 363.640109 229.33828 
L 365.064512 229.34444 
L 373.720284 229.265514 
L 373.835111 228.888594 
L 373.949938 227.52991 
L 374.119445 222.01163 
L 374.346365 216.250027 
L 374.461192 219.850211 
L 374.745525 229.272444 
L 374.860353 229.455322 
L 375.087273 229.338665 
L 376.796009 229.34444 
L 385.170181 229.249344 
L 385.282274 228.835848 
L 385.397101 227.442514 
L 385.624022 219.956087 
L 385.738849 217.075478 
L 385.796262 217.171344 
L 385.968503 223.146241 
L 386.195423 229.253194 
L 386.31025 229.446851 
L 386.53717 229.33905 
L 388.415412 229.34444 
L 396.559931 229.300165 
L 396.674758 229.081867 
L 396.789585 228.245635 
L 396.959092 224.349382 
L 397.188746 217.843948 
L 397.246159 218.026826 
L 397.415666 223.621722 
L 397.642586 229.237794 
L 397.757413 229.438381 
L 398.041747 229.34213 
L 400.833138 229.34444 
L 408.009828 229.290539 
L 408.124655 229.048756 
L 408.236748 228.180184 
L 408.408989 224.398663 
L 408.635909 218.568143 
L 408.693323 218.821092 
L 408.862829 224.058703 
L 409.092483 229.225858 
L 409.204576 229.430296 
L 409.491644 229.34213 
L 412.679462 229.34444 
L 419.459726 229.280529 
L 419.571819 229.015261 
L 419.686646 228.119738 
L 419.856152 224.464499 
L 420.085806 219.249988 
L 420.140486 219.558762 
L 420.37014 226.316759 
L 420.59706 229.401421 
L 420.769301 229.35753 
L 421.223141 229.34444 
L 430.906889 229.269364 
L 431.021716 228.982535 
L 431.133809 228.065838 
L 431.363463 222.941033 
L 431.53297 219.891406 
L 431.590383 220.244071 
L 432.101637 229.414896 
L 432.159051 229.387176 
L 432.446118 229.344055 
L 440.360983 229.34444 
L 442.356786 229.257429 
L 442.468879 228.94981 
L 442.583706 228.017712 
L 442.810627 223.155481 
L 442.982867 220.494325 
L 443.09496 221.943484 
L 443.436707 229.204683 
L 443.551534 229.407966 
L 443.608948 229.385251 
L 443.950695 229.34444 
L 453.746536 229.30132 
L 453.861363 229.130762 
L 453.973456 228.552484 
L 454.145697 226.043405 
L 454.43003 221.060282 
L 454.544857 222.489422 
L 454.886605 229.201603 
L 455.056111 229.382941 
L 455.397858 229.34444 
L 465.13902 229.32365 
L 465.251113 229.232019 
L 465.36594 228.887439 
L 465.538181 227.125655 
L 465.879928 221.591975 
L 465.992021 222.993394 
L 466.333768 229.200448 
L 466.506009 229.380631 
L 466.905169 229.34444 
L 476.643597 229.287074 
L 476.758424 229.088797 
L 476.873251 228.480873 
L 477.100171 224.971166 
L 477.327091 222.090941 
L 477.441918 223.458865 
L 477.783665 229.200063 
L 477.953172 229.378321 
L 478.352333 229.34444 
L 488.093494 229.278989 
L 488.205587 229.068006 
L 488.377828 227.886425 
L 488.776988 222.558723 
L 488.831668 223.004944 
L 489.345656 229.384096 
L 490.370897 229.34444 
L 499.540657 229.270904 
L 499.655484 229.047986 
L 499.824991 227.86833 
L 500.224152 222.997244 
L 500.338979 224.285856 
L 500.680726 229.202758 
L 500.850233 229.373701 
L 501.36422 229.34444 
L 510.990555 229.262434 
L 511.102648 229.028736 
L 511.274888 227.85601 
L 511.616635 223.383789 
L 511.674049 223.408429 
L 511.843556 225.664175 
L 512.127889 229.205068 
L 512.30013 229.37139 
L 512.868797 229.34444 
L 522.437718 229.253579 
L 522.552545 229.009871 
L 522.722052 227.84831 
L 523.063799 223.736069 
L 523.121212 223.793434 
L 523.293453 225.936374 
L 523.577787 229.208148 
L 523.747293 229.369465 
L 524.376108 229.34444 
L 533.887615 229.244724 
L 533.999708 228.99216 
L 534.171949 227.846 
L 534.513696 224.069098 
L 534.57111 224.154184 
L 534.740616 226.187397 
L 535.02495 229.211613 
L 535.19719 229.36754 
L 535.938098 229.34444 
L 537.589421 229.34444 
L 537.589421 229.34444 
" clip-path="url(#p17f20193ec)" style="fill: none; stroke: #1f77b4; stroke-width: 1.5; stroke-linecap: square"/>
   </g>
   <g id="patch_3">
    <path d="M 47.72 246.04 
L 47.72 26.88 
" style="fill: none; stroke: #000000; stroke-width: 0.8; stroke-linejoin: miter; stroke-linecap: square"/>
   </g>
   <g id="patch_4">
    <path d="M 560.916536 246.04 
L 560.916536 26.88 
" style="fill: none; stroke: #000000; stroke-width: 0.8; stroke-linejoin: miter; stroke-linecap: square"/>
   </g>
   <g id="patch_5">
    <path d="M 47.72 246.04 
L 560.916536 246.04 
" style="fill: none; stroke: #000000; stroke-width: 0.8; stroke-linejoin: miter; stroke-linecap: square"/>
   </g>
   <g id="patch_6">
    <path d="M 47.72 26.88 
L 560.916536 26.88 
" style="fill: none; stroke: #000000; stroke-width: 0.8; stroke-linejoin: miter; stroke-linecap: square"/>
   </g>
   <g id="text_17">
    <!-- WaveguideResonator impulse response (String, 240 Hz, gain=0.95) -->
    <g transform="translate(101.555768 20.88) scale(0.12 -0.12)">
     <defs>
      <path id="DejaVuSans-57" d="M 213 4666 
L 850 4666 
L 1831 722 
L 2809 4666 
L 3519 4666 
L 4500 722 
L 5478 4666 
L 6119 4666 
L 4947 0 
L 4153 0 
L 3169 4050 
L 2175 0 
L 1381 0 
L 213 4666 
z
" transform="scale(0.015625)"/>
      <path id="DejaVuSans-61" d="M 2194 1759 
Q 1497 1759 1228 1600 
Q 959 1441 959 1056 
Q 959 750 1161 570 
Q 1363 391 1709 391 
Q 2188 391 2477 730 
Q 2766 1069 2766 1631 
L 2766 1759 
L 2194 1759 
z
M 3341 1997 
L 3341 0 
L 2766 0 
L 2766 531 
Q 2569 213 2275 61 
Q 1981 -91 1556 -91 
Q 1019 -91 701 211 
Q 384 513 384 1019 
Q 384 1609 779 1909 
Q 1175 2209 1959 2209 
L 2766 2209 
L 2766 2266 
Q 2766 2663 2505 2880 
Q 2244 3097 1772 3097 
Q 1472 3097 1187 3025 
Q 903 2953 641 2809 
L 641 3341 
Q 956 3463 1253 3523 
Q 1550 3584 1831 3584 
Q 2591 3584 2966 3190 
Q 3341 2797 3341 1997 
z
" transform="scale(0.015625)"/>
      <path id="DejaVuSans-76" d="M 191 3500 
L 800 3500 
L 1894 563 
L 2988 3500 
L 3597 3500 
L 2284 0 
L 1503 0 
L 191 3500 
z
" transform="scale(0.015625)"/>
      <path id="DejaVuSans-67" d="M 2906 1791 
Q 2906 2416 2648 2759 
Q 2391 3103 1925 3103 
Q 1463 3103 1205 2759 
Q 947 2416 947 1791 
Q 947 1169 1205 825 
Q 1463 481 1925 481 
Q 2391 481 2648 825 
Q 2906 1169 2906 1791 
z
M 3481 434 
Q 3481 -459 3084 -895 
Q 2688 -1331 1869 -1331 
Q 1566 -1331 1297 -1286 
Q 1028 -1241 775 -1147 
L 775 -588 
Q 1028 -725 1275 -790 
Q 1522 -856 1778 -856 
Q 2344 -856 2625 -561 
Q 2906 -266 2906 331 
L 2906 616 
Q 2728 306 2450 153 
Q 2172 0 1784 0 
Q 1141 0 747 490 
Q 353 981 353 1791 
Q 353 2603 747 3093 
Q 1141 3584 1784 3584 
Q 2172 3584 2450 3431 
Q 2728 3278 2906 2969 
L 2906 3500 
L 3481 3500 
L 3481 434 
z
" transform="scale(0.015625)"/>
      <path id="DejaVuSans-52" d="M 2841 2188 
Q 3044 2119 3236 1894 
Q 3428 1669 3622 1275 
L 4263 0 
L 3584 0 
L 2988 1197 
Q 2756 1666 2539 1819 
Q 2322 1972 1947 1972 
L 1259 1972 
L 1259 0 
L 628 0 
L 628 4666 
L 2053 4666 
Q 2853 4666 3247 4331 
Q 3641 3997 3641 3322 
Q 3641 2881 3436 2590 
Q 3231 2300 2841 2188 
z
M 1259 4147 
L 1259 2491 
L 2053 2491 
Q 2509 2491 2742 2702 
Q 2975 2913 2975 3322 
Q 2975 3731 2742 3939 
Q 2509 4147 2053 4147 
L 1259 4147 
z
" transform="scale(0.015625)"/>
      <path id="DejaVuSans-6f" d="M 1959 3097 
Q 1497 3097 1228 2736 
Q 959 2375 959 1747 
Q 959 1119 1226 758 
Q 1494 397 1959 397 
Q 2419 397 2687 759 
Q 2956 1122 2956 1747 
Q 2956 2369 2687 2733 
Q 2419 3097 1959 3097 
z
M 1959 3584 
Q 2709 3584 3137 3096 
Q 3566 2609 3566 1747 
Q 3566 888 3137 398 
Q 2709 -91 1959 -91 
Q 1206 -91 779 398 
Q 353 888 353 1747 
Q 353 2609 779 3096 
Q 1206 3584 1959 3584 
z
" transform="scale(0.015625)"/>
      <path id="DejaVuSans-6e" d="M 3513 2113 
L 3513 0 
L 2938 0 
L 2938 2094 
Q 2938 2591 2744 2837 
Q 2550 3084 2163 3084 
Q 1697 3084 1428 2787 
Q 1159 2491 1159 1978 
L 1159 0 
L 581 0 
L 581 3500 
L 1159 3500 
L 1159 2956 
Q 1366 3272 1645 3428 
Q 1925 3584 2291 3584 
Q 2894 3584 3203 3211 
Q 3513 2838 3513 2113 
z
" transform="scale(0.015625)"/>
      <path id="DejaVuSans-72" d="M 2631 2963 
Q 2534 3019 2420 3045 
Q 2306 3072 2169 3072 
Q 1681 3072 1420 2755 
Q 1159 2438 1159 1844 
L 1159 0 
L 581 0 
L 581 3500 
L 1159 3500 
L 1159 2956 
Q 1341 3275 1631 3429 
Q 1922 3584 2338 3584 
Q 2397 3584 2469 3576 
Q 2541 3569 2628 3553 
L 2631 2963 
z
" transform="scale(0.015625)"/>
      <path id="DejaVuSans-53" d="M 3425 4513 
L 3425 3897 
Q 3066 4069 2747 4153 
Q 2428 4238 2131 4238 
Q 1616 4238 1336 4038 
Q 1056 3838 1056 3469 
Q 1056 3159 1242 3001 
Q 1428 2844 1947 2747 
L 2328 2669 
Q 3034 2534 3370 2195 
Q 3706 1856 3706 1288 
Q 3706 609 3251 259 
Q 2797 -91 1919 -91 
Q 1588 -91 1214 -16 
Q 841 59 441 206 
L 441 856 
Q 825 641 1194 531 
Q 1563 422 1919 422 
Q 2459 422 2753 634 
Q 3047 847 3047 1241 
Q 3047 1584 2836 1778 
Q 2625 1972 2144 2069 
L 1759 2144 
Q 1053 2284 737 2584 
Q 422 2884 422 3419 
Q 422 4038 858 4394 
Q 1294 4750 2059 4750 
Q 2388 4750 2728 4690 
Q 3069 4631 3425 4513 
z
" transform="scale(0.015625)"/>
      <path id="DejaVuSans-2c" d="M 750 794 
L 1409 794 
L 1409 256 
L 897 -744 
L 494 -744 
L 750 256 
L 750 794 
z
" transform="scale(0.015625)"/>
      <path id="DejaVuSans-48" d="M 628 4666 
L 1259 4666 
L 1259 2753 
L 3553 2753 
L 3553 4666 
L 4184 4666 
L 4184 0 
L 3553 0 
L 3553 2222 
L 1259 2222 
L 1259 0 
L 628 0 
L 628 4666 
z
" transform="scale(0.015625)"/>
      <path id="DejaVuSans-7a" d="M 353 3500 
L 3084 3500 
L 3084 2975 
L 922 459 
L 3084 459 
L 3084 0 
L 275 0 
L 275 525 
L 2438 3041 
L 353 3041 
L 353 3500 
z
" transform="scale(0.015625)"/>
      <path id="DejaVuSans-3d" d="M 678 2906 
L 4684 2906 
L 4684 2381 
L 678 2381 
L 678 2906 
z
M 678 1631 
L 4684 1631 
L 4684 1100 
L 678 1100 
L 678 1631 
z
" transform="scale(0.015625)"/>
      <path id="DejaVuSans-39" d="M 703 97 
L 703 672 
Q 941 559 1184 500 
Q 1428 441 1663 441 
Q 2288 441 2617 861 
Q 2947 1281 2994 2138 
Q 2813 1869 2534 1725 
Q 2256 1581 1919 1581 
Q 1219 1581 811 2004 
Q 403 2428 403 3163 
Q 403 3881 828 4315 
Q 1253 4750 1959 4750 
Q 2769 4750 3195 4129 
Q 3622 3509 3622 2328 
Q 3622 1225 3098 567 
Q 2575 -91 1691 -91 
Q 1453 -91 1209 -44 
Q 966 3 703 97 
z
M 1959 2075 
Q 2384 2075 2632 2365 
Q 2881 2656 2881 3163 
Q 2881 3666 2632 3958 
Q 2384 4250 1959 4250 
Q 1534 4250 1286 3958 
Q 1038 3666 1038 3163 
Q 1038 2656 1286 2365 
Q 1534 2075 1959 2075 
z
" transform="scale(0.015625)"/>
     </defs>
     <use xlink:href="#DejaVuSans-57"/>
     <use xlink:href="#DejaVuSans-61" transform="translate(92.501953 0)"/>
     <use xlink:href="#DejaVuSans-76" transform="translate(153.78125 0)"/>
     <use xlink:href="#DejaVuSans-65" transform="translate(212.960938 0)"/>
     <use xlink:href="#DejaVuSans-67" transform="translate(274.484375 0)"/>
     <use xlink:href="#DejaVuSans-75" transform="translate(337.960938 0)"/>
     <use xlink:href="#DejaVuSans-69" transform="translate(401.339844 0)"/>
     <use xlink:href="#DejaVuSans-64" transform="translate(429.123047 0)"/>
     <use xlink:href="#DejaVuSans-65" transform="translate(492.599609 0)"/>
     <use xlink:href="#DejaVuSans-52" transform="translate(554.123047 0)"/>
     <use xlink:href="#DejaVuSans-65" transform="translate(619.105469 0)"/>
     <use xlink:href="#DejaVuSans-73" transform="translate(680.628906 0)"/>
     <use xlink:href="#DejaVuSans-6f" transform="translate(732.728516 0)"/>
     <use xlink:href="#DejaVuSans-6e" transform="translate(793.910156 0)"/>
     <use xlink:href="#DejaVuSans-61" transform="translate(857.289062 0)"/>
     <use xlink:href="#DejaVuSans-74" transform="translate(918.568359 0)"/>
     <use xlink:href="#DejaVuSans-6f" transform="translate(957.777344 0)"/>
     <use xlink:href="#DejaVuSans-72" transform="translate(1018.958984 0)"/>
     <use xlink:href="#DejaVuSans-20" transform="translate(1060.072266 0)"/>
     <use xlink:href="#DejaVuSans-69" transform="translate(1091.859375 0)"/>
     <use xlink:href="#DejaVuSans-6d" transform="translate(1119.642578 0)"/>
     <use xlink:href="#DejaVuSans-70" transform="translate(1217.054688 0)"/>
     <use xlink:href="#DejaVuSans-75" transform="translate(1280.53125 0)"/>
     <use xlink:href="#DejaVuSans-6c" transform="translate(1343.910156 0)"/>
     <use xlink:href="#DejaVuSans-73" transform="translate(1371.693359 0)"/>
     <use xlink:href="#DejaVuSans-65" transform="translate(1423.792969 0)"/>
     <use xlink:href="#DejaVuSans-20" transform="translate(1485.316406 0)"/>
     <use xlink:href="#DejaVuSans-72" transform="translate(1517.103516 0)"/>
     <use xlink:href="#DejaVuSans-65" transform="translate(1555.966797 0)"/>
     <use xlink:href="#DejaVuSans-73" transform="translate(1617.490234 0)"/>
     <use xlink:href="#DejaVuSans-70" transform="translate(1669.589844 0)"/>
     <use xlink:href="#DejaVuSans-6f" transform="translate(1733.066406 0)"/>
     <use xlink:href="#DejaVuSans-6e" transform="translate(1794.248047 0)"/>
     <use xlink:href="#DejaVuSans-73" transform="translate(1857.626953 0)"/>
     <use xlink:href="#DejaVuSans-65" transform="translate(1909.726562 0)"/>
     <use xlink:href="#DejaVuSans-20" transform="translate(1971.25 0)"/>
     <use xlink:href="#DejaVuSans-28" transform="translate(2003.037109 0)"/>
     <use xlink:href="#DejaVuSans-53" transform="translate(2042.050781 0)"/>
     <use xlink:href="#DejaVuSans-74" transform="translate(2105.527344 0)"/>
     <use xlink:href="#DejaVuSans-72" transform="translate(2144.736328 0)"/>
     <use xlink:href="#DejaVuSans-69" transform="translate(2185.849609 0)"/>
     <use xlink:href="#DejaVuSans-6e" transform="translate(2213.632812 0)"/>
     <use xlink:href="#DejaVuSans-67" transform="translate(2277.011719 0)"/>
     <use xlink:href="#DejaVuSans-2c" transform="translate(2340.488281 0)"/>
     <use xlink:href="#DejaVuSans-20" transform="translate(2372.275391 0)"/>
     <use xlink:href="#DejaVuSans-32" transform="translate(2404.0625 0)"/>
     <use xlink:href="#DejaVuSans-34" transform="translate(2467.685547 0)"/>
     <use xlink:href="#DejaVuSans-30" transform="translate(2531.308594 0)"/>
     <use xlink:href="#DejaVuSans-20" transform="translate(2594.931641 0)"/>
     <use xlink:href="#DejaVuSans-48" transform="translate(2626.71875 0)"/>
     <use xlink:href="#DejaVuSans-7a" transform="translate(2701.914062 0)"/>
     <use xlink:href="#DejaVuSans-2c" transform="translate(2754.404297 0)"/>
     <use xlink:href="#DejaVuSans-20" transform="translate(2786.191406 0)"/>
     <use xlink:href="#DejaVuSans-67" transform="translate(2817.978516 0)"/>
     <use xlink:href="#DejaVuSans-61" transform="translate(2881.455078 0)"/>
     <use xlink:href="#DejaVuSans-69" transform="translate(2942.734375 0)"/>
     <use xlink:href="#DejaVuSans-6e" transform="translate(2970.517578 0)"/>
     <use xlink:href="#DejaVuSans-3d" transform="translate(3033.896484 0)"/>
     <use xlink:href="#DejaVuSans-30" transform="translate(3117.685547 0)"/>
     <use xlink:href="#DejaVuSans-2e" transform="translate(3181.308594 0)"/>
     <use xlink:href="#DejaVuSans-39" transform="translate(3213.095703 0)"/>
     <use xlink:href="#DejaVuSans-35" transform="translate(3276.71875 0)"/>
     <use xlink:href="#DejaVuSans-29" transform="translate(3340.341797 0)"/>
    </g>
   </g>
  </g>
 </g>
 <defs>
  <clipPath id="p17f20193ec">
   <rect x="47.72" y="26.88" width="513.196536" height="219.16"/>
  </clipPath>
 </defs>
</svg>
